<svg width="36" height="36" viewBox="0 0 36 36" fill="none" xmlns="http://www.w3.org/2000/svg">
<path d="M18 21.375C19.8608 21.375 21.375 19.8607 21.375 18C21.375 16.1392 19.8607 14.625 18 14.625C16.1392 14.625 14.625 16.1392 14.625 18C14.625 19.8608 16.1392 21.375 18 21.375Z" fill="#828282"/>
<path d="M29.25 21.375C31.1108 21.375 32.625 19.8607 32.625 18C32.625 16.1392 31.1107 14.625 29.25 14.625C27.3892 14.625 25.875 16.1392 25.875 18C25.875 19.8608 27.3892 21.375 29.25 21.375Z" fill="#828282"/>
<path d="M6.75 21.375C8.61075 21.375 10.125 19.8607 10.125 18C10.125 16.1392 8.61075 14.625 6.75 14.625C4.88925 14.625 3.375 16.1392 3.375 18C3.375 19.8608 4.88925 21.375 6.75 21.375Z" fill="#828282"/>
</svg>
