<svg width="30" height="28" viewBox="0 0 30 28" fill="none" xmlns="http://www.w3.org/2000/svg">
<path d="M19.6856 10.1133H10.3143C10.1118 10.1133 9.92621 10.0064 9.82496 9.83205C9.72371 9.65768 9.72371 9.44393 9.82496 9.26955L14.5106 1.15268C14.7131 0.803926 15.2868 0.803926 15.4837 1.15268L20.1693 9.26955C20.2706 9.44393 20.2706 9.65768 20.1693 9.83205C20.0737 10.0064 19.8881 10.1133 19.6856 10.1133ZM11.2875 8.9883H18.7125L15 2.55893L11.2875 8.9883Z" fill="black"/>
<path d="M14.9997 27.1289C14.7466 27.1289 14.5272 26.9601 14.4597 26.7183L9.76844 9.70265C9.72344 9.5339 9.75719 9.3539 9.86407 9.21327C9.97094 9.07265 10.1341 8.9939 10.3141 8.9939H19.6909C19.8653 8.9939 20.0341 9.07827 20.1409 9.21327C20.2478 9.3539 20.2816 9.5339 20.2366 9.70265L15.5397 26.7126C15.4722 26.9601 15.2528 27.1289 14.9997 27.1289ZM11.0509 10.1133L14.9997 24.4458L18.9484 10.1133H11.0509Z" fill="black"/>
<path d="M15 27.1289C14.91 27.1289 14.8256 27.1064 14.7412 27.067C14.505 26.9433 14.3869 26.6733 14.46 26.4201L19.1456 9.41014C19.2131 9.16826 19.4325 8.99951 19.6856 8.99951H29.0625C29.2819 8.99951 29.4787 9.12326 29.5687 9.32014C29.6644 9.51701 29.6306 9.74764 29.4956 9.91639L15.4331 26.9264C15.3262 27.0558 15.1631 27.1289 15 27.1289ZM20.1187 10.1133L16.2375 24.1814L27.8644 10.1133H20.1187Z" fill="black"/>
<path d="M14.9998 27.1289C14.8367 27.1289 14.6736 27.0558 14.5667 26.9264L0.504211 9.91639C0.363586 9.74764 0.335461 9.51701 0.431086 9.32014C0.526711 9.12326 0.723586 8.99951 0.937336 8.99951H10.3142C10.5673 8.99951 10.7867 9.16826 10.8542 9.41014L15.5398 26.4201C15.613 26.6733 15.4948 26.9489 15.2586 27.067C15.1742 27.1064 15.0898 27.1289 14.9998 27.1289ZM2.12984 10.1133L13.7623 24.1814L9.88109 10.1133H2.12984Z" fill="black"/>
<path d="M29.0623 10.1133H19.6854C19.4829 10.1133 19.2973 10.0064 19.1961 9.83205C19.0948 9.65768 19.0948 9.44393 19.1961 9.26955L23.8873 1.15268C24.0898 0.803926 24.6636 0.803926 24.8604 1.15268L29.5461 9.26955C29.6473 9.44393 29.6473 9.65768 29.5461 9.83205C29.4504 10.0064 29.2648 10.1133 29.0623 10.1133ZM20.6642 8.9883H28.0892L24.3767 2.55893L20.6642 8.9883Z" fill="black"/>
<path d="M10.3143 10.1133H0.937383C0.734883 10.1133 0.549258 10.0064 0.448008 9.83205C0.346758 9.65768 0.346758 9.44393 0.448008 9.26955L5.13363 1.15268C5.33613 0.803926 5.90988 0.803926 6.10676 1.15268L10.7924 9.26955C10.8936 9.44393 10.8936 9.65768 10.7924 9.83205C10.6968 10.0064 10.5111 10.1133 10.3143 10.1133ZM1.91051 8.9883H9.33551L5.62301 2.55893L1.91051 8.9883Z" fill="black"/>
<path d="M10.3144 10.1132C10.1119 10.1132 9.92629 10.0063 9.82504 9.83196L5.13941 1.71509C5.03816 1.54071 5.03816 1.32696 5.13941 1.15259C5.24066 0.978213 5.42629 0.871338 5.62879 0.871338H15C15.2025 0.871338 15.3882 0.978213 15.4894 1.15259C15.5907 1.32696 15.5907 1.54071 15.4894 1.71509L10.8038 9.83196C10.6969 10.0063 10.5113 10.1132 10.3144 10.1132ZM6.60191 1.99634L10.3144 8.42571L14.0269 1.99634H6.60191Z" fill="black"/>
<path d="M19.6855 10.1132C19.483 10.1132 19.2974 10.0063 19.1961 9.83196L14.5105 1.71509C14.4093 1.54071 14.4093 1.32696 14.5105 1.15259C14.6118 0.978213 14.7974 0.871338 14.9999 0.871338H24.3768C24.5793 0.871338 24.7649 0.978213 24.8661 1.15259C24.9674 1.32696 24.9674 1.54071 24.8661 1.71509L20.1749 9.83196C20.0736 10.0063 19.888 10.1132 19.6855 10.1132ZM15.973 1.99634L19.6855 8.42571L23.398 1.99634H15.973Z" fill="black"/>
</svg>
