<svg width="28" height="28" viewBox="0 0 28 28" fill="none" xmlns="http://www.w3.org/2000/svg">
<path d="M6.57974 13.6443H15.2365C15.5449 13.6443 15.795 13.3942 15.795 13.0858C15.795 12.7774 15.5449 12.5273 15.2365 12.5273H6.57974C6.27117 12.5273 6.02124 12.7774 6.02124 13.0858C6.02124 13.3942 6.27117 13.6443 6.57974 13.6443Z" fill="#202020"/>
<path d="M11.7624 16.1572H6.57974C6.27117 16.1572 6.02124 16.4073 6.02124 16.7157C6.02124 17.0241 6.27117 17.2742 6.57974 17.2742H11.7624C12.0708 17.2742 12.3209 17.0241 12.3209 16.7157C12.3209 16.4073 12.0708 16.1572 11.7624 16.1572Z" fill="#202020"/>
<path d="M21.4581 14.917V5.26636C21.4578 3.7242 20.2076 2.47439 18.6656 2.47386H16.3758V1.40713C16.3758 1.09856 16.1259 0.848633 15.8173 0.848633C15.5089 0.848633 15.2588 1.09856 15.2588 1.40713V2.47386H7.6632V1.40713C7.6632 1.09856 7.41327 0.848633 7.1047 0.848633C6.79631 0.848633 6.54621 1.09856 6.54621 1.40713V2.47386H4.25636C2.71438 2.47439 1.46457 3.7242 1.46387 5.26636V20.3961C1.46457 21.9381 2.71438 23.1879 4.25636 23.1886H14.5943C15.6689 25.9409 18.5508 27.5386 21.4545 26.992C24.3581 26.4455 26.4619 23.9094 26.4624 20.9546C26.4679 17.9554 24.3065 15.4534 21.4581 14.917ZM4.26212 3.59086H6.55197V4.65759C6.55197 4.96599 6.80189 5.21609 7.11046 5.21609C7.41886 5.21609 7.66896 4.96599 7.66896 4.65759V3.59086H15.2645V4.65759C15.2645 4.96599 15.5145 5.21609 15.823 5.21609C16.1314 5.21609 16.3815 4.96599 16.3815 4.65759V3.59086H18.6714C19.5955 3.59348 20.3441 4.34204 20.3469 5.26636V6.61792H2.58662V5.26636C2.58732 4.34117 3.33711 3.59156 4.26212 3.59086ZM4.26212 22.0716C3.3378 22.069 2.58924 21.3202 2.58662 20.3961V7.72934H20.3411V14.8111H20.3244C18.5003 14.8139 16.7716 15.6256 15.6047 17.0278C14.4376 18.4298 13.9531 20.2774 14.2814 22.0716H4.26212ZM20.3244 25.9811C17.5485 25.9811 15.2979 23.7307 15.2979 20.9546C15.2979 18.1785 17.5485 15.9281 20.3244 15.9281C23.1005 15.9281 25.3509 18.1785 25.3509 20.9546C25.3467 23.7289 23.0987 25.9769 20.3244 25.9811Z" fill="#202020"/>
<path d="M22.9101 18.9497L19.5928 22.1164L17.878 20.3963C17.6607 20.1788 17.3082 20.1788 17.0907 20.3963C16.8731 20.6137 16.8731 20.9663 17.0907 21.1837L19.1961 23.2893C19.3008 23.3947 19.4439 23.4532 19.5928 23.4512C19.737 23.4525 19.8755 23.3963 19.978 23.2947L23.6864 19.7482C23.7932 19.6461 23.855 19.506 23.8583 19.3582C23.8613 19.2103 23.8056 19.0674 23.7032 18.9609C23.4857 18.7428 23.1337 18.7377 22.9101 18.9497Z" fill="#202020"/>
</svg>
