<svg width="54" height="54" viewBox="0 0 54 54" fill="none" xmlns="http://www.w3.org/2000/svg">
<path d="M42.948 1.43164H10.7581L0.9375 10.8886V43.2603L10.7581 52.8991H42.948L52.5868 43.2603V10.8886L42.948 1.43164Z" stroke="#2B2B2B" stroke-width="1.16726"/>
<path d="M40.2148 5.61328H13.4655L5.30469 13.5664V40.7907L13.4655 48.8968H40.2148L48.2245 40.7907V13.5664L40.2148 5.61328Z" stroke="#2B2B2B" stroke-width="1.16726"/>
<path d="M37.4777 9.97852H16.169L9.66797 16.3277V38.0613L16.169 44.5326H37.4777L43.8583 38.0613V16.3277L37.4777 9.97852Z" stroke="#2B2B2B" stroke-width="1.16726"/>
<path d="M34.9652 13.9805H18.6435L13.6641 18.8593V35.5599L18.6435 40.5326H34.9652L39.8524 35.5599V18.8593L34.9652 13.9805Z" stroke="#2B2B2B" stroke-width="1.16726"/>
<path d="M10.7577 1.79492L18.7597 13.9798M43.1294 1.79492L35.3093 13.9798M52.4045 10.8881L39.8559 19.072M52.4045 43.2598L39.8559 35.6216M43.1294 52.5349L35.3093 40.35M10.7577 52.5349L18.7597 40.35M1.30078 43.2598L13.4856 35.6216M1.30078 10.8881L13.4856 19.072" stroke="#2B2B2B" stroke-width="1.16726"/>
</svg>
