<svg width="57" height="57" viewBox="0 0 57 57" fill="none" xmlns="http://www.w3.org/2000/svg">
<g clip-path="url(#clip0_68_307)">
<path d="M43.8441 23.3137C43.8441 15.0873 37.1482 8.40332 28.9337 8.40332C20.7193 8.40332 14.0234 15.0873 14.0234 23.3137C14.0234 31.5281 20.7073 38.224 28.9337 38.224C37.1601 38.224 43.8441 31.5281 43.8441 23.3137ZM28.9337 36.2989C21.7715 36.2989 15.9365 30.4759 15.9365 23.3017C15.9365 16.1276 21.7715 10.3164 28.9337 10.3164C36.0959 10.3164 41.9309 16.1395 41.9309 23.3137C41.9309 30.4878 36.0959 36.2989 28.9337 36.2989Z" fill="#2B2B2B"/>
<path d="M47.2036 38.7374C47.7417 38.4623 48.2199 38.1036 48.5906 37.6014C49.559 36.2742 49.3319 34.5404 49.1166 32.8545C48.9732 31.7664 48.8297 30.6305 49.0808 29.8653C49.308 29.1478 50.0732 28.3467 50.8026 27.5815C51.9385 26.3857 53.2179 25.0346 53.2179 23.3248C53.2179 21.6149 51.9505 20.2399 50.8146 19.0442C50.0852 18.2669 49.3199 17.4778 49.0928 16.7604C48.8417 15.9952 48.9851 14.8592 49.1286 13.7712C49.3438 12.0852 49.5591 10.3514 48.6026 9.02423C47.6341 7.68505 45.9003 7.36222 44.2263 7.03938C43.1501 6.83611 42.0382 6.63284 41.4044 6.16652C40.7707 5.71215 40.2446 4.73168 39.7305 3.77512C38.9532 2.34029 38.0565 0.714137 36.4662 0.18803C34.9357 -0.314163 33.3694 0.42717 31.8508 1.14459C30.8345 1.62286 29.7942 2.11311 28.9572 2.11311C28.1202 2.11311 27.08 1.62286 26.0636 1.14459C24.5451 0.42717 22.9787 -0.314163 21.4483 0.18803C19.846 0.70218 19.009 2.26854 18.184 3.77512C17.6699 4.71973 17.1318 5.71215 16.51 6.16652C15.8643 6.63284 14.7643 6.84806 13.6882 7.03938C12.0142 7.35026 10.2804 7.68505 9.31192 9.02423C8.34341 10.3514 8.57059 12.0852 8.78581 13.7712C8.9293 14.8592 9.07278 15.9952 8.82168 16.7604C8.5945 17.4778 7.82925 18.279 7.09988 19.0442C5.96397 20.2399 4.68457 21.591 4.68457 23.3009C4.68457 25.0107 5.97592 26.3618 7.09988 27.5575C7.82925 28.3347 8.5945 29.1239 8.82168 29.8413C9.07278 30.6065 8.9293 31.7425 8.78581 32.8306C8.57059 34.5165 8.35536 36.2503 9.31192 37.5775C9.68259 38.0797 10.1609 38.4504 10.6989 38.7134L5.48569 47.7409C5.29438 48.0757 5.31829 48.4942 5.55743 48.8051C5.79657 49.1159 6.19115 49.2475 6.56181 49.1519L14.2621 47.0833L16.3307 54.7836C16.4263 55.1542 16.7491 55.4293 17.1318 55.489C17.1796 55.489 17.2155 55.501 17.2513 55.501C17.5861 55.501 17.909 55.3217 18.0764 55.0227L22.9668 46.5452C24.007 46.4257 25.0592 45.9354 26.0756 45.4572C27.0919 44.9788 28.1322 44.4887 28.9692 44.4887C29.8062 44.4887 30.8465 44.9788 31.8628 45.4572C32.8791 45.9354 33.9313 46.4376 34.9716 46.5452L39.862 55.0227C40.0293 55.3217 40.3522 55.501 40.6871 55.501C40.7229 55.501 40.7707 55.501 40.8066 55.489C41.1892 55.4412 41.5001 55.1662 41.6077 54.7836L43.6763 47.0833L51.3765 49.1519C51.7472 49.2475 52.1418 49.1159 52.381 48.8051C52.6201 48.4942 52.644 48.0757 52.4527 47.7409L47.2036 38.7374ZM17.5383 52.0813L15.8285 45.6843C15.697 45.1702 15.1708 44.8712 14.6567 45.0027L8.2597 46.7126L12.5164 39.3352C12.8871 39.4189 13.2697 39.4907 13.6523 39.5623C14.7285 39.7656 15.8404 39.9689 16.4742 40.4352C17.1079 40.8895 17.634 41.8701 18.1481 42.8266C18.8417 44.106 19.6188 45.5289 20.9102 46.1985L17.5383 52.0813ZM28.9333 42.5875C27.6659 42.5875 26.4224 43.1734 25.2267 43.7354C24.0429 44.2973 22.8233 44.8712 22.0222 44.6082C21.1493 44.3212 20.4917 43.1016 19.846 41.9298C19.2242 40.794 18.5905 39.6222 17.61 38.9047C16.6176 38.1873 15.2904 37.9362 14.011 37.6971C12.7077 37.446 11.3566 37.1948 10.8185 36.4775C10.3043 35.772 10.4718 34.4089 10.6391 33.1056C10.8065 31.8023 10.9739 30.4631 10.5913 29.2793C10.2206 28.1554 9.31192 27.1869 8.43906 26.2662C7.50642 25.2857 6.5379 24.2694 6.5379 23.3248C6.5379 22.3801 7.50642 21.3638 8.43906 20.3834C9.32387 19.4507 10.2326 18.4942 10.5913 17.3702C10.9739 16.1864 10.8065 14.8473 10.6391 13.544C10.4718 12.2287 10.3043 10.8775 10.8185 10.1721C11.3446 9.44273 12.6957 9.19164 14.011 8.95249C15.2904 8.71335 16.6176 8.46226 17.61 7.74484C18.5905 7.03938 19.2242 5.85564 19.846 4.71973C20.4917 3.53598 21.1493 2.32833 22.0222 2.04136C22.8353 1.77831 24.0549 2.35224 25.2267 2.91422C26.4224 3.4762 27.6659 4.06209 28.9333 4.06209C30.2008 4.06209 31.4443 3.4762 32.64 2.91422C33.8237 2.35224 35.0433 1.77831 35.8445 2.04136C36.7173 2.32833 37.3749 3.54794 38.0206 4.71973C38.6424 5.85564 39.2761 7.02742 40.2566 7.74484C41.249 8.46226 42.5762 8.71335 43.8556 8.95249C45.1589 9.20359 46.51 9.45468 47.0481 10.1721C47.5623 10.8775 47.3948 12.2407 47.2275 13.544C47.0601 14.8473 46.8927 16.1864 47.2753 17.3702C47.646 18.4942 48.5547 19.4627 49.4275 20.3834C50.3602 21.3638 51.3287 22.3801 51.3287 23.3248C51.3287 24.2694 50.3602 25.2857 49.4275 26.2662C48.5427 27.1988 47.6341 28.1554 47.2753 29.2793C46.8927 30.4631 47.0601 31.8023 47.2275 33.1056C47.3948 34.4209 47.5623 35.772 47.0481 36.4775C46.522 37.2068 45.1709 37.4579 43.8556 37.6971C42.5762 37.9362 41.249 38.1873 40.2566 38.9047C39.2761 39.6102 38.6424 40.794 38.0206 41.9298C37.3749 43.1136 36.7173 44.3212 35.8445 44.6082C35.0313 44.8712 33.8118 44.2973 32.64 43.7354C31.4443 43.1734 30.2008 42.5875 28.9333 42.5875ZM43.21 45.0027C42.6958 44.8712 42.1697 45.1702 42.0382 45.6843L40.3283 52.0813L36.9445 46.2224C38.2239 45.5648 38.9772 44.1897 39.7065 42.8506C40.2207 41.9059 40.7587 40.9135 41.3805 40.4592C42.0262 39.9928 43.1262 39.7776 44.2024 39.5862C44.585 39.5145 44.9676 39.4428 45.3382 39.3591L49.595 46.7365L43.21 45.0027Z" fill="#2B2B2B"/>
<path d="M37.9015 17.4538C37.5308 17.0831 36.921 17.0831 36.5504 17.4538L26.8652 27.139L21.3291 21.6029C20.9585 21.2322 20.3486 21.2322 19.9779 21.6029C19.6073 21.9735 19.6073 22.5834 19.9779 22.954L26.1956 29.1717C26.375 29.351 26.6141 29.4466 26.8771 29.4466C27.1402 29.4466 27.3793 29.351 27.5586 29.1717L37.9015 18.8049C38.2721 18.4342 38.2721 17.8245 37.9015 17.4538Z" fill="#2B2B2B"/>
</g>
<defs>
<clipPath id="clip0_68_307">
<rect width="56" height="56" fill="white" transform="translate(0.951172 0.0234375)"/>
</clipPath>
</defs>
</svg>
