<svg width="20" height="20" viewBox="0 0 20 20" fill="none" xmlns="http://www.w3.org/2000/svg">
<rect x="15.752" y="2.75342" width="1.29968" height="18.6163" rx="0.649839" transform="rotate(42.5255 15.752 2.75342)" fill="#B5B5B5"/>
<path fill-rule="evenodd" clip-rule="evenodd" d="M12.4695 4.25465C11.6647 3.9696 10.8301 3.8125 10 3.8125C6.15251 3.8125 2.20939 7.1875 1.56814 11.0294C1.51751 11.3331 1.72564 11.6256 2.02939 11.6762C2.33314 11.7269 2.62564 11.5187 2.67626 11.215C3.17689 8.25063 6.41126 4.9375 10 4.9375C10.5569 4.9375 11.1053 5.01729 11.6363 5.16318L12.4695 4.25465ZM10.2578 6.66621C10.2507 6.66358 10.2435 6.66109 10.2363 6.65875C10.135 6.625 10.0394 6.625 10 6.625C7.36189 6.625 5.21876 8.76813 5.21876 11.4062C5.21876 11.6436 5.2361 11.8769 5.26959 12.105L10.2578 6.66621ZM5.77343 13.6415C5.79238 13.6249 5.81063 13.607 5.82808 13.588L10.9854 7.96476C11.4328 8.61695 12.1824 9.03813 13.0094 9.03813C13.2231 9.03813 13.4313 9.01 13.6113 8.95937C13.8756 8.88625 14.1456 9.01 14.2694 9.24625C14.6069 9.92125 14.7813 10.6469 14.7813 11.4062C14.7813 14.0444 12.6381 16.1875 10 16.1875C8.16905 16.1875 6.57653 15.1552 5.77343 13.6415ZM13.0443 5.71986L13.7478 4.95284C13.7734 4.92488 13.7964 4.89542 13.8167 4.86477C16.1432 6.15718 18.0082 8.49296 18.4319 11.035C18.4825 11.3387 18.2744 11.6312 17.9706 11.6819C17.9369 11.6875 17.9031 11.6875 17.875 11.6875C17.605 11.6875 17.3631 11.4906 17.3181 11.215C16.9703 9.13198 15.2699 6.87675 13.0443 5.71986Z" fill="#B5B5B5"/>
</svg>
