<svg width="44" height="59" viewBox="0 0 44 59" fill="none" xmlns="http://www.w3.org/2000/svg">
    <path
        d="M43.4552 21.7969C43.4552 20.22 42.5191 18.7947 41.1189 18.1495C41.0942 18.0141 41.0677 17.878 41.0387 17.7396C42.0897 16.5916 42.3912 14.9402 41.7747 13.4633C41.1647 12.0129 39.7461 11.065 38.2001 11.016C38.1661 10.9645 38.1318 10.9137 38.0974 10.8631C38.6359 9.41587 38.2909 7.74416 37.171 6.62468C36.0534 5.51583 34.3821 5.17291 32.9352 5.70708C32.8211 5.62859 32.7073 5.55235 32.5936 5.47838C32.5197 3.93536 31.5479 2.52423 30.0815 1.92086C28.6214 1.33781 26.9471 1.67144 25.8215 2.71986C25.7647 2.70844 25.7078 2.69741 25.651 2.68639C25.0005 1.28402 23.5708 0.345703 21.9957 0.345703C20.4236 0.345703 18.9962 1.28535 18.3475 2.68945C18.2135 2.71495 18.0795 2.74191 17.9464 2.77006C16.8014 1.72563 15.1179 1.41219 13.6675 2.02751C12.2157 2.64323 11.2659 4.06405 11.2153 5.6084C11.1655 5.64107 11.1161 5.67401 11.0669 5.70708C9.60632 5.16148 7.9633 5.49949 6.82589 6.62734C5.69287 7.76036 5.35034 9.40471 5.8978 10.8679C5.82063 10.9816 5.7436 11.0975 5.66777 11.2152C4.11957 11.2892 2.71096 12.2589 2.12127 13.715C1.52189 15.1953 1.84356 16.8419 2.91058 17.9799C2.89823 18.0394 2.8868 18.0989 2.87538 18.1593C1.47873 18.8081 0.544922 20.2303 0.544922 21.797C0.544922 23.3735 1.48059 24.8037 2.87897 25.4528C2.9054 25.593 2.93316 25.7331 2.96224 25.8724C1.92524 27.016 1.61632 28.6916 2.22447 30.1293C2.83448 31.5885 4.25265 32.5436 5.79872 32.5943C5.83179 32.6445 5.86526 32.6948 5.89926 32.7446C5.36429 34.1982 5.71146 35.8703 6.82602 36.9755C7.61998 37.7691 8.66548 38.165 9.72266 38.1489L2.9649 51.5752C2.80752 51.8872 2.84497 52.2618 3.06012 52.5373C3.27568 52.8124 3.62816 52.9397 3.97069 52.8612L10.5978 51.3579L13.3272 57.5725C13.4678 57.8924 13.7802 58.1023 14.1298 58.1114C14.1377 58.1118 14.1456 58.1118 14.1536 58.1118C14.4938 58.1118 14.8062 57.9201 14.9596 57.6151L22.002 43.6316L29.041 57.6151C29.1944 57.9201 29.5069 58.1118 29.8471 58.1118C29.855 58.1118 29.8629 58.1118 29.8709 58.1114C30.2203 58.1021 30.5328 57.8924 30.6734 57.5725L33.4029 51.3579L40.0295 52.8612C40.3693 52.9375 40.725 52.8128 40.9401 52.5373C41.1553 52.2618 41.1926 51.8872 41.0353 51.5752L34.2736 38.1408C35.3349 38.1538 36.3909 37.7593 37.1716 36.9782C38.2928 35.8663 38.6382 34.1968 38.0979 32.7469C38.1759 32.634 38.2534 32.5182 38.331 32.3983C39.8784 32.3304 41.2873 31.3573 41.8783 29.8893C42.4724 28.4324 42.1418 26.7571 41.0873 25.6284C41.0979 25.5729 41.108 25.5174 41.1181 25.4619C42.5186 24.8157 43.4552 23.3835 43.4552 21.7969ZM14.2091 55.0914L11.9503 49.9496C11.7762 49.5534 11.347 49.3357 10.9244 49.4327L5.43747 50.6773L11.4755 38.6802C11.719 40.0023 12.6198 41.1563 13.9053 41.68C15.3857 42.2798 17.0323 41.9577 18.1702 40.8907C18.2297 40.9027 18.2892 40.9145 18.3491 40.9255C18.759 41.8096 19.4784 42.5073 20.3471 42.9033L14.2091 55.0914ZM33.0754 49.4325C32.6554 49.3365 32.223 49.5542 32.0494 49.9494L29.7912 55.0913L23.6547 42.9007C24.524 42.5037 25.2427 41.8054 25.6519 40.9222C25.789 40.8961 25.9257 40.8688 26.0614 40.8402C27.2068 41.886 28.8895 42.1932 30.3377 41.5758C31.4969 41.0882 32.3259 40.0828 32.6408 38.9123L38.5618 50.677L33.0754 49.4325ZM40.0616 23.9339C39.7226 24.0318 39.4719 24.3177 39.419 24.6663C39.3652 25.0211 39.304 25.3763 39.2189 25.724C39.1356 26.066 39.2586 26.4257 39.534 26.6447C40.2973 27.2521 40.5741 28.3058 40.2049 29.211C39.8382 30.1224 38.9044 30.6874 37.9334 30.5843C37.583 30.5526 37.2467 30.7161 37.066 31.0153C36.82 31.4221 36.582 31.7768 36.3383 32.0994C36.1227 32.3846 36.0959 32.7703 36.2695 33.0823C36.7438 33.935 36.5917 35.0099 35.8971 35.6988C35.2047 36.3915 34.1236 36.5472 33.2686 36.0769C32.961 35.9081 32.5824 35.9328 32.2991 36.1412C32.0065 36.3568 31.7067 36.5651 31.3987 36.7499C31.0942 36.9328 30.9254 37.277 30.9668 37.6295C31.0805 38.596 30.534 39.5347 29.6333 39.9133C28.7377 40.2972 27.679 40.0337 27.0603 39.2769C26.8413 39.0076 26.4883 38.8891 26.1493 38.9697C25.7235 39.0724 25.2895 39.1592 24.8479 39.2301C24.505 39.2857 24.2243 39.533 24.126 39.8661C23.8493 40.8038 22.9731 41.4593 21.9956 41.4593C21.0229 41.4593 20.1503 40.804 19.8735 39.8661C19.7743 39.5288 19.4884 39.2803 19.1411 39.2283C18.8064 39.1786 17.9055 38.9943 17.8625 38.9943C17.5927 38.9943 17.3323 39.1155 17.1587 39.3319C16.5359 40.1071 15.502 40.3799 14.5849 40.0071C13.6823 39.6395 13.1231 38.7043 13.2249 37.7339C13.2615 37.3858 13.0936 37.0476 12.794 36.867C12.4057 36.6326 12.0372 36.388 11.6992 36.1399C11.4163 35.9336 11.0407 35.9085 10.7331 36.0756C9.86052 36.5512 8.8032 36.3999 8.09943 35.6961C7.41053 35.0126 7.25673 33.935 7.7253 33.076C7.89317 32.7679 7.86767 32.3907 7.65969 32.1082C7.44413 31.816 7.24412 31.5159 7.05938 31.2083C6.87649 30.9037 6.52786 30.7359 6.18016 30.7764C5.21328 30.8918 4.26792 30.3384 3.88848 29.4291C3.51248 28.5406 3.77572 27.4869 4.52757 26.8668C4.79333 26.6482 4.9114 26.2974 4.83211 25.9628C4.72905 25.5273 4.64219 25.0924 4.57073 24.6491C4.51522 24.3061 4.26792 24.0255 3.93483 23.9272C2.98681 23.6474 2.34998 22.7915 2.34998 21.7968C2.34998 20.8277 3.00182 19.9585 3.93483 19.6831C4.27204 19.5839 4.52053 19.2979 4.57259 18.9506C4.62638 18.5883 4.69558 18.234 4.78058 17.8872C4.86425 17.5465 4.74273 17.1878 4.469 16.9683C3.69377 16.3459 3.4223 15.3108 3.79431 14.3927C4.15875 13.4915 5.10012 12.9282 6.07284 13.0265C6.42187 13.0622 6.75377 12.8925 6.934 12.5955C7.16841 12.2073 7.41345 11.8384 7.66115 11.5C7.8678 11.2179 7.89291 10.8415 7.72543 10.5343C7.24943 9.6621 7.4011 8.60478 8.09956 7.90632C8.80334 7.20866 9.86238 7.06097 10.7338 7.53484C11.041 7.70139 11.4191 7.67589 11.7012 7.46923C11.993 7.25421 12.2931 7.05406 12.6002 6.86985C12.9051 6.68737 13.0745 6.34325 13.033 5.99023C12.9171 5.00304 13.4556 4.0784 14.3715 3.68966C15.2688 3.31021 16.3278 3.57557 16.9483 4.33446C17.1683 4.60288 17.5226 4.72095 17.8589 4.64073C18.2851 4.53806 18.7191 4.4512 19.1537 4.38028C19.4957 4.32477 19.776 4.07747 19.8738 3.74477C20.1506 2.80645 21.0231 2.15116 21.9959 2.15116C22.9734 2.15116 23.8495 2.80645 24.1263 3.74477C24.2255 4.08105 24.5101 4.32955 24.857 4.38201C25.2118 4.4358 25.5671 4.50539 25.9148 4.59052C26.2603 4.67247 26.6168 4.55081 26.8354 4.27536C27.4414 3.51249 28.5022 3.23305 29.4039 3.59403C30.3126 3.96777 30.8794 4.90821 30.7825 5.88133C30.7481 6.2277 30.916 6.56359 31.214 6.74341C31.575 6.96163 31.9306 7.19949 32.3012 7.47056C32.5841 7.67815 32.9601 7.70192 33.269 7.53365C34.1231 7.06522 35.2055 7.21716 35.8975 7.9038C36.5908 8.59708 36.7436 9.67591 36.2699 10.5283C36.0954 10.8416 36.1235 11.2286 36.3408 11.5142C36.5501 11.7883 36.7459 12.0788 36.9402 12.4022C37.1231 12.7067 37.4708 12.8728 37.8194 12.8341C38.7908 12.7177 39.7335 13.2664 40.1098 14.1611C40.4919 15.077 40.2358 16.1144 39.4725 16.7433C39.2058 16.9632 39.0878 17.3158 39.1689 17.6516C39.2778 18.1042 39.3594 18.5247 39.4179 18.9367C39.4682 19.2884 39.7198 19.5779 40.0614 19.6767C40.9971 19.9464 41.6503 20.8186 41.6503 21.797C41.65 22.7854 40.9968 23.6643 40.0616 23.9339Z"
        fill="#2B2B2B" />
    <path
        d="M22.0046 8.83594C14.853 8.83594 9.03516 14.6539 9.03516 21.8053C9.03516 28.9568 14.8531 34.7747 22.0046 34.7747C29.1512 34.7747 34.9656 28.9568 34.9656 21.8053C34.9656 14.6539 29.1512 8.83594 22.0046 8.83594ZM22.0046 32.9697C15.8486 32.9697 10.8403 27.9613 10.8403 21.8055C10.8403 15.6496 15.8487 10.6413 22.0046 10.6413C28.1562 10.6413 33.1604 15.6496 33.1604 21.8055C33.1604 27.9613 28.156 32.9697 22.0046 32.9697Z"
        fill="#2B2B2B" />
    <path
        d="M21.3664 17.9753C21.3664 16.4226 20.1028 15.1592 18.5503 15.1592C17.0034 15.1592 15.7451 16.4228 15.7451 17.9753C15.7451 19.5222 17.0034 20.781 18.5503 20.781C20.1028 20.781 21.3664 19.5222 21.3664 17.9753ZM17.5503 17.9753C17.5503 17.4178 17.9989 16.9644 18.5503 16.9644C19.1078 16.9644 19.5612 17.4179 19.5612 17.9753C19.5612 18.5272 19.1077 18.9758 18.5503 18.9758C17.9989 18.9758 17.5503 18.5272 17.5503 17.9753Z"
        fill="#2B2B2B" />
    <path
        d="M25.4385 22.8301C23.8916 22.8301 22.6328 24.0931 22.6328 25.6458C22.6328 27.1927 23.8915 28.4515 25.4385 28.4515C26.9912 28.4515 28.2546 27.1928 28.2546 25.6458C28.2546 24.0933 26.9912 22.8301 25.4385 22.8301ZM25.4385 26.6463C24.8866 26.6463 24.438 26.1977 24.438 25.6458C24.438 25.0888 24.8866 24.6353 25.4385 24.6353C25.996 24.6353 26.4494 25.0888 26.4494 25.6458C26.4494 26.1977 25.996 26.6463 25.4385 26.6463Z"
        fill="#2B2B2B" />
    <path
        d="M26.5828 15.7265C26.1844 15.4256 25.6177 15.5049 25.3189 15.9037L17.2396 26.6193C16.9394 27.0172 17.0189 27.5831 17.4168 27.8833C17.8122 28.1822 18.3799 28.1057 18.6807 27.7061L26.76 16.9905C27.0602 16.5926 26.9807 16.0267 26.5828 15.7265Z"
        fill="#2B2B2B" />
</svg>