<svg width="21" height="21" viewBox="0 0 21 21" fill="none" xmlns="http://www.w3.org/2000/svg">
    <path
        d="M10.5 0.875C8.59636 0.875 6.73546 1.4395 5.15264 2.4971C3.56982 3.55471 2.33616 5.05793 1.60766 6.81667C0.87917 8.57541 0.688563 10.5107 1.05995 12.3777C1.43133 14.2448 2.34802 15.9598 3.6941 17.3059C5.04018 18.652 6.75519 19.5687 8.62226 19.9401C10.4893 20.3114 12.4246 20.1208 14.1833 19.3923C15.9421 18.6638 17.4453 17.4302 18.5029 15.8474C19.5605 14.2645 20.125 12.4036 20.125 10.5C20.122 7.94822 19.107 5.50181 17.3026 3.69742C15.4982 1.89304 13.0518 0.87801 10.5 0.875ZM14.2118 12.9754C14.2953 13.0561 14.362 13.1526 14.4078 13.2594C14.4537 13.3661 14.4778 13.481 14.4788 13.5971C14.4799 13.7133 14.4577 13.8286 14.4137 13.9361C14.3697 14.0436 14.3048 14.1413 14.2226 14.2235C14.1404 14.3056 14.0427 14.3706 13.9352 14.4146C13.8277 14.4586 13.7125 14.4807 13.5963 14.4797C13.4801 14.4787 13.3653 14.4546 13.2585 14.4087C13.1518 14.3629 13.0552 14.2962 12.9745 14.2126L10.5 11.7372L8.0255 14.2126C7.86048 14.372 7.63945 14.4602 7.41003 14.4582C7.1806 14.4562 6.96114 14.3642 6.79891 14.202C6.63668 14.0397 6.54466 13.8203 6.54266 13.5909C6.54067 13.3614 6.62887 13.1404 6.78825 12.9754L9.26275 10.5L6.78825 8.02462C6.70468 7.94391 6.63802 7.84736 6.59217 7.7406C6.54631 7.63385 6.52217 7.51903 6.52116 7.40285C6.52015 7.28667 6.54229 7.17145 6.58628 7.06392C6.63028 6.95638 6.69525 6.85869 6.77741 6.77653C6.85956 6.69437 6.95726 6.6294 7.06479 6.58541C7.17233 6.54141 7.28755 6.51927 7.40373 6.52028C7.51991 6.52129 7.63473 6.54543 7.74148 6.59129C7.84824 6.63714 7.94479 6.7038 8.0255 6.78737L10.5 9.26275L12.9745 6.78737C13.0552 6.7038 13.1518 6.63714 13.2585 6.59129C13.3653 6.54543 13.4801 6.52129 13.5963 6.52028C13.7125 6.51927 13.8277 6.54141 13.9352 6.58541C14.0427 6.6294 14.1404 6.69437 14.2226 6.77653C14.3048 6.85869 14.3697 6.95638 14.4137 7.06392C14.4577 7.17145 14.4799 7.28667 14.4788 7.40285C14.4778 7.51903 14.4537 7.63385 14.4078 7.7406C14.362 7.84736 14.2953 7.94391 14.2118 8.02462L11.7373 10.5L14.2118 12.9754Z"
        fill="#EE5A5A" />
</svg>