<svg width="19" height="19" viewBox="0 0 19 19" fill="none" xmlns="http://www.w3.org/2000/svg">
<path d="M9.5 0.75C4.6875 0.75 0.75 4.6875 0.75 9.5C0.75 14.3125 4.6875 18.25 9.5 18.25C14.3125 18.25 18.25 14.3125 18.25 9.5C18.25 4.6875 14.3125 0.75 9.5 0.75ZM13.2625 7.4L9.2375 12.65C9.0625 12.825 8.8 13 8.5375 13C8.275 13 8.0125 12.9125 7.8375 12.65L5.7375 9.9375C5.475 9.5875 5.475 8.975 5.9125 8.7125C6.35 8.45 6.875 8.45 7.1375 8.8875L8.5375 10.725L11.8625 6.35C12.125 6 12.7375 5.9125 13.0875 6.175C13.525 6.4375 13.525 6.9625 13.2625 7.4Z" fill="#32BA7C"/>
</svg>
