<svg width="18" height="18" viewBox="0 0 18 18" fill="none" xmlns="http://www.w3.org/2000/svg">
<path d="M15.5532 3.32727H12.4255V2.6C12.4255 2.17565 12.2529 1.76869 11.9457 1.46863C11.6384 1.16857 11.2217 1 10.7872 1H7.21277C6.77826 1 6.36155 1.16857 6.05431 1.46863C5.74707 1.76869 5.57447 2.17565 5.57447 2.6V3.32727H2.44681C2.32831 3.32727 2.21466 3.37325 2.13087 3.45508C2.04707 3.53691 2 3.64791 2 3.76364C2 3.87937 2.04707 3.99036 2.13087 4.07219C2.21466 4.15403 2.32831 4.2 2.44681 4.2H2.76255L3.69787 15.528C3.73346 15.9278 3.9205 16.3002 4.22239 16.5725C4.52429 16.8447 4.91932 16.9972 5.33021 17H12.6698C13.0807 16.9972 13.4757 16.8447 13.7776 16.5725C14.0795 16.3002 14.2665 15.9278 14.3021 15.528L15.2374 4.2H15.5532C15.6717 4.2 15.7853 4.15403 15.8691 4.07219C15.9529 3.99036 16 3.87937 16 3.76364C16 3.64791 15.9529 3.53691 15.8691 3.45508C15.7853 3.37325 15.6717 3.32727 15.5532 3.32727ZM6.46809 2.6C6.46809 2.40712 6.54654 2.22213 6.6862 2.08574C6.82585 1.94935 7.01526 1.87273 7.21277 1.87273H10.7872C10.9847 1.87273 11.1741 1.94935 11.3138 2.08574C11.4535 2.22213 11.5319 2.40712 11.5319 2.6V3.32727H6.46809V2.6ZM13.4085 15.4582C13.3922 15.6403 13.3067 15.8099 13.169 15.9337C13.0312 16.0575 12.851 16.1265 12.6638 16.1273H5.33021C5.14404 16.1251 4.96535 16.0554 4.82883 15.9317C4.69232 15.8081 4.60773 15.6393 4.59149 15.4582L3.6383 4.2H14.3617L13.4085 15.4582ZM11.8298 7.25455V13.0727C11.8298 13.1885 11.7827 13.2994 11.6989 13.3813C11.6151 13.4631 11.5015 13.5091 11.383 13.5091C11.2645 13.5091 11.1508 13.4631 11.067 13.3813C10.9832 13.2994 10.9362 13.1885 10.9362 13.0727V7.25455C10.9362 7.13881 10.9832 7.02782 11.067 6.94599C11.1508 6.86416 11.2645 6.81818 11.383 6.81818C11.5015 6.81818 11.6151 6.86416 11.6989 6.94599C11.7827 7.02782 11.8298 7.13881 11.8298 7.25455ZM9.44681 7.25455V13.0727C9.44681 13.1885 9.39973 13.2994 9.31594 13.3813C9.23215 13.4631 9.1185 13.5091 9 13.5091C8.8815 13.5091 8.76785 13.4631 8.68406 13.3813C8.60027 13.2994 8.55319 13.1885 8.55319 13.0727V7.25455C8.55319 7.13881 8.60027 7.02782 8.68406 6.94599C8.76785 6.86416 8.8815 6.81818 9 6.81818C9.1185 6.81818 9.23215 6.86416 9.31594 6.94599C9.39973 7.02782 9.44681 7.13881 9.44681 7.25455ZM7.06383 7.25455V13.0727C7.06383 13.1885 7.01676 13.2994 6.93296 13.3813C6.84917 13.4631 6.73552 13.5091 6.61702 13.5091C6.49852 13.5091 6.38487 13.4631 6.30108 13.3813C6.21729 13.2994 6.17021 13.1885 6.17021 13.0727V7.25455C6.17021 7.13881 6.21729 7.02782 6.30108 6.94599C6.38487 6.86416 6.49852 6.81818 6.61702 6.81818C6.73552 6.81818 6.84917 6.86416 6.93296 6.94599C7.01676 7.02782 7.06383 7.13881 7.06383 7.25455Z" fill="#2B2B2B"/>
</svg>
