<svg width="24" height="24" viewBox="0 0 24 24" fill="none" xmlns="http://www.w3.org/2000/svg">
<path fill-rule="evenodd" clip-rule="evenodd" d="M3.30628 16.3408C3.91553 16.3408 4.40944 16.8347 4.40944 17.444V19.6503C4.40944 19.9428 4.52564 20.2234 4.73256 20.4303C4.93943 20.6372 5.22 20.7534 5.51259 20.7534H18.7504C19.043 20.7534 19.3235 20.6373 19.5305 20.4303C19.7374 20.2234 19.8536 19.9428 19.8536 19.6503V17.444C19.8536 16.8347 20.3475 16.3408 20.9568 16.3408C21.566 16.3408 22.0599 16.8347 22.0599 17.444V19.6503C22.0599 20.528 21.7113 21.3698 21.0906 21.9904C20.4699 22.6111 19.6281 22.9598 18.7504 22.9598H5.51259C4.63489 22.9598 3.79308 22.6112 3.17242 21.9904C2.55181 21.3698 2.20312 20.528 2.20312 19.6503V17.444C2.20312 16.8347 2.69702 16.3408 3.30628 16.3408Z" fill="#828282"/>
<path fill-rule="evenodd" clip-rule="evenodd" d="M5.83482 10.0458C6.26564 9.61495 6.96411 9.61495 7.39493 10.0458L12.1306 14.7815L16.8664 10.0458C17.2972 9.61495 17.9957 9.61495 18.4265 10.0458C18.8574 10.4766 18.8574 11.1751 18.4265 11.6059L12.9107 17.1216C12.4799 17.5524 11.7814 17.5524 11.3506 17.1216L5.83482 11.6059C5.40402 11.1751 5.40402 10.4766 5.83482 10.0458Z" fill="#828282"/>
<path fill-rule="evenodd" clip-rule="evenodd" d="M12.1305 1C12.7398 1 13.2337 1.49391 13.2337 2.10316V16.341C13.2337 16.9503 12.7398 17.4442 12.1305 17.4442C11.5212 17.4442 11.0273 16.9503 11.0273 16.341V2.10316C11.0273 1.49391 11.5212 1 12.1305 1Z" fill="#828282"/>
</svg>
