<svg width="68" height="68" viewBox="0 0 68 68" fill="none" xmlns="http://www.w3.org/2000/svg">
    <path
        d="M49.1975 8.40723H19.8438C17.2436 8.40723 15.1357 10.5591 15.1357 13.2135V43.2705C15.1357 45.9251 17.2436 48.0769 19.8438 48.0769H49.1975C51.7977 48.0769 53.9056 45.9251 53.9056 43.2705V13.2135C53.9056 10.5591 51.7977 8.40723 49.1975 8.40723Z"
        fill="white" stroke="black" stroke-width="1.5" stroke-miterlimit="10" />
    <path
        d="M37.919 28.2598C43.0721 29.7573 46.8464 34.6093 46.8464 40.3771C46.8464 47.3457 41.3302 52.9897 34.5198 52.9897C27.7094 52.9897 22.1934 47.3457 22.1934 40.3771C22.1934 34.6093 25.9675 29.7573 31.1206 28.2598"
        stroke="white" stroke-width="3" stroke-miterlimit="10" stroke-linecap="round" />
    <path
        d="M38.7397 28.5371C43.4636 30.2833 46.8378 34.9134 46.8378 40.3765C46.8378 47.3456 41.3293 52.985 34.518 52.985C27.7068 52.985 22.1982 47.3456 22.1982 40.3765C22.1982 34.9134 25.5724 30.2833 30.2963 28.5371"
        stroke="black" stroke-width="1.5" stroke-miterlimit="10" stroke-linecap="round" />
    <path d="M27.04 20.992L30.6769 17.374H38.3681L42.005 20.992L34.5189 27.5957L27.04 20.992Z"
        fill="white" stroke="black" stroke-width="1.5" stroke-miterlimit="10" />
    <path d="M33.157 23.1553L30.7314 21.0141L32.1439 19.6094" fill="white" />
    <path d="M33.157 23.1553L30.7314 21.0141L32.1439 19.6094" stroke="black" stroke-width="1.5"
        stroke-miterlimit="10" stroke-linecap="round" />
    <path d="M34.5205 27.5044L37.8517 21.0239L35.2975 17.3848" fill="white" />
    <path d="M34.5205 27.5044L37.8517 21.0239L35.2975 17.3848" stroke="black" stroke-width="1.5"
        stroke-miterlimit="10" />
    <path
        d="M11.7656 47.5186H57.2783V53.1835C57.2783 56.7205 54.4653 59.592 51.0006 59.592H18.0432C14.5786 59.592 11.7656 56.7205 11.7656 53.1835V47.5186Z"
        fill="white" stroke="black" stroke-width="1.5" stroke-miterlimit="10" />
</svg>