<svg width="31" height="31" viewBox="0 0 31 31" fill="none" xmlns="http://www.w3.org/2000/svg">
<path d="M26.0178 24.056H5.67916C5.01807 24.0552 4.38427 23.7922 3.91684 23.3248C3.44939 22.8573 3.18648 22.2234 3.18579 21.5624V9.00141C3.18648 8.34033 3.44939 7.7065 3.91684 7.23901C4.38427 6.77153 5.01807 6.50858 5.67916 6.50781H26.0178C26.6788 6.50858 27.3126 6.77153 27.7801 7.23901C28.2475 7.7065 28.5104 8.34033 28.5111 9.00141V21.5624C28.5104 22.2234 28.2475 22.8573 27.7801 23.3248C27.3126 23.7922 26.6788 24.0552 26.0178 24.056ZM5.67916 7.46084C5.27073 7.4613 4.87916 7.62376 4.59039 7.91258C4.30159 8.20138 4.13919 8.59298 4.13881 9.00141V21.5624C4.13919 21.9708 4.30159 22.3624 4.59039 22.6512C4.87916 22.94 5.27073 23.1025 5.67916 23.1029H26.0178C26.4262 23.1025 26.8178 22.94 27.1065 22.6512C27.3953 22.3624 27.5577 21.9708 27.5581 21.5624V9.00141C27.5577 8.59298 27.3953 8.20138 27.1065 7.91258C26.8178 7.62376 26.4262 7.4613 26.0178 7.46084H5.67916Z" fill="#2B2B2B"/>
<path d="M15.8485 18.0865C15.7324 18.0866 15.6202 18.0442 15.5331 17.9674L4.04907 7.83001L4.67973 7.11523L15.8485 16.9753L27.0178 7.11643L27.6485 7.83121L16.1645 17.9686C16.0771 18.0452 15.9647 18.0872 15.8485 18.0865Z" fill="#2B2B2B"/>
<path d="M3.78979 22.5603L11.5046 13.7698L12.2215 14.3988L4.50671 23.1891L3.78979 22.5603ZM19.4998 14.3897L20.2165 13.7607L27.9315 22.5508L27.2148 23.1798L19.4998 14.3897Z" fill="#2B2B2B"/>
</svg>
