<svg width="47" height="66" viewBox="0 0 47 66" fill="none" xmlns="http://www.w3.org/2000/svg">
<path d="M37.6906 1.75597L32.747 11.1317M46.0435 9.76792L37.6906 16.2457M37.6906 50.1686L45.873 56.9873M37.6906 64.3174L32.747 54.9417M9.22257 64.3174L13.8252 54.9417M0.699219 56.9873L9.22257 50.1686M0.869686 9.76792L8.88164 16.2457M13.8252 11.1317L9.22257 1.41504" stroke="#2B2B2B" stroke-width="1.09412"/>
<path d="M37.5215 1.41504H9.22398L0.871094 9.76792V56.9873L9.22398 64.4878H37.5215L46.0449 56.9873V9.76792L37.5215 1.41504Z" stroke="#2B2B2B" stroke-width="1.09412"/>
<path d="M36.174 4.65332H10.7597L3.25781 12.1483V54.5182L10.7597 61.2484H36.174L43.829 54.5182V12.1483L36.174 4.65332Z" stroke="#2B2B2B" stroke-width="1.09412"/>
<path d="M33.9849 7.7207H12.6283L6.32422 14.403V52.1785L12.6283 58.179H33.9849L40.4176 52.1785V14.403L33.9849 7.7207Z" stroke="#2B2B2B" stroke-width="1.09412"/>
<path d="M32.2858 10.7891H14.3462L9.05078 16.6587V49.8398L14.3462 55.1105H32.2858L37.6892 49.8398V16.6587L32.2858 10.7891Z" stroke="#2B2B2B" stroke-width="1.09412"/>
</svg>
