<svg width="17" height="17" viewBox="0 0 17 17" fill="none" xmlns="http://www.w3.org/2000/svg">
<path fill-rule="evenodd" clip-rule="evenodd" d="M0.340453 4.41448C0.340453 4.17401 0.43598 3.9434 0.606007 3.77337C0.776043 3.60334 1.00665 3.50781 1.24712 3.50781H15.7538C15.9942 3.50781 16.2249 3.60334 16.3949 3.77337C16.5649 3.9434 16.6605 4.17401 16.6605 4.41448C16.6605 4.65495 16.5649 4.88556 16.3949 5.05559C16.2249 5.22562 15.9942 5.32115 15.7538 5.32115H1.24712C1.00665 5.32115 0.776043 5.22562 0.606007 5.05559C0.43598 4.88556 0.340453 4.65495 0.340453 4.41448ZM0.340668 8.94778C0.340668 8.70733 0.436195 8.47676 0.606222 8.30667C0.776258 8.13667 1.00687 8.04111 1.24733 8.04111H10.0338C10.2742 8.04111 10.5049 8.13667 10.6749 8.30667C10.8449 8.47676 10.9405 8.70733 10.9405 8.94778C10.9405 9.18831 10.8449 9.41888 10.6749 9.58888C10.5049 9.75897 10.2742 9.85444 10.0338 9.85444H1.24733C1.00687 9.85444 0.776258 9.75897 0.606222 9.58888C0.436195 9.41888 0.340668 9.18831 0.340668 8.94778ZM0.325562 13.4811C0.325562 13.2407 0.421089 13.0101 0.591116 12.84C0.761152 12.67 0.991763 12.5744 1.23223 12.5744H4.8589C5.09934 12.5744 5.33 12.67 5.5 12.84C5.67 13.0101 5.76556 13.2407 5.76556 13.4811C5.76556 13.7216 5.67 13.9522 5.5 14.1222C5.33 14.2923 5.09934 14.3878 4.8589 14.3878H1.23223C0.991763 14.3878 0.761152 14.2923 0.591116 14.1222C0.421089 13.9522 0.325562 13.7216 0.325562 13.4811Z" fill="#2B2B2B"/>
</svg>
