<svg width="83" height="17" viewBox="0 0 83 17" fill="none" xmlns="http://www.w3.org/2000/svg">
<path d="M8.89878 0.0800781L10.7395 5.74533H16.6963L11.8772 9.24665L13.7179 14.9119L8.89878 11.4106L4.07963 14.9119L5.92038 9.24665L1.10123 5.74533H7.05803L8.89878 0.0800781Z" fill="#202020"/>
<path d="M25.2965 0.0800781L27.1372 5.74533H33.094L28.2749 9.24665L30.1156 14.9119L25.2965 11.4106L20.4773 14.9119L22.3181 9.24665L17.4989 5.74533H23.4557L25.2965 0.0800781Z" fill="#202020"/>
<path d="M41.6942 0.0800781L43.5349 5.74533H49.4917L44.6726 9.24665L46.5133 14.9119L41.6942 11.4106L36.875 14.9119L38.7158 9.24665L33.8966 5.74533H39.8534L41.6942 0.0800781Z" fill="#202020"/>
<path d="M58.0919 0.0800781L59.9326 5.74533H65.8894L61.0703 9.24665L62.911 14.9119L58.0919 11.4106L53.2727 14.9119L55.1135 9.24665L50.2943 5.74533H56.2511L58.0919 0.0800781Z" fill="#202020"/>
<path d="M75.8552 5.89941L75.9675 6.24512H80.7488L77.1746 8.8418L76.8806 9.05566L76.9929 9.40137L78.3572 13.6025L74.7839 11.0059L74.49 10.793L74.196 11.0059L70.6208 13.6025L71.9871 9.40137L72.0994 9.05566L71.8054 8.8418L68.2312 6.24512H73.0125L73.1248 5.89941L74.49 1.69727L75.8552 5.89941Z" stroke="#202020"/>
<path d="M74.4896 0.0800781V5.74533L74.4896 7.83468L74.4896 11.4106L69.6704 14.9119L71.5112 9.24665L66.692 5.74533H72.6488L74.4896 0.0800781Z" fill="#202020"/>
</svg>
