<svg width="51" height="48" viewBox="0 0 51 48" fill="none" xmlns="http://www.w3.org/2000/svg">
<mask id="path-1-inside-1_389_7643" fill="white">
<path d="M49.8049 11.5779C48.4015 4.64426 43.2686 1.63837 43.0051 1.48905C41.0811 0.593126 39.1571 0.138672 37.2726 0.138672C36.0075 0.138672 34.8347 0.33993 33.7475 0.677524C33.7475 0.677524 33.7409 0.677524 33.7409 0.684017C29.4317 2.01492 26.5589 5.46228 25.3993 7.09831C24.2396 5.46228 21.3602 2.01492 17.0576 0.684017H17.051C15.9572 0.33993 14.7844 0.138672 13.5193 0.138672C11.6348 0.138672 9.71086 0.593126 7.73416 1.51502C7.51673 1.63837 2.39049 4.64426 0.98044 11.5779C0.611456 13.3957 0.538977 15.298 0.749825 17.2781C0.624634 17.4728 0.598278 17.726 0.71688 17.9468C0.756414 18.0117 0.802537 18.0636 0.855249 18.1091C1.64593 23.6145 4.59121 29.7236 9.6845 36.3651C12.5046 40.0397 24.5361 47.2396 25.05 47.5447C25.0566 47.5447 25.0566 47.5512 25.0632 47.5512C25.0962 47.5707 25.1291 47.5837 25.1686 47.5967C25.1818 47.6031 25.195 47.6096 25.2148 47.6161H25.2214C25.2741 47.6291 25.3268 47.6356 25.3795 47.6356C25.3861 47.6356 25.3861 47.6356 25.3927 47.6356C25.3993 47.6356 25.3993 47.6356 25.4059 47.6356C25.4586 47.6356 25.5113 47.6291 25.564 47.6161H25.5706C25.5838 47.6096 25.5969 47.6031 25.6101 47.5967C25.6431 47.5837 25.6826 47.5707 25.7155 47.5512C25.7221 47.5512 25.7221 47.5512 25.7287 47.5447C26.2427 47.2396 38.2742 40.0397 41.0943 36.3651C46.1875 29.7236 49.1328 23.6145 49.9235 18.1091C49.9762 18.0636 50.0289 18.0117 50.0619 17.9468C50.1805 17.726 50.1607 17.4793 50.0289 17.2781C50.2464 15.298 50.1739 13.3957 49.8049 11.5779ZM48.7704 16.486L45.4628 14.6747L47.6898 9.17581C48.0193 9.98734 48.3026 10.8638 48.5003 11.8376C48.8034 13.3243 48.889 14.876 48.7704 16.486ZM47.9468 21.05L45.9833 16.4666L48.6189 17.9078C48.4739 18.9271 48.2565 19.9788 47.9468 21.05ZM32.2386 41.8381L30.8615 40.65L36.6006 38.7153C35.263 39.7476 33.7409 40.8188 32.2386 41.8381ZM14.1914 38.7153L19.9304 40.65L18.5533 41.8381C17.051 40.8188 15.5224 39.7476 14.1914 38.7153ZM2.16646 17.9013L4.79547 16.4601L2.83854 21.0436C2.53544 19.9788 2.31801 18.9271 2.16646 17.9013ZM26.0582 9.11738L28.4895 9.65624L26.0582 11.4026V9.11738ZM24.7338 11.3961L22.3024 9.64974L24.7338 9.11089V11.3961ZM25.0105 13.2205C25.0237 13.2269 25.0369 13.2334 25.05 13.2399C25.0698 13.2529 25.083 13.2659 25.0962 13.2724C25.1093 13.2789 25.1225 13.2724 25.1357 13.2789C25.2214 13.3178 25.307 13.3438 25.3993 13.3438C25.4915 13.3438 25.5838 13.3178 25.6694 13.2789C25.6826 13.2724 25.6958 13.2789 25.7024 13.2724C25.7221 13.2659 25.7353 13.2464 25.7551 13.2399C25.7682 13.2334 25.7814 13.2269 25.7946 13.2205L30.2224 10.0458L37.4308 11.8441V21.3876L32.3968 29.1199L25.4059 34.7551L18.4215 29.1199L13.3875 21.3876V11.8441L20.5893 10.0458L25.0105 13.2205ZM44.2965 14.032L38.742 10.9417V4.76112L46.7872 7.88387L44.2965 14.032ZM29.2736 39.0594L26.3415 35.6835L31.6127 31.4311L29.2736 39.0594ZM21.5183 39.0594L19.1727 31.4311L24.4439 35.6835L21.5183 39.0594ZM12.05 19.9723L7.23999 15.1227L12.05 12.4479V19.9723ZM12.8275 22.9652L16.5041 28.6135L10.8442 27.4903L12.8275 22.9652ZM17.3936 30.1326L20.2269 39.3645L11.76 36.5145L10.686 28.8082L17.3936 30.1326ZM25.3927 36.6054L28.7333 40.4552L25.3927 45.7399L22.0586 40.4552L25.3927 36.6054ZM33.3983 30.1326L40.0993 28.8017L39.0253 36.508L30.5584 39.3581L33.3983 30.1326ZM34.2878 28.6135L37.9645 22.9652L39.9478 27.4903L34.2878 28.6135ZM38.742 12.4479L43.5454 15.1227L38.742 19.9723V12.4479ZM37.4176 5.05976V10.4807L31.6522 9.03948L37.4176 5.05976ZM13.3743 10.4807V5.05976L19.1397 9.04597L13.3743 10.4807ZM12.05 10.9417L6.49543 14.032L3.9982 7.88387L12.0434 4.76112V10.9417H12.05ZM6.38342 16.1355L11.9248 21.7252L9.6252 26.9709L3.58309 22.7056L6.38342 16.1355ZM21.0835 41.3966L23.3171 44.9349C22.2893 44.2921 21.0242 43.4871 19.6866 42.6042L21.0835 41.3966ZM29.7019 41.3966L31.0987 42.5977C29.7612 43.4806 28.4961 44.2856 27.4682 44.9284L29.7019 41.3966ZM41.1667 26.9709L38.8672 21.7252L44.4085 16.1355L47.2154 22.7056L41.1667 26.9709ZM46.0426 6.18291L39.5195 3.65095L41.5818 2.30707C41.852 2.41094 42.1287 2.5278 42.3989 2.65115C42.4252 2.67063 44.3163 3.7808 46.0426 6.18291ZM39.9544 1.79418L38.0633 3.02121L35.6517 1.58643C36.1723 1.50203 36.7126 1.4501 37.2726 1.4501C38.1556 1.45659 39.0517 1.57345 39.9544 1.79418ZM33.8332 2.04089L36.8575 3.83923L29.9325 8.62398L26.4799 7.86439C27.5143 6.41663 30.084 3.33283 33.8332 2.04089ZM24.3121 7.8579L20.8594 8.61749L13.9278 3.83923L16.9522 2.04089C20.6947 3.33283 23.271 6.41663 24.3121 7.8579ZM15.1336 1.58643L12.722 3.02121L10.8376 1.79418C11.7403 1.57345 12.6364 1.45659 13.5193 1.45659C14.0794 1.45659 14.6131 1.50203 15.1336 1.58643ZM8.34694 2.67712C8.63685 2.54079 8.92677 2.42393 9.21669 2.31356L11.2725 3.65095L4.75594 6.17642C6.46907 3.79378 8.35353 2.67712 8.34694 2.67712ZM2.27847 11.8636C2.47614 10.8833 2.75947 9.99383 3.09551 9.17581L5.32259 14.6682L2.0215 16.486C1.9029 14.8825 1.98197 13.3438 2.27847 11.8636ZM4.16951 24.7376L9.28258 28.3473L10.1853 34.82C7.54967 31.2882 5.54003 27.9188 4.16951 24.7376ZM40.6001 34.82L41.5028 28.3473L46.6224 24.7376C45.2519 27.9188 43.2423 31.2882 40.6001 34.82Z"/>
</mask>
<path d="M49.8049 11.5779C48.4015 4.64426 43.2686 1.63837 43.0051 1.48905C41.0811 0.593126 39.1571 0.138672 37.2726 0.138672C36.0075 0.138672 34.8347 0.33993 33.7475 0.677524C33.7475 0.677524 33.7409 0.677524 33.7409 0.684017C29.4317 2.01492 26.5589 5.46228 25.3993 7.09831C24.2396 5.46228 21.3602 2.01492 17.0576 0.684017H17.051C15.9572 0.33993 14.7844 0.138672 13.5193 0.138672C11.6348 0.138672 9.71086 0.593126 7.73416 1.51502C7.51673 1.63837 2.39049 4.64426 0.98044 11.5779C0.611456 13.3957 0.538977 15.298 0.749825 17.2781C0.624634 17.4728 0.598278 17.726 0.71688 17.9468C0.756414 18.0117 0.802537 18.0636 0.855249 18.1091C1.64593 23.6145 4.59121 29.7236 9.6845 36.3651C12.5046 40.0397 24.5361 47.2396 25.05 47.5447C25.0566 47.5447 25.0566 47.5512 25.0632 47.5512C25.0962 47.5707 25.1291 47.5837 25.1686 47.5967C25.1818 47.6031 25.195 47.6096 25.2148 47.6161H25.2214C25.2741 47.6291 25.3268 47.6356 25.3795 47.6356C25.3861 47.6356 25.3861 47.6356 25.3927 47.6356C25.3993 47.6356 25.3993 47.6356 25.4059 47.6356C25.4586 47.6356 25.5113 47.6291 25.564 47.6161H25.5706C25.5838 47.6096 25.5969 47.6031 25.6101 47.5967C25.6431 47.5837 25.6826 47.5707 25.7155 47.5512C25.7221 47.5512 25.7221 47.5512 25.7287 47.5447C26.2427 47.2396 38.2742 40.0397 41.0943 36.3651C46.1875 29.7236 49.1328 23.6145 49.9235 18.1091C49.9762 18.0636 50.0289 18.0117 50.0619 17.9468C50.1805 17.726 50.1607 17.4793 50.0289 17.2781C50.2464 15.298 50.1739 13.3957 49.8049 11.5779ZM48.7704 16.486L45.4628 14.6747L47.6898 9.17581C48.0193 9.98734 48.3026 10.8638 48.5003 11.8376C48.8034 13.3243 48.889 14.876 48.7704 16.486ZM47.9468 21.05L45.9833 16.4666L48.6189 17.9078C48.4739 18.9271 48.2565 19.9788 47.9468 21.05ZM32.2386 41.8381L30.8615 40.65L36.6006 38.7153C35.263 39.7476 33.7409 40.8188 32.2386 41.8381ZM14.1914 38.7153L19.9304 40.65L18.5533 41.8381C17.051 40.8188 15.5224 39.7476 14.1914 38.7153ZM2.16646 17.9013L4.79547 16.4601L2.83854 21.0436C2.53544 19.9788 2.31801 18.9271 2.16646 17.9013ZM26.0582 9.11738L28.4895 9.65624L26.0582 11.4026V9.11738ZM24.7338 11.3961L22.3024 9.64974L24.7338 9.11089V11.3961ZM25.0105 13.2205C25.0237 13.2269 25.0369 13.2334 25.05 13.2399C25.0698 13.2529 25.083 13.2659 25.0962 13.2724C25.1093 13.2789 25.1225 13.2724 25.1357 13.2789C25.2214 13.3178 25.307 13.3438 25.3993 13.3438C25.4915 13.3438 25.5838 13.3178 25.6694 13.2789C25.6826 13.2724 25.6958 13.2789 25.7024 13.2724C25.7221 13.2659 25.7353 13.2464 25.7551 13.2399C25.7682 13.2334 25.7814 13.2269 25.7946 13.2205L30.2224 10.0458L37.4308 11.8441V21.3876L32.3968 29.1199L25.4059 34.7551L18.4215 29.1199L13.3875 21.3876V11.8441L20.5893 10.0458L25.0105 13.2205ZM44.2965 14.032L38.742 10.9417V4.76112L46.7872 7.88387L44.2965 14.032ZM29.2736 39.0594L26.3415 35.6835L31.6127 31.4311L29.2736 39.0594ZM21.5183 39.0594L19.1727 31.4311L24.4439 35.6835L21.5183 39.0594ZM12.05 19.9723L7.23999 15.1227L12.05 12.4479V19.9723ZM12.8275 22.9652L16.5041 28.6135L10.8442 27.4903L12.8275 22.9652ZM17.3936 30.1326L20.2269 39.3645L11.76 36.5145L10.686 28.8082L17.3936 30.1326ZM25.3927 36.6054L28.7333 40.4552L25.3927 45.7399L22.0586 40.4552L25.3927 36.6054ZM33.3983 30.1326L40.0993 28.8017L39.0253 36.508L30.5584 39.3581L33.3983 30.1326ZM34.2878 28.6135L37.9645 22.9652L39.9478 27.4903L34.2878 28.6135ZM38.742 12.4479L43.5454 15.1227L38.742 19.9723V12.4479ZM37.4176 5.05976V10.4807L31.6522 9.03948L37.4176 5.05976ZM13.3743 10.4807V5.05976L19.1397 9.04597L13.3743 10.4807ZM12.05 10.9417L6.49543 14.032L3.9982 7.88387L12.0434 4.76112V10.9417H12.05ZM6.38342 16.1355L11.9248 21.7252L9.6252 26.9709L3.58309 22.7056L6.38342 16.1355ZM21.0835 41.3966L23.3171 44.9349C22.2893 44.2921 21.0242 43.4871 19.6866 42.6042L21.0835 41.3966ZM29.7019 41.3966L31.0987 42.5977C29.7612 43.4806 28.4961 44.2856 27.4682 44.9284L29.7019 41.3966ZM41.1667 26.9709L38.8672 21.7252L44.4085 16.1355L47.2154 22.7056L41.1667 26.9709ZM46.0426 6.18291L39.5195 3.65095L41.5818 2.30707C41.852 2.41094 42.1287 2.5278 42.3989 2.65115C42.4252 2.67063 44.3163 3.7808 46.0426 6.18291ZM39.9544 1.79418L38.0633 3.02121L35.6517 1.58643C36.1723 1.50203 36.7126 1.4501 37.2726 1.4501C38.1556 1.45659 39.0517 1.57345 39.9544 1.79418ZM33.8332 2.04089L36.8575 3.83923L29.9325 8.62398L26.4799 7.86439C27.5143 6.41663 30.084 3.33283 33.8332 2.04089ZM24.3121 7.8579L20.8594 8.61749L13.9278 3.83923L16.9522 2.04089C20.6947 3.33283 23.271 6.41663 24.3121 7.8579ZM15.1336 1.58643L12.722 3.02121L10.8376 1.79418C11.7403 1.57345 12.6364 1.45659 13.5193 1.45659C14.0794 1.45659 14.6131 1.50203 15.1336 1.58643ZM8.34694 2.67712C8.63685 2.54079 8.92677 2.42393 9.21669 2.31356L11.2725 3.65095L4.75594 6.17642C6.46907 3.79378 8.35353 2.67712 8.34694 2.67712ZM2.27847 11.8636C2.47614 10.8833 2.75947 9.99383 3.09551 9.17581L5.32259 14.6682L2.0215 16.486C1.9029 14.8825 1.98197 13.3438 2.27847 11.8636ZM4.16951 24.7376L9.28258 28.3473L10.1853 34.82C7.54967 31.2882 5.54003 27.9188 4.16951 24.7376ZM40.6001 34.82L41.5028 28.3473L46.6224 24.7376C45.2519 27.9188 43.2423 31.2882 40.6001 34.82Z" fill="#2B2B2B" stroke="#2B2B2B" stroke-width="0.404229" mask="url(#path-1-inside-1_389_7643)"/>
</svg>
