<svg width="54" height="54" viewBox="0 0 54 54" fill="none" xmlns="http://www.w3.org/2000/svg">
<g clip-path="url(#clip0_43_2656)">
<path d="M3.44434 26.9923C3.44434 31.6511 4.82584 36.2054 7.41416 40.0791C10.0025 43.9527 13.6814 46.9719 17.9856 48.7548C22.2898 50.5376 27.026 51.0041 31.5954 50.0952C36.1647 49.1863 40.3619 46.9429 43.6562 43.6486C46.9505 40.3543 49.1939 36.1571 50.1028 31.5877C51.0117 27.0184 50.5453 22.2822 48.7624 17.978C46.9795 13.6738 43.9603 9.99487 40.0867 7.40656C36.213 4.81824 31.6587 3.43673 26.9999 3.43673C20.7526 3.43673 14.7611 5.91847 10.3436 10.336C5.92608 14.7535 3.44434 20.745 3.44434 26.9923ZM47.611 26.9923C47.611 31.0688 46.4022 35.0537 44.1374 38.4432C41.8726 41.8327 38.6536 44.4745 34.8874 46.0345C31.1212 47.5945 26.977 48.0026 22.9789 47.2074C18.9807 46.4121 15.3082 44.4491 12.4256 41.5665C9.54312 38.684 7.5801 35.0115 6.78482 31.0133C5.98953 27.0151 6.3977 22.8709 7.95771 19.1048C9.51771 15.3386 12.1595 12.1195 15.549 9.85477C18.9385 7.58999 22.9234 6.38117 26.9999 6.38117C32.4663 6.38117 37.7088 8.5527 41.5741 12.418C45.4395 16.2834 47.611 21.5259 47.611 26.9923Z" fill="#2B2B2B"/>
<path d="M12.6606 26.8746L23.8643 38.0782C23.9962 38.2323 24.1586 38.3575 24.3413 38.4458C24.524 38.5342 24.7229 38.5838 24.9256 38.5917C25.1284 38.5995 25.3306 38.5653 25.5195 38.4913C25.7084 38.4173 25.88 38.305 26.0235 38.1616C26.167 38.0181 26.2792 37.8465 26.3533 37.6576C26.4273 37.4687 26.4614 37.2665 26.4536 37.0637C26.4458 36.861 26.3961 36.662 26.3077 36.4794C26.2194 36.2967 26.0942 36.1343 25.9401 36.0023L18.4318 28.4646H40.5151C40.9055 28.4646 41.28 28.3094 41.5561 28.0334C41.8322 27.7573 41.9873 27.3828 41.9873 26.9923C41.9873 26.6019 41.8322 26.2274 41.5561 25.9513C41.28 25.6752 40.9055 25.5201 40.5151 25.5201H18.1668L25.9401 17.7468C26.0942 17.6148 26.2194 17.4524 26.3077 17.2697C26.3961 17.0871 26.4458 16.8881 26.4536 16.6854C26.4614 16.4826 26.4273 16.2804 26.3533 16.0915C26.2792 15.9026 26.167 15.731 26.0235 15.5875C25.88 15.4441 25.7084 15.3318 25.5195 15.2578C25.3306 15.1838 25.1284 15.1496 24.9256 15.1574C24.7229 15.1653 24.524 15.2149 24.3413 15.3033C24.1586 15.3917 23.9962 15.5168 23.8643 15.6709L12.6606 26.8746Z" fill="#2B2B2B"/>
</g>
<defs>
<clipPath id="clip0_43_2656">
<rect width="53" height="53" fill="white" transform="matrix(0 -1 1 0 0.5 53.4922)"/>
</clipPath>
</defs>
</svg>
