<svg width="68" height="68" viewBox="0 0 68 68" fill="none" xmlns="http://www.w3.org/2000/svg">
    <path
        d="M63.3201 29.3327C63.1519 26.9141 62.8476 24.5068 62.4086 22.1224C62.3563 21.8413 62.2393 21.5762 62.0668 21.3481C61.8944 21.12 61.6713 20.9351 61.4151 20.8081C61.1588 20.681 60.8766 20.6154 60.5906 20.6162C60.3047 20.6171 60.0228 20.6844 59.7674 20.813C57.9151 21.7244 56.4625 23.285 55.686 25.1979C54.9821 27.0199 54.9449 29.032 55.5812 30.8787C55.7199 31.2783 55.71 31.7144 55.5532 32.1072L54.5139 34.6148C53.6926 34.714 52.9247 35.0738 52.3227 35.6413L48.0722 39.6714C47.9207 39.8169 47.7217 39.9027 47.5119 39.9131C46.1736 39.9694 44.862 40.3052 43.6614 40.8989C42.6018 41.4267 41.6507 42.149 40.8578 43.028C39.2545 44.7934 38.3668 47.093 38.3681 49.4777V54.9059C37.835 54.945 37.3363 55.184 36.9718 55.5751C36.6074 55.9661 36.404 56.4803 36.4023 57.0148V61.6332C36.403 62.1966 36.6271 62.7367 37.0255 63.1351C37.4238 63.5335 37.964 63.7575 38.5273 63.7582H52.4187C52.982 63.7575 53.5222 63.5335 53.9206 63.1351C54.3189 62.7367 54.543 62.1966 54.5437 61.6332V57.0148C54.543 56.4514 54.3189 55.9113 53.9206 55.5129C53.5222 55.1145 52.982 54.8904 52.4187 54.8898H52.2163L52.2174 54.8545C52.23 54.4121 52.4138 53.9918 52.73 53.682L61.3591 45.2142C62.2276 44.3581 62.7846 43.236 62.9415 42.0267C63.4844 37.8181 63.6112 33.5662 63.3201 29.3327ZM52.4187 61.6331H38.5273V57.0148L52.4186 57.0137L52.4187 61.6331ZM60.8341 41.7548C60.7387 42.4917 60.3996 43.1754 59.8707 43.6972L51.2415 52.1651C50.5324 52.8591 50.1208 53.8015 50.0934 54.7933L50.0906 54.8898H40.493V49.4777C40.492 47.6208 41.1833 45.8302 42.4318 44.4557C43.0467 43.773 43.7844 43.212 44.6066 42.8018C45.5436 42.3397 46.567 42.0789 47.6109 42.036C48.3301 42.0013 49.0128 41.7093 49.5346 41.2132L53.7846 37.1832C54.0378 36.944 54.356 36.7851 54.6993 36.7266C55.0426 36.6681 55.3955 36.7125 55.7135 36.8542C55.8654 36.9224 55.9932 37.0348 56.0801 37.1768C56.1671 37.3188 56.2091 37.4838 56.2007 37.65C56.2006 38.1402 56.021 38.6134 55.6959 38.9803L50.3932 44.9672C50.3001 45.0716 50.2285 45.1933 50.1825 45.3254C50.1365 45.4575 50.1171 45.5973 50.1253 45.7369C50.1335 45.8766 50.1692 46.0132 50.2303 46.139C50.2914 46.2648 50.3767 46.3773 50.4814 46.47C50.5861 46.5628 50.7081 46.6339 50.8403 46.6794C50.9726 46.7249 51.1125 46.7439 51.2521 46.7351C51.3917 46.7264 51.5282 46.6903 51.6538 46.6287C51.7794 46.5671 51.8915 46.4813 51.9839 46.3763L57.287 40.3894C57.9661 39.6171 58.3359 38.6213 58.3257 37.593C58.324 37.0436 58.1678 36.5057 57.8749 36.0408C57.5821 35.5758 57.1644 35.2027 56.6695 34.9638L57.5169 32.9197C57.869 32.0543 57.8976 31.0911 57.5973 30.2064C57.1145 28.8542 57.1304 27.3742 57.642 26.0327C58.1536 24.6912 59.1273 23.5765 60.3879 22.8892C60.7755 25.0702 61.0467 27.2703 61.2003 29.4801C61.4818 33.5738 61.3592 37.6852 60.8341 41.7548Z"
        fill="#2B2B2B" />
    <path
        d="M29.6322 54.905V49.8047C29.6648 47.1492 28.6499 44.5878 26.8073 42.6753C26.0864 41.9526 25.2525 41.3522 24.3383 40.8979C23.1416 40.3067 21.8348 39.9714 20.5013 39.9132C20.2975 39.9078 20.1023 39.8298 19.9509 39.6933L15.6775 35.6404C15.0763 35.0725 14.3083 34.7132 13.4871 34.6158L12.4474 32.1074C12.2903 31.7143 12.2801 31.2778 12.4189 30.8779C13.0552 29.0312 13.0181 27.019 12.3141 25.197C11.5373 23.2836 10.0841 21.7227 8.23116 20.8111C7.97571 20.6829 7.69395 20.6158 7.40814 20.6152C7.12233 20.6146 6.84029 20.6805 6.58429 20.8076C6.32829 20.9347 6.10534 21.1195 5.93305 21.3476C5.76076 21.5756 5.64384 21.8406 5.59152 22.1216C4.38068 28.6883 4.20091 35.4037 5.05871 42.0258C5.21556 43.2353 5.77279 44.3574 6.64157 45.2133L15.2697 53.6811C15.586 53.9904 15.77 54.4104 15.7828 54.8526L15.7839 54.8889H15.5815C15.0181 54.8895 14.478 55.1136 14.0796 55.512C13.6812 55.9104 13.4571 56.4505 13.4565 57.0139V61.6323C13.4571 62.1956 13.6812 62.7358 14.0796 63.1341C14.478 63.5325 15.0181 63.7566 15.5815 63.7573H29.4729C30.0363 63.7566 30.5764 63.5325 30.9748 63.1341C31.3732 62.7358 31.5972 62.1956 31.5979 61.6323V57.0139C31.5963 56.4794 31.3929 55.9652 31.0284 55.5741C30.6639 55.1831 30.1653 54.9441 29.6322 54.905ZM17.9068 54.7914C17.8792 53.7998 17.4673 52.8578 16.7582 52.1642L8.13003 43.6964C7.60077 43.1748 7.26142 42.4909 7.1661 41.754C6.35321 35.4794 6.50367 29.1175 7.61227 22.8884C8.84915 23.5711 9.81141 24.6611 10.3355 25.9731C10.8561 27.3319 10.88 28.8309 10.4029 30.2055C10.1025 31.0906 10.1312 32.0543 10.4838 32.9199L11.3301 34.9615C10.8277 35.2064 10.4053 35.5892 10.1122 36.0651C9.81906 36.541 9.66726 37.0904 9.6745 37.6492C9.67434 38.6583 10.0438 39.6324 10.7131 40.3875L16.0163 46.3754C16.1087 46.4805 16.2208 46.5662 16.3464 46.6278C16.472 46.6894 16.6085 46.7256 16.7481 46.7343C16.8877 46.743 17.0276 46.7241 17.1598 46.6786C17.2921 46.6331 17.4141 46.5619 17.5188 46.4692C17.6234 46.3764 17.7088 46.2639 17.7699 46.1381C17.831 46.0123 17.8667 45.8757 17.8749 45.7361C17.8831 45.5965 17.8636 45.4566 17.8177 45.3245C17.7717 45.1924 17.7001 45.0707 17.6069 44.9664L12.3038 38.9784C11.9689 38.5952 11.7891 38.1009 11.7995 37.5922C11.8007 37.4308 11.8498 37.2734 11.9406 37.1401C12.0314 37.0067 12.1598 36.9033 12.3095 36.843C12.6255 36.7066 12.9746 36.666 13.3135 36.7263C13.6524 36.7866 13.9661 36.9452 14.2156 37.1823L18.49 41.2362C19.0106 41.7226 19.6883 42.0064 20.4002 42.0362C21.4404 42.0805 22.4601 42.3409 23.3942 42.8009C24.1015 43.1532 24.7469 43.6183 25.3049 44.1778C26.7499 45.6911 27.5411 47.7125 27.5072 49.8047V54.8889H17.9096L17.9068 54.7914ZM29.4729 61.6323H15.5815V57.0139H29.4729V61.6323Z"
        fill="#2B2B2B" />
    <path
        d="M34.0018 35.506C33.7829 35.5063 33.5663 35.4625 33.3647 35.3773C31.74 34.6642 30.2029 33.7663 28.7837 32.7014C20.1275 26.5142 20.2967 14.064 20.3693 8.74738L20.3791 7.87684C20.3813 7.54112 20.4873 7.2143 20.6828 6.94134C20.8783 6.66839 21.1535 6.46271 21.4707 6.35261C25.5034 4.9748 29.7335 4.26235 33.995 4.24316C38.259 4.26118 42.4915 4.97329 46.5266 6.35156C46.8444 6.46132 47.1204 6.66696 47.3165 6.94014C47.5125 7.21332 47.619 7.54059 47.6213 7.87683L47.6311 8.74737C47.7038 14.064 47.8729 26.5142 39.2167 32.7013C37.7975 33.7663 36.2604 34.6642 34.6357 35.3773C34.4352 35.4623 34.2196 35.5061 34.0018 35.506ZM22.5 8.24829L22.4938 8.77643C22.4263 13.76 22.2676 25.4319 30.0195 30.9727C31.2565 31.9035 32.5913 32.6967 34.0002 33.3385C35.4089 32.6964 36.7436 31.9032 37.9809 30.9728C45.7328 25.432 45.5741 13.7601 45.5066 8.77648L45.5004 8.24834C41.7881 7.02031 37.9052 6.38578 33.995 6.36815C30.0883 6.38688 26.2091 7.02138 22.5 8.24829Z"
        fill="#2B2B2B" />
    <path
        d="M31.9731 22.8247C31.7697 22.824 31.5688 22.7791 31.3845 22.6931C31.2001 22.6071 31.0367 22.4821 30.9054 22.3266L28.052 18.9908C27.8698 18.7765 27.78 18.4988 27.8021 18.2184C27.8243 17.9381 27.9568 17.6779 28.1704 17.495C28.3841 17.3121 28.6615 17.2214 28.942 17.2427C29.2224 17.264 29.483 17.3956 29.6665 17.6087L31.971 20.3033L38.331 12.817C38.5134 12.6023 38.7737 12.4688 39.0546 12.4459C39.3355 12.423 39.614 12.5127 39.8288 12.6951C40.0435 12.8776 40.1771 13.1379 40.1999 13.4188C40.2228 13.6997 40.1331 13.9781 39.9507 14.1929L33.0434 22.3235C32.9125 22.4795 32.7493 22.6051 32.565 22.6916C32.3807 22.7782 32.1798 22.8236 31.9762 22.8247H31.9731Z"
        fill="#2B2B2B" />
</svg>