<svg width="20" height="20" viewBox="0 0 20 20" fill="none" xmlns="http://www.w3.org/2000/svg">
<path d="M14.2694 9.24625C14.6069 9.92125 14.7813 10.6469 14.7813 11.4062C14.7813 14.0444 12.6381 16.1875 10 16.1875C7.36189 16.1875 5.21876 14.0444 5.21876 11.4062C5.21876 8.76813 7.36189 6.625 10 6.625C10.0394 6.625 10.135 6.625 10.2363 6.65875C10.4275 6.72063 10.5681 6.88375 10.6075 7.08063C10.8438 8.21125 11.8506 9.03813 13.0094 9.03813C13.2231 9.03813 13.4313 9.01 13.6113 8.95937C13.8756 8.88625 14.1456 9.01 14.2694 9.24625ZM10 3.8125C6.15251 3.8125 2.20939 7.1875 1.56814 11.0294C1.51751 11.3331 1.72564 11.6256 2.02939 11.6762C2.33314 11.7269 2.62564 11.5187 2.67626 11.215C3.17689 8.25063 6.41126 4.9375 10 4.9375C13.5888 4.9375 16.8231 8.25063 17.3181 11.215C17.3631 11.4906 17.605 11.6875 17.875 11.6875C17.9031 11.6875 17.9369 11.6875 17.9706 11.6819C18.2744 11.6312 18.4825 11.3387 18.4319 11.035C17.7906 7.1875 13.8475 3.8125 10 3.8125Z" fill="#B5B5B5"/>
</svg>
