<svg width="54" height="70" viewBox="0 0 54 70" fill="none" xmlns="http://www.w3.org/2000/svg">
<g clip-path="url(#clip0_389_7656)">
<path d="M26.4131 1.66504C33.0751 1.66516 39.1569 5.35535 43.5957 11.4229C48.0342 17.4901 50.7978 25.9008 50.7979 35.2178C50.7979 44.5348 48.0342 52.9455 43.5957 59.0127C39.1569 65.0802 33.0751 68.7704 26.4131 68.7705C19.751 68.7705 13.6683 65.0803 9.22949 59.0127C4.79099 52.9455 2.02734 44.5347 2.02734 35.2178C2.02735 25.9008 4.79098 17.4901 9.22949 11.4229C13.6683 5.3552 19.751 1.66504 26.4131 1.66504Z" stroke="#2B2B2B" stroke-width="1.19526"/>
<path d="M26.4141 1.43066L33.3538 12.3297M33.3538 12.3297L26.4141 16.5077L35.1383 21.9572M33.3538 12.3297L35.7331 3.97378M33.3538 12.3297L35.1383 21.9572M33.3538 12.3297H43.8626V26.1352M35.1383 21.9572L40.0953 35.5811M35.1383 21.9572L43.8626 26.1352M40.0953 35.5811L35.1383 48.4783M40.0953 35.5811L43.8626 44.3003M40.0953 35.5811L43.8626 26.1352M35.1383 48.4783L26.4141 53.7462L33.3538 58.1058M35.1383 48.4783L43.8626 44.3003M35.1383 48.4783L33.3538 58.1058M33.3538 58.1058L26.4141 68.6416M33.3538 58.1058L35.7331 66.0985M33.3538 58.1058H43.8626V44.3003M43.8626 44.3003L51.0006 35.5811L43.8626 26.1352M43.8626 44.3003L49.4144 47.0251M43.8626 26.1352L49.4144 23.4104" stroke="#2B2B2B" stroke-width="1.19526"/>
<path d="M26.0195 1.43066L19.0798 12.3297M19.0798 12.3297L26.0195 16.5077L17.2953 21.9572M19.0798 12.3297L16.7004 3.97378M19.0798 12.3297L17.2953 21.9572M19.0798 12.3297H8.57103V26.1352M17.2953 21.9572L12.3383 35.5811M17.2953 21.9572L8.57103 26.1352M12.3383 35.5811L17.2953 48.4783M12.3383 35.5811L8.57103 44.3003M12.3383 35.5811L8.57103 26.1352M17.2953 48.4783L26.0195 53.7462L19.0798 58.1058M17.2953 48.4783L8.57103 44.3003M17.2953 48.4783L19.0798 58.1058M19.0798 58.1058L26.0195 68.6416M19.0798 58.1058L16.7004 66.0985M19.0798 58.1058H8.57103V44.3003M8.57103 44.3003L1.43301 35.5811L8.57103 26.1352M8.57103 44.3003L3.01923 47.0251M8.57103 26.1352L3.01923 23.4104" stroke="#2B2B2B" stroke-width="1.19526"/>
</g>
<defs>
<clipPath id="clip0_389_7656">
<rect width="52.9331" height="70.0083" fill="white" transform="translate(0.167969)"/>
</clipPath>
</defs>
</svg>
