<svg width="26" height="20" viewBox="0 0 26 20" fill="none" xmlns="http://www.w3.org/2000/svg">
<path d="M25.0835 2.33817L20.0835 0.409602C19.9641 0.363466 19.8308 0.363466 19.7115 0.409602L14.7115 2.33817C14.6188 2.37399 14.5393 2.43575 14.4834 2.5155C14.4274 2.59524 14.3975 2.68932 14.3975 2.7856V7.76903C14.4 8.6847 14.6472 9.5843 15.115 10.3811C15.5828 11.178 16.2556 11.8452 17.0685 12.3185L19.6405 13.8064C19.7181 13.8513 19.8069 13.875 19.8975 13.875C19.988 13.875 20.0768 13.8513 20.1545 13.8064L22.3975 12.5085V17.9085C22.3972 18.1181 22.3107 18.3191 22.157 18.4673C22.0033 18.6156 21.7949 18.699 21.5775 18.6992H2.21746C2.00006 18.699 1.79165 18.6156 1.63793 18.4673C1.4842 18.3191 1.39773 18.1181 1.39746 17.9085V7.12489H12.8975C13.0301 7.12489 13.1572 7.07409 13.251 6.98367C13.3448 6.89325 13.3975 6.77062 13.3975 6.64275C13.3975 6.51487 13.3448 6.39224 13.251 6.30182C13.1572 6.2114 13.0301 6.1606 12.8975 6.1606H1.39746V5.02275C1.39773 4.81311 1.4842 4.61214 1.63793 4.46391C1.79165 4.31568 2.00006 4.23229 2.21746 4.23203H12.8975C13.0301 4.23203 13.1572 4.18123 13.251 4.09081C13.3448 4.0004 13.3975 3.87776 13.3975 3.74989C13.3975 3.62202 13.3448 3.49938 13.251 3.40896C13.1572 3.31854 13.0301 3.26775 12.8975 3.26775H2.21746C1.73485 3.268 1.27208 3.45298 0.930819 3.78206C0.589561 4.11113 0.397726 4.55737 0.397461 5.02275V17.9056C0.397726 18.371 0.589561 18.8172 0.930819 19.1463C1.27208 19.4754 1.73485 19.6603 2.21746 19.6606H21.5775C22.0601 19.6603 22.5228 19.4754 22.8641 19.1463C23.2054 18.8172 23.3972 18.371 23.3975 17.9056V11.8499C24.0203 11.3519 24.5222 10.7282 24.8678 10.0227C25.2134 9.31729 25.3942 8.5473 25.3975 7.7671V2.7856C25.3974 2.68932 25.3675 2.59524 25.3116 2.5155C25.2556 2.43575 25.1762 2.37399 25.0835 2.33817ZM24.3975 7.76903C24.3954 8.51828 24.1932 9.25438 23.8103 9.90634C23.4274 10.5583 22.8768 11.1041 22.2115 11.4912L19.8975 12.8306L17.5835 11.4912C16.9182 11.1041 16.3675 10.5583 15.9846 9.90634C15.6017 9.25438 15.3995 8.51828 15.3975 7.76903V3.11153L19.8975 1.37582L24.3975 3.11153V7.76903Z" fill="black"/>
<path d="M18.2515 6.38395C18.2051 6.33912 18.1499 6.30355 18.0893 6.27926C18.0286 6.25498 17.9635 6.24246 17.8978 6.24241C17.8322 6.24237 17.7671 6.2548 17.7064 6.279C17.6457 6.30321 17.5905 6.3387 17.544 6.38347C17.4975 6.42823 17.4606 6.48139 17.4354 6.5399C17.4103 6.59841 17.3973 6.66113 17.3972 6.72448C17.3972 6.78783 17.4101 6.85057 17.4352 6.90912C17.4603 6.96767 17.4971 7.02087 17.5435 7.0657L18.8775 8.35109C18.9713 8.44148 19.0984 8.49226 19.231 8.49226C19.3636 8.49226 19.4907 8.44148 19.5845 8.35109L22.2515 5.77934C22.3452 5.68881 22.3979 5.56607 22.3978 5.43812C22.3977 5.31018 22.3449 5.18751 22.251 5.09711C22.1571 5.0067 22.0298 4.95596 21.8971 4.95605C21.7645 4.95615 21.6372 5.00706 21.5435 5.09759L19.2305 7.32895L18.2515 6.38395Z" fill="black"/>
<path d="M3.89746 15.8037C3.76485 15.8037 3.63768 15.8545 3.54391 15.9449C3.45014 16.0353 3.39746 16.158 3.39746 16.2859C3.39746 16.4137 3.45014 16.5364 3.54391 16.6268C3.63768 16.7172 3.76485 16.768 3.89746 16.768H7.89746C8.03007 16.768 8.15725 16.7172 8.25101 16.6268C8.34478 16.5364 8.39746 16.4137 8.39746 16.2859C8.39746 16.158 8.34478 16.0353 8.25101 15.9449C8.15725 15.8545 8.03007 15.8037 7.89746 15.8037H3.89746Z" fill="black"/>
</svg>
