<svg width="41" height="59" viewBox="0 0 41 59" fill="none" xmlns="http://www.w3.org/2000/svg">
<path d="M36.222 49.8906C46.0952 32.582 29.8734 9.971 20.5284 0.829102C12.6054 6.16188 -8.87807 39.3775 7.42498 53.0903C20.4674 64.0606 32.0573 55.5282 36.222 49.8906Z" stroke="#2B2B2B" stroke-width="1.05545"/>
<path d="M20.5273 1.13477L23.7293 12.4098M25.2507 49.4345L34.8497 51.5676L23.7293 12.4098M25.2507 49.4345L29.0598 55.9862M25.2507 49.4345L20.5273 58.2717M25.2507 49.4345L20.5273 47.6061L26.6219 44.1017M25.2507 49.4345L26.6219 44.1017M26.6219 44.1017L33.6307 18.8091L23.7293 12.4098M26.6219 44.1017L39.2682 39.3784L20.5273 16.676L27.2314 8.60065" stroke="#2B2B2B" stroke-width="1.05545"/>
<path d="M20.375 1.13477L17.173 12.4098M15.6517 49.4345L6.05269 51.5676L17.173 12.4098M15.6517 49.4345L11.8426 55.9862M15.6517 49.4345L20.375 58.2717M15.6517 49.4345L20.375 47.6061L14.2804 44.1017M15.6517 49.4345L14.2804 44.1017M14.2804 44.1017L7.27161 18.8091L17.173 12.4098M14.2804 44.1017L1.6341 39.3784L20.375 16.676L13.6709 8.60065" stroke="#2B2B2B" stroke-width="1.05545"/>
</svg>
