<svg width="57" height="57" viewBox="0 0 57 57" fill="none" xmlns="http://www.w3.org/2000/svg">
<path d="M28.1949 54.3517C42.9259 54.3517 54.8678 42.4098 54.8678 27.6788C54.8678 12.9477 42.9259 1.00586 28.1949 1.00586C13.4638 1.00586 1.52197 12.9477 1.52197 27.6788C1.52197 42.4098 13.4638 54.3517 28.1949 54.3517Z" stroke="black" stroke-opacity="0.8" stroke-width="1.96491"/>
<path d="M17.752 39.7463L35.1131 15.3191H37.8377L20.3718 39.7463H17.752ZM34.2398 40.3046C33.1918 40.3046 32.2603 40.0604 31.4453 39.5718C30.6534 39.0832 30.0246 38.4086 29.5589 37.5478C29.1164 36.6871 28.8952 35.7099 28.8952 34.6166C28.8952 33.4999 29.1164 32.5228 29.5589 31.6853C30.0246 30.8245 30.6534 30.1498 31.4453 29.6614C32.2603 29.1728 33.1918 28.9285 34.2398 28.9285C35.2877 28.9285 36.2076 29.1728 36.9994 29.6614C37.8144 30.1498 38.4432 30.8245 38.8857 31.6853C39.3515 32.5228 39.5843 33.4999 39.5843 34.6166C39.5843 35.7099 39.3515 36.6871 38.8857 37.5478C38.4432 38.4086 37.8144 39.0832 36.9994 39.5718C36.2076 40.0604 35.2877 40.3046 34.2398 40.3046ZM34.2398 38.4203C35.1946 38.4203 35.9747 38.0596 36.5802 37.3385C37.1857 36.6172 37.4884 35.7099 37.4884 34.6166C37.4884 33.5231 37.1857 32.6159 36.5802 31.8947C35.9747 31.1735 35.1946 30.8129 34.2398 30.8129C33.3083 30.8129 32.5281 31.1735 31.8993 31.8947C31.2939 32.6159 30.9911 33.5231 30.9911 34.6166C30.9911 35.7099 31.2939 36.6172 31.8993 37.3385C32.5281 38.0596 33.3083 38.4203 34.2398 38.4203ZM21.3499 26.1368C20.3019 26.1368 19.3705 25.8926 18.5554 25.404C17.7636 24.9155 17.1348 24.2409 16.6691 23.38C16.2266 22.5193 16.0054 21.5421 16.0054 20.4488C16.0054 19.3321 16.2266 18.3551 16.6691 17.5175C17.1348 16.6568 17.7636 15.9821 18.5554 15.4936C19.3705 15.005 20.3019 14.7607 21.3499 14.7607C22.3979 14.7607 23.3178 15.005 24.1096 15.4936C24.9246 15.9821 25.5534 16.6568 25.9959 17.5175C26.4617 18.3551 26.6945 19.3321 26.6945 20.4488C26.6945 21.5421 26.4617 22.5193 25.9959 23.38C25.5534 24.2409 24.9246 24.9155 24.1096 25.404C23.3178 25.8926 22.3979 26.1368 21.3499 26.1368ZM21.3499 24.2524C22.3048 24.2524 23.0849 23.8919 23.6903 23.1707C24.2958 22.4494 24.5986 21.5421 24.5986 20.4488C24.5986 19.3554 24.2958 18.4597 23.6903 17.7618C23.0849 17.0406 22.3048 16.6801 21.3499 16.6801C20.4185 16.6801 19.6383 17.0406 19.0095 17.7618C18.404 18.4597 18.1012 19.3554 18.1012 20.4488C18.1012 21.5421 18.404 22.4494 19.0095 23.1707C19.6383 23.8919 20.4185 24.2524 21.3499 24.2524Z" fill="black" fill-opacity="0.8"/>
</svg>
