<svg width="50" height="50" viewBox="0 0 50 50" fill="none" xmlns="http://www.w3.org/2000/svg">
<rect x="1.26484" y="0.704295" width="47.8608" height="47.8608" stroke="#2B2B2B" stroke-width="1.13125"/>
<path d="M0.699219 1.28125L5.76173 8.46675M5.76173 8.46675L10.6609 10.9164L9.20538 24.3075M5.76173 8.46675V41.4547M5.76173 8.46675L9.20538 24.3075M9.02787 25.9406L5.76173 41.4547M9.02787 25.9406L9.20538 24.3075M9.02787 25.9406L10.6609 39.0051L5.76173 41.4547M5.76173 41.4547L0.699219 48.9669" stroke="#2B2B2B" stroke-width="1.13125"/>
<path d="M48.875 1.44629L43.8125 8.63179M43.8125 8.63179L38.9133 11.0814L40.3688 24.4726M43.8125 8.63179V41.6198M43.8125 8.63179L40.3688 24.4726M40.5463 26.1056L43.8125 41.6198M40.5463 26.1056L40.3688 24.4726M40.5463 26.1056L38.9133 39.1702L43.8125 41.6198M43.8125 41.6198L48.875 49.1319" stroke="#2B2B2B" stroke-width="1.13125"/>
<path d="M48.3867 48.9668L41.2012 43.9043M41.2012 43.9043L38.7516 39.0051L25.3604 40.4606M41.2012 43.9043L8.21322 43.9043M41.2012 43.9043L25.3604 40.4606M23.7274 40.6381L8.21322 43.9043M23.7274 40.6381L25.3604 40.4606M23.7274 40.6381L10.6628 39.0051L8.21322 43.9043M8.21322 43.9043L0.701102 48.9668" stroke="#2B2B2B" stroke-width="1.13125"/>
<path d="M48.3867 0.791016L41.2012 5.85353M41.2012 5.85353L38.7516 10.7527L25.3604 9.29718M41.2012 5.85353L8.21322 5.85353M41.2012 5.85353L25.3604 9.29718M23.7274 9.11967L8.21322 5.85353M23.7274 9.11967L25.3604 9.29718M23.7274 9.11967L10.6628 10.7527L8.21322 5.85353M8.21322 5.85353L0.701102 0.791016" stroke="#2B2B2B" stroke-width="1.13125"/>
</svg>
