<svg width="16" height="16" viewBox="0 0 16 16" fill="none" xmlns="http://www.w3.org/2000/svg">
    <g clip-path="url(#clip0_361_8286)">
        <path fill-rule="evenodd" clip-rule="evenodd"
            d="M9.33079 0.415707C8.52028 -0.104715 7.48065 -0.104715 6.67015 0.415707L5.37065 1.25009C5.28378 1.30586 5.18766 1.34568 5.0868 1.36766L3.57791 1.69656C2.63678 1.9017 1.9017 2.63678 1.69656 3.57791L1.36766 5.0868C1.34568 5.18766 1.30586 5.28378 1.25009 5.37065L0.415707 6.67015C-0.104715 7.48065 -0.104715 8.52028 0.415707 9.33079L1.25009 10.6303C1.30586 10.7172 1.34568 10.8133 1.36766 10.9142L1.69656 12.423C1.9017 13.3642 2.63678 14.0992 3.57791 14.3044L5.0868 14.6333C5.18765 14.6553 5.28378 14.6951 5.37065 14.7508L6.67015 15.5852C7.48065 16.1056 8.52028 16.1056 9.33079 15.5852L10.6303 14.7508C10.7172 14.6951 10.8133 14.6553 10.9142 14.6333L12.423 14.3044C13.3642 14.0992 14.0992 13.3642 14.3044 12.423L14.6333 10.9142C14.6553 10.8133 14.6951 10.7172 14.7508 10.6303L15.5852 9.33079C16.1056 8.52028 16.1056 7.48065 15.5852 6.67015L14.7508 5.37065C14.6951 5.28378 14.6553 5.18765 14.6333 5.0868L14.3044 3.57791C14.0992 2.63678 13.3642 1.9017 12.423 1.69656L10.9142 1.36766C10.8133 1.34568 10.7172 1.30586 10.6303 1.25009L9.33079 0.415707ZM8.79798 11.1905C8.79798 11.631 8.44093 11.988 8.00047 11.988C7.56001 11.988 7.20296 11.631 7.20296 11.1905C7.20296 10.75 7.56001 10.393 8.00047 10.393C8.44093 10.393 8.79798 10.75 8.79798 11.1905ZM8.00047 5.60795C7.56001 5.60795 7.20296 5.96501 7.20296 6.40545C7.20296 6.84592 6.84592 7.20296 6.40545 7.20296C5.96501 7.20296 5.60795 6.84592 5.60795 6.40545C5.60795 5.0841 6.67908 4.01293 8.00047 4.01293C9.32186 4.01293 10.393 5.0841 10.393 6.40545V6.93715C10.393 7.87462 9.6998 8.65012 8.79798 8.77916V8.79798C8.79798 9.23844 8.44093 9.59548 8.00047 9.59548C7.56001 9.59548 7.20296 9.23844 7.20296 8.79798V8.00047C7.20296 7.56001 7.56001 7.20296 8.00047 7.20296H8.53217C8.67899 7.20296 8.79798 7.08397 8.79798 6.93715V6.40545C8.79798 5.96501 8.44093 5.60795 8.00047 5.60795Z"
            fill="#2B2B2B" />
    </g>
    <defs>
        <clipPath id="clip0_361_8286">
            <rect width="16" height="16" fill="white" />
        </clipPath>
    </defs>
</svg>