<svg width="48" height="63" viewBox="0 0 48 63" fill="none" xmlns="http://www.w3.org/2000/svg">
<path d="M1.58203 56.2127V7.11269M1.58203 56.2127L7.8063 61.9112M1.58203 56.2127L6.5482 52.1045M1.58203 7.11269L8.00495 1.0166M1.58203 7.11269L6.61442 10.8896M8.00495 1.0166H40.5168M8.00495 1.0166L13.0373 5.32362M40.5168 1.0166L46.6749 6.78138M40.5168 1.0166L35.4844 5.32362M46.6749 6.78138V56.2127M46.6749 6.78138L41.7087 10.8896M46.6749 56.2127L40.583 61.9112M46.6749 56.2127L41.7087 52.1045M40.583 61.9112H7.8063M40.583 61.9112L35.4844 57.8692M7.8063 61.9112L12.8387 57.8692M13.0373 5.32362H35.4844M13.0373 5.32362L24.1616 11.6848L35.4844 5.32362M13.0373 5.32362L14.0968 11.6848M13.0373 5.32362L6.61442 10.8896M35.4844 5.32362L41.7087 10.8896M35.4844 5.32362L34.1601 11.6848M41.7087 10.8896L34.1601 11.6848M41.7087 10.8896L36.8087 31.5633M41.7087 10.8896V52.1045M34.1601 11.6848L36.8087 31.5633M34.1601 11.6848H14.0968M41.7087 52.1045L35.4844 57.8692M41.7087 52.1045L34.1601 51.2431M41.7087 52.1045L36.8087 31.5633M35.4844 57.8692L24.294 51.2431L12.8387 57.8692M35.4844 57.8692H12.8387M35.4844 57.8692L34.1601 51.2431M12.8387 57.8692L6.5482 52.1045M12.8387 57.8692L14.2292 51.2431M6.5482 52.1045L14.2292 51.2431M6.5482 52.1045L6.61442 10.8896M6.5482 52.1045L11.5806 31.5633M14.2292 51.2431L11.5806 31.5633M14.2292 51.2431H34.1601M34.1601 51.2431L36.8087 31.5633M14.0968 11.6848L6.61442 10.8896M14.0968 11.6848L11.5806 31.5633M6.61442 10.8896L11.5806 31.5633" stroke="#2B2B2B" stroke-width="1.26021"/>
</svg>
