<svg width="59" height="59" viewBox="0 0 59 59" fill="none" xmlns="http://www.w3.org/2000/svg">
<g clip-path="url(#clip0_389_7679)">
<circle cx="29.3482" cy="29.8569" r="28.4027" stroke="#2B2B2B" stroke-width="1.25032"/>
<path d="M29.5433 1.2168L37.4776 10.3122M37.4776 10.3122L29.1562 14.7631L39.7998 19.2141M37.4776 10.3122L40.3803 3.34551M37.4776 10.3122L39.7998 19.2141M37.4776 10.3122L49.2822 9.73163L48.8952 22.1168M39.7998 19.2141L44.4442 29.8576M39.7998 19.2141L48.8952 22.1168M44.4442 29.8576L40.3803 40.6947M44.4442 29.8576L48.8952 22.1168M44.4442 29.8576L48.8952 37.7919M40.3803 40.6947C38.8322 41.0817 34.4974 42.5137 29.5433 45.1456L37.4776 49.403M40.3803 40.6947L48.8952 37.7919M40.3803 40.6947L37.4776 49.403M37.4776 49.403L29.5433 58.4984M37.4776 49.403L40.3803 56.3697M37.4776 49.403L49.4757 49.7901L48.8952 37.7919M48.8952 37.7919L55.8619 41.0817M48.8952 37.7919L57.6035 29.8576L48.8952 22.1168M48.8952 22.1168L55.8619 18.6335" stroke="#2B2B2B" stroke-width="1.25032"/>
<path d="M28.9606 1.2168L21.0263 10.3122M21.0263 10.3122L29.3477 14.7631L18.7041 19.2141M21.0263 10.3122L18.1236 3.34551M21.0263 10.3122L18.7041 19.2141M21.0263 10.3122L9.22169 9.73163L9.60872 22.1168M18.7041 19.2141L14.0597 29.8576M18.7041 19.2141L9.60872 22.1168M14.0597 29.8576L18.1236 40.6947M14.0597 29.8576L9.60872 22.1168M14.0597 29.8576L9.60872 37.7919M18.1236 40.6947C19.6717 41.0817 24.0065 42.5137 28.9606 45.1456L21.0263 49.403M18.1236 40.6947L9.60872 37.7919M18.1236 40.6947L21.0263 49.403M21.0263 49.403L28.7671 58.4984M21.0263 49.403L18.1236 56.3697M21.0263 49.403L9.02817 49.7901L9.60872 37.7919M9.60872 37.7919L2.64204 41.0817M9.60872 37.7919L0.900373 29.8576L9.60872 22.1168M9.60872 22.1168L2.64204 18.6335" stroke="#2B2B2B" stroke-width="1.25032"/>
</g>
<defs>
<clipPath id="clip0_389_7679">
<rect width="58.0557" height="58.0557" fill="white" transform="translate(0.320312 0.829102)"/>
</clipPath>
</defs>
</svg>
