<svg width="17" height="17" viewBox="0 0 17 17" fill="none" xmlns="http://www.w3.org/2000/svg">
<path fill-rule="evenodd" clip-rule="evenodd" d="M13.418 8.50028C15.2287 8.50028 16.6966 6.97122 16.6966 5.0851C16.6966 3.19895 15.2287 1.66992 13.418 1.66992C11.8903 1.66992 10.6067 2.75831 10.2427 4.23131H1.12335C0.670681 4.23131 0.303711 4.61357 0.303711 5.0851C0.303711 5.55664 0.670681 5.9389 1.12335 5.9389H10.2427C10.6067 7.41186 11.8903 8.50028 13.418 8.50028ZM11.7787 5.0851C11.7787 6.02818 12.5126 6.79269 13.418 6.79269C14.3234 6.79269 15.0573 6.02818 15.0573 5.0851C15.0573 4.14202 14.3234 3.37751 13.418 3.37751C12.5126 3.37751 11.7787 4.14202 11.7787 5.0851ZM0.303711 11.9155C0.303711 10.0293 1.77158 8.50028 3.58228 8.50028C5.10997 8.50028 6.39361 9.5887 6.75756 11.0617H15.8769C16.3296 11.0617 16.6966 11.4439 16.6966 11.9155C16.6966 12.387 16.3296 12.7693 15.8769 12.7693H6.75756C6.39361 14.2422 5.10997 15.3306 3.58228 15.3306C1.77158 15.3306 0.303711 13.8016 0.303711 11.9155ZM5.22157 11.9155C5.22157 10.9724 4.48764 10.2079 3.58228 10.2079C2.67693 10.2079 1.943 10.9724 1.943 11.9155C1.943 12.8586 2.67693 13.623 3.58228 13.623C4.48764 13.623 5.22157 12.8586 5.22157 11.9155Z" fill="#2B2B2B"/>
</svg>
