<svg width="74" height="74" viewBox="0 0 74 74" fill="none" xmlns="http://www.w3.org/2000/svg">
<path fill-rule="evenodd" clip-rule="evenodd" d="M64.2156 21.828C63.1507 20.6724 61.6447 20.0098 60.0831 20.0098H49.014V16.135C49.014 13.5509 46.9164 11.4482 44.3383 11.4482H5.5478C2.9698 11.4482 0.87207 13.5509 0.87207 16.135L0.873516 51.255C0.873516 53.6613 2.82642 55.6189 5.22636 55.6189H8.96293C9.40577 59.5144 12.7096 62.5519 16.7111 62.5519C20.7126 62.5519 24.0164 59.5144 24.4593 55.6189H49.5409C49.9838 59.5144 53.2876 62.5519 57.2891 62.5519C61.2906 62.5519 64.5945 59.5144 65.0373 55.6189H67.5115C70.6091 55.6189 73.1287 53.0925 73.1287 49.9871V33.7202C73.1287 32.31 72.6028 30.9569 71.6441 29.9073L64.2156 21.828ZM70.9391 41.0957H58.4402C57.2663 41.0957 56.3112 40.136 56.3112 38.9563V30.3252C56.3112 29.1455 57.2663 28.1858 58.4402 28.1858H67.0852L70.0303 31.3865C70.6162 32.0286 70.9391 32.8572 70.9391 33.7201V41.0957ZM16.7111 60.3621C13.6163 60.3621 11.0981 57.8347 11.0981 54.7281C11.0981 51.6213 13.6163 49.0937 16.7111 49.0937C19.806 49.0937 22.3241 51.6211 22.3241 54.7281C22.324 57.8347 19.8058 60.3621 16.7111 60.3621ZM57.289 60.3621C54.1941 60.3621 51.676 57.8347 51.676 54.7281C51.676 51.6213 54.1941 49.0937 57.289 49.0937C60.3838 49.0937 62.902 51.6211 62.902 54.7281C62.902 57.8347 60.3838 60.3621 57.289 60.3621ZM67.5114 53.4292H64.9749C64.3548 49.7327 61.149 46.9042 57.289 46.9042C53.429 46.9042 50.2231 49.7325 49.6031 53.4292H24.3968C23.7768 49.7327 20.571 46.9042 16.711 46.9042C12.851 46.9042 9.64512 49.7325 9.02508 53.4292H5.22636C4.03398 53.4292 3.06316 52.4538 3.06316 51.2549L3.06172 16.1348C3.06172 14.7577 4.17721 13.6376 5.5478 13.6376H44.3383C45.7088 13.6376 46.8243 14.7577 46.8243 16.1348V43.4434C46.8243 44.8205 45.7088 45.9409 44.3383 45.9409H29.3219C28.7175 45.9409 28.2271 46.4309 28.2271 47.0357C28.2271 47.6406 28.7175 48.1306 29.3219 48.1306H44.3383C46.9163 48.1306 49.014 46.0279 49.014 43.4434V22.1993H60.0831C61.0346 22.1993 61.954 22.6046 62.6041 23.3105L65.0737 25.9962H58.4402C56.0589 25.9962 54.1216 27.9381 54.1216 30.3252V38.9563C54.1216 41.3434 56.0589 43.2853 58.4402 43.2853H70.9391V49.9871C70.9391 51.8849 69.4017 53.4292 67.5114 53.4292ZM14.9484 26.3733H10.6084C10.004 26.3733 9.51359 26.8632 9.51359 27.4681V35.1106C9.51359 35.7153 10.004 36.2054 10.6084 36.2054C11.2128 36.2054 11.7032 35.7155 11.7032 35.1106V33.0557H14.334C14.9384 33.0557 15.4288 32.5657 15.4288 31.9608C15.4288 31.356 14.9384 30.866 14.334 30.866H11.7032V28.5628H14.9484C15.5528 28.5628 16.0432 28.0728 16.0432 27.4679C16.0432 26.8631 15.5528 26.3733 14.9484 26.3733ZM32.042 34.0157C32.6464 34.0157 33.1368 34.5058 33.1368 35.1105C33.1368 35.7153 32.6464 36.2054 32.042 36.2052H27.7013C27.0968 36.2052 26.6064 35.7151 26.6064 35.1104V27.4679C26.6064 26.863 27.0968 26.373 27.7013 26.373H32.042C32.6464 26.373 33.1368 26.863 33.1368 27.4679C33.1368 28.0727 32.6464 28.5627 32.042 28.5627H28.7961V30.1946H31.4276C32.032 30.1946 32.5224 30.6846 32.5224 31.2894C32.5224 31.8943 32.032 32.3842 31.4276 32.3842H28.7961V34.0157H32.042ZM36.296 36.2054H40.636C41.2404 36.2054 41.7308 35.7154 41.7308 35.1105C41.7308 34.5057 41.2404 34.0157 40.636 34.0157H37.3908V32.3842H40.0216C40.626 32.3842 41.1164 31.8943 41.1164 31.2894C41.1164 30.6846 40.626 30.1946 40.0216 30.1946H37.3908V28.5627H40.636C41.2404 28.5627 41.7308 28.0727 41.7308 27.4679C41.7308 26.863 41.2404 26.373 40.636 26.373H36.296C35.6916 26.373 35.2012 26.863 35.2012 27.4679V35.1104C35.2012 35.7153 35.6916 36.2054 36.296 36.2054ZM24.0999 29.4643C24.0999 30.6311 23.4435 31.6365 22.4884 32.1624L24.0606 34.4997C24.3985 35.0015 24.2653 35.6818 23.7635 36.0193C23.264 36.3556 22.5827 36.2254 22.2446 35.7221L20.1139 32.555H19.76V35.1109C19.76 35.7157 19.2696 36.2057 18.6651 36.2057C18.0607 36.2057 17.5703 35.7156 17.5703 35.1109V27.4684C17.5703 26.8635 18.0607 26.3735 18.6651 26.3735H21.0151C22.7158 26.3735 24.0999 27.7602 24.0999 29.4643ZM21.0151 28.5629H19.76V30.3651H21.0151C21.5091 30.3651 21.9103 29.9609 21.9103 29.4642C21.9103 28.9674 21.5091 28.5629 21.0151 28.5629ZM57.9305 53.6333H56.6475C56.0431 53.6333 55.5527 54.1233 55.5527 54.7281C55.5527 55.333 56.0431 55.8229 56.6475 55.8229H57.9305C58.535 55.8229 59.0254 55.333 59.0254 54.7281C59.0254 54.1233 58.535 53.6333 57.9305 53.6333ZM16.0695 53.6333H17.3525C17.957 53.6333 18.4474 54.1233 18.4474 54.7281C18.4474 55.333 17.957 55.8229 17.3525 55.8229H16.0695C15.4651 55.8229 14.9747 55.333 14.9747 54.7281C14.9747 54.1233 15.4651 53.6333 16.0695 53.6333Z" fill="#202A4E"/>
</svg>
