<svg width="30" height="29" viewBox="0 0 30 29" fill="none" xmlns="http://www.w3.org/2000/svg">
<g clip-path="url(#clip0_518_8519)">
<path d="M29.8225 16.6204L28.3546 14.3744C27.7064 13.382 26.6052 12.7893 25.408 12.7893H21.6117V10.6047C21.6117 9.27088 20.527 8.18622 19.1932 8.18622H12.0865C11.6877 6.10355 9.8545 4.52344 7.65725 4.52344C5.16921 4.52344 3.14528 6.54763 3.14528 9.03541C3.14528 10.5997 3.94627 11.9796 5.15894 12.7893H1.35788C1.10344 12.7893 0.897461 12.9953 0.897461 13.2497C0.897461 13.5042 1.10344 13.7102 1.35788 13.7102H5.96098V14.6307H4.11958C3.8654 14.6307 3.65943 14.8367 3.65943 15.0911C3.65943 15.3456 3.8654 15.5513 4.11958 15.5513H5.96098V16.4719H1.35788C1.10344 16.4719 0.897461 16.6778 0.897461 16.9323C0.897461 17.1867 1.10344 17.3927 1.35788 17.3927H5.96098V19.4314C5.14946 19.7893 4.58 20.599 4.58 21.5414V21.9958C4.58 22.2502 4.78624 22.4562 5.04041 22.4562H9.12305C9.38486 23.5825 10.3947 24.4254 11.5998 24.4254C12.8051 24.4254 13.8147 23.5825 14.0765 22.4562H22.9326C23.1947 23.5825 24.2046 24.4254 25.4093 24.4254C26.6141 24.4254 27.6242 23.5825 27.886 22.4562H29.4372C29.6916 22.4562 29.8973 22.2502 29.8973 21.9958V16.8722C29.8973 16.7827 29.8713 16.695 29.8225 16.6204ZM4.06585 9.03541C4.06585 7.0552 5.67704 5.44401 7.65725 5.44401C9.63772 5.44401 11.2487 7.0552 11.2487 9.03541C11.2487 11.0156 9.63772 12.6268 7.65725 12.6268C5.67704 12.6268 4.06585 11.0156 4.06585 9.03541ZM6.88155 17.3927H7.80212C8.05656 17.3927 8.26253 17.1867 8.26253 16.9323C8.26253 16.6778 8.05656 16.4719 7.80212 16.4719H6.88155V15.5513H10.1039C10.3581 15.5513 10.5641 15.3456 10.5641 15.0911C10.5641 14.8367 10.3581 14.6307 10.1039 14.6307H6.88155V13.7102H12.8656C13.1198 13.7102 13.3261 13.5042 13.3261 13.2497C13.3261 12.9953 13.1198 12.7893 12.8656 12.7893H10.1556C11.3495 11.992 12.1416 10.6413 12.1658 9.10679H19.1935C20.0192 9.10679 20.6911 9.77897 20.6911 10.6047V19.2338H6.88734C6.8855 19.2338 6.88366 19.2344 6.88155 19.2344V17.3927ZM20.6911 21.5354H14.1183C14.0459 21.006 13.811 20.5287 13.4641 20.1544H20.6911V21.5354ZM6.88734 20.1544H9.73544C9.38881 20.5287 9.1536 21.006 9.08143 21.5354H5.50057C5.50373 20.7736 6.12481 20.1544 6.88734 20.1544ZM11.5998 23.5048C10.7045 23.5048 9.97566 22.7762 9.97566 21.8807C9.97566 20.9854 10.7045 20.2566 11.5998 20.2566C12.4953 20.2566 13.2239 20.9854 13.2239 21.8807C13.2239 22.7762 12.4953 23.5048 11.5998 23.5048ZM25.4093 23.5048C24.5141 23.5048 23.7852 22.7762 23.7852 21.8807C23.7852 20.9854 24.5141 20.2566 25.4093 20.2566C26.3049 20.2566 27.0334 20.9854 27.0334 21.8807C27.0334 22.7762 26.3049 23.5048 25.4093 23.5048ZM28.9768 21.5354H27.9279C27.7586 20.2956 26.695 19.336 25.4093 19.336C24.1237 19.336 23.0604 20.2956 22.8907 21.5354H21.6117V13.7102H25.408C26.2928 13.7102 27.1064 14.1466 27.5842 14.8778L28.9768 17.0092V21.5354Z" fill="#202020"/>
<path d="M26.1623 21.88C26.1623 22.2959 25.8252 22.6331 25.4093 22.6331C24.9934 22.6331 24.6562 22.2959 24.6562 21.88C24.6562 21.4641 24.9934 21.127 25.4093 21.127C25.8252 21.127 26.1623 21.4641 26.1623 21.88Z" fill="#202020"/>
<path d="M12.3528 21.88C12.3528 22.2959 12.0156 22.6331 11.5997 22.6331C11.1841 22.6331 10.8469 22.2959 10.8469 21.88C10.8469 21.4641 11.1841 21.127 11.5997 21.127C12.0156 21.127 12.3528 21.4641 12.3528 21.88Z" fill="#202020"/>
<path d="M8.26256 9.03462V7.0207C8.26256 6.76626 8.05659 6.56055 7.80215 6.56055C7.54797 6.56055 7.342 6.76626 7.342 7.0207V8.88449L6.40246 10.1733C6.25259 10.3787 6.29763 10.6664 6.50308 10.816C6.58526 10.876 6.68008 10.9047 6.77411 10.9047C6.91608 10.9047 7.05621 10.8391 7.14629 10.7154L8.17433 9.30566C8.23148 9.22717 8.26256 9.13234 8.26256 9.03462Z" fill="#202020"/>
<path d="M25.2543 14.1699H24.3737C24.1193 14.1699 23.9133 14.3759 23.9133 14.6303V17.8525C23.9133 18.1069 24.1193 18.3129 24.3737 18.3129H27.4718C27.7605 18.3129 28.0189 18.1635 28.1637 17.9141C28.3086 17.6647 28.3089 17.366 28.1661 17.1171L27.0912 15.2356C26.7159 14.5787 26.0118 14.1699 25.2543 14.1699ZM24.8342 17.3923V15.0908H25.2543C25.6823 15.0908 26.0798 15.3212 26.2918 15.6926L27.2629 17.3923H24.8342Z" fill="#202020"/>
</g>
<defs>
<clipPath id="clip0_518_8519">
<rect width="29" height="29" fill="white" transform="translate(0.897461)"/>
</clipPath>
</defs>
</svg>
