<svg width="69" height="69" viewBox="0 0 69 69" fill="none" xmlns="http://www.w3.org/2000/svg">
<path d="M57.3526 24.2346C56.6736 23.1256 55.4556 22.4366 54.1706 22.4366H44.5336V16.7486C44.5336 15.4836 43.5046 14.4556 42.2396 14.4556H7.35156C6.08656 14.4556 5.05756 15.4846 5.05756 16.7486V49.1896C5.05756 50.4546 6.08656 51.4826 7.35156 51.4826H12.4976C12.9776 54.3526 15.4726 56.5496 18.4766 56.5496C21.4806 56.5496 23.9756 54.3526 24.4556 51.4826H46.9416C47.4216 54.3526 49.9166 56.5496 52.9206 56.5496C55.9246 56.5496 58.4196 54.3526 58.8996 51.4826H61.3166C63.3806 51.4826 65.0596 49.8036 65.0596 47.7396V37.8266C65.0596 37.1776 64.8686 36.5106 64.4976 35.8806L57.3536 24.2346H57.3526ZM62.2036 35.9686H50.4216C50.2946 35.9686 50.1876 35.8616 50.1876 35.7346V28.4586H57.5976L62.2036 35.9686ZM7.05756 49.1896V16.7486C7.05756 16.5866 7.18956 16.4556 7.35156 16.4556H42.2406C42.4026 16.4556 42.5346 16.5876 42.5346 16.7486V49.4826H24.4546C23.9766 46.6106 21.4806 44.4126 18.4756 44.4126C15.4706 44.4126 12.9746 46.6106 12.4966 49.4826H7.35156C7.18956 49.4826 7.05756 49.3506 7.05756 49.1896ZM18.4756 54.5496C16.2336 54.5496 14.4106 52.7266 14.4076 50.4856C14.4076 50.4856 14.4076 50.4836 14.4076 50.4826C14.4076 50.4816 14.4076 50.4796 14.4076 50.4786C14.4076 48.2366 16.2336 46.4126 18.4756 46.4126C20.7176 46.4126 22.5436 48.2376 22.5436 50.4806C22.5436 52.7236 20.7186 54.5496 18.4756 54.5496ZM52.9186 54.5496C50.6816 54.5496 48.8616 52.7336 48.8516 50.4986C48.8516 50.4936 48.8546 50.4886 48.8546 50.4826C48.8546 50.4766 48.8516 50.4716 48.8516 50.4656C48.8596 48.2296 50.6806 46.4116 52.9186 46.4116C55.1566 46.4116 56.9626 48.2166 56.9836 50.4426C56.9836 50.4566 56.9756 50.4676 56.9756 50.4816C56.9756 50.4946 56.9826 50.5066 56.9836 50.5196C56.9616 52.7446 55.1486 54.5486 52.9196 54.5486L52.9186 54.5496ZM61.3146 49.4826H58.8976C58.4196 46.6106 55.9236 44.4126 52.9186 44.4126C49.9136 44.4126 47.4176 46.6106 46.9396 49.4826H44.5336V24.4376H54.1706C54.7636 24.4376 55.3286 24.7606 55.6476 25.2806L56.3716 26.4606H49.7506C48.8896 26.4606 48.1886 27.1616 48.1886 28.0226V35.7356C48.1886 36.9676 49.1906 37.9696 50.4226 37.9696H63.0586V47.7406C63.0586 48.7016 62.2766 49.4836 61.3156 49.4836L61.3146 49.4826Z" fill="#2B2B2B"/>
<path d="M12.4285 32.6233H15.6965C16.2495 32.6233 16.6965 32.1753 16.6965 31.6233C16.6965 31.0713 16.2495 30.6233 15.6965 30.6233H12.4285V28.9023H16.0365C16.5895 28.9023 17.0365 28.4543 17.0365 27.9023C17.0365 27.3503 16.5895 26.9023 16.0365 26.9023H11.4285C10.8755 26.9023 10.4285 27.3503 10.4285 27.9023V35.3433C10.4285 35.8953 10.8755 36.3433 11.4285 36.3433C11.9815 36.3433 12.4285 35.8953 12.4285 35.3433V32.6223V32.6233Z" fill="#2B2B2B"/>
<path d="M26.4426 36.3434H31.0506C31.6036 36.3434 32.0506 35.8954 32.0506 35.3434C32.0506 34.7914 31.6036 34.3434 31.0506 34.3434H27.4426V32.6224H30.1696C30.7226 32.6224 31.1696 32.1744 31.1696 31.6224C31.1696 31.0704 30.7226 30.6224 30.1696 30.6224H27.4426V28.9014H31.0506C31.6036 28.9014 32.0506 28.4534 32.0506 27.9014C32.0506 27.3494 31.6036 26.9014 31.0506 26.9014H26.4426C25.8896 26.9014 25.4426 27.3494 25.4426 27.9014V35.3424C25.4426 35.8944 25.8896 36.3434 26.4426 36.3434Z" fill="#2B2B2B"/>
<path d="M18.9355 36.3433C19.4885 36.3433 19.9355 35.8953 19.9355 35.3433V32.6223H20.6825L22.6935 35.8693C22.8825 36.1753 23.2105 36.3433 23.5455 36.3433C23.7255 36.3433 23.9065 36.2953 24.0705 36.1933C24.5405 35.9023 24.6845 35.2863 24.3945 34.8173L22.8865 32.3833C23.8625 31.9483 24.5435 30.9693 24.5435 29.8343V29.6913C24.5435 28.1533 23.2925 26.9023 21.7545 26.9023H18.9355C18.3825 26.9023 17.9355 27.3503 17.9355 27.9023V35.3433C17.9355 35.8953 18.3825 36.3433 18.9355 36.3433ZM19.9355 28.9023H21.7545C22.1905 28.9023 22.5435 29.2563 22.5435 29.6913V29.8343C22.5435 30.2693 22.1895 30.6233 21.7545 30.6233H19.9355V28.9023Z" fill="#2B2B2B"/>
<path d="M33.9496 36.3434H38.5576C39.1106 36.3434 39.5576 35.8954 39.5576 35.3434C39.5576 34.7914 39.1106 34.3434 38.5576 34.3434H34.9496V32.6224H37.6766C38.2296 32.6224 38.6766 32.1744 38.6766 31.6224C38.6766 31.0704 38.2296 30.6224 37.6766 30.6224H34.9496V28.9014H38.5576C39.1106 28.9014 39.5576 28.4534 39.5576 27.9014C39.5576 27.3494 39.1106 26.9014 38.5576 26.9014H33.9496C33.3966 26.9014 32.9496 27.3494 32.9496 27.9014V35.3424C32.9496 35.8944 33.3966 36.3434 33.9496 36.3434Z" fill="#2B2B2B"/>
</svg>
