<svg width="20" height="20" viewBox="0 0 20 20" fill="none" xmlns="http://www.w3.org/2000/svg">
<path d="M15.6497 5.73746H12.2721V3.89376C12.2721 3.60241 12.0359 3.36621 11.7445 3.36621H1.52755C1.2362 3.36621 1 3.60241 1 3.89376V14.5061C1 14.7974 1.2362 15.0336 1.52755 15.0336H2.82966C3.06495 15.9525 3.89989 16.6338 4.89109 16.6338C5.88229 16.6338 6.71723 15.9525 6.95252 15.0336H11.7446C11.7487 15.0336 11.7528 15.0331 11.7569 15.033C11.7611 15.0331 11.7651 15.0336 11.7693 15.0336H13.0403C13.2756 15.9525 14.1105 16.6338 15.1017 16.6338C16.0929 16.6338 16.9278 15.9525 17.1631 15.0336H18.4724C18.7638 15.0336 19 14.7974 19 14.5061V9.08766C18.9999 7.24035 17.497 5.73746 15.6497 5.73746ZM17.9448 9.08766V10.3016H14.7588V6.79256H15.6497C16.9152 6.79256 17.9448 7.82213 17.9448 9.08766ZM5.37303 4.42132H7.89902V7.58656L6.78511 7.25836C6.68776 7.22973 6.58425 7.22973 6.4869 7.25836L5.37299 7.58656L5.37303 4.42132ZM4.89105 15.5787C4.29963 15.5787 3.81847 15.0975 3.81847 14.5061C3.81847 13.9147 4.29963 13.4335 4.89105 13.4335C5.48248 13.4335 5.96364 13.9147 5.96364 14.5061C5.96364 15.0975 5.48248 15.5787 4.89105 15.5787ZM11.217 13.9785H6.95248C6.7172 13.0597 5.88226 12.3784 4.89105 12.3784C3.89985 12.3784 3.06491 13.0597 2.82962 13.9785H2.05511V4.42132H4.31792V8.29197C4.31792 8.45829 4.39632 8.61487 4.52954 8.71447C4.66273 8.81404 4.83506 8.84506 4.9946 8.79804L6.63606 8.31441L8.27752 8.79804C8.32651 8.81246 8.37667 8.81952 8.42657 8.81952C8.53919 8.81952 8.65029 8.78347 8.74254 8.71447C8.87573 8.61487 8.95416 8.45829 8.95416 8.29197V4.42132H11.217V13.9785ZM15.1017 15.5787C14.5102 15.5787 14.0291 15.0975 14.0291 14.5061C14.0291 13.9147 14.5102 13.4335 15.1017 13.4335C15.6931 13.4335 16.1742 13.9147 16.1742 14.5061C16.1742 15.0975 15.6931 15.5787 15.1017 15.5787ZM17.1631 13.9785C16.9278 13.0597 16.0929 12.3784 15.1017 12.3784C14.1105 12.3784 13.2755 13.0597 13.0402 13.9785H12.272V6.79256H13.7036V10.8291C13.7036 11.1205 13.9398 11.3567 14.2312 11.3567H17.9448V12.0462H17.8016C17.5102 12.0462 17.274 12.2824 17.274 12.5737C17.274 12.8651 17.5102 13.1013 17.8016 13.1013H17.9448V13.9785H17.1631Z" fill="#2B2B2B"/>
</svg>
