<svg width="69" height="69" viewBox="0 0 69 69" fill="none" xmlns="http://www.w3.org/2000/svg">
<path d="M63.8975 29.6315C63.7293 27.2129 63.425 24.8057 62.986 22.4213C62.9337 22.1401 62.8167 21.875 62.6442 21.6469C62.4718 21.4188 62.2486 21.2339 61.9924 21.1069C61.7362 20.9799 61.454 20.9142 61.168 20.915C60.8821 20.9159 60.6002 20.9833 60.3448 21.1118C58.4925 22.0233 57.0399 23.5839 56.2634 25.4967C55.5595 27.3187 55.5223 29.3309 56.1586 31.1776C56.2973 31.5771 56.2874 32.0133 56.1306 32.4061L55.0913 34.9136C54.27 35.0129 53.502 35.3726 52.9001 35.9401L48.6496 39.9702C48.4981 40.1157 48.2991 40.2016 48.0893 40.212C46.751 40.2682 45.4394 40.604 44.2388 41.1977C43.1791 41.7256 42.2281 42.4478 41.4352 43.3268C39.8319 45.0922 38.9442 47.3918 38.9455 49.7766V55.2047C38.4124 55.2439 37.9137 55.4829 37.5492 55.8739C37.1847 56.2649 36.9814 56.7791 36.9797 57.3137V61.932C36.9804 62.4954 37.2045 63.0355 37.6028 63.4339C38.0012 63.8323 38.5413 64.0564 39.1047 64.057H52.9961C53.5594 64.0564 54.0996 63.8323 54.4979 63.4339C54.8963 63.0355 55.1204 62.4954 55.1211 61.932V57.3136C55.1204 56.7502 54.8963 56.2101 54.4979 55.8117C54.0996 55.4134 53.5594 55.1893 52.9961 55.1886H52.7937L52.7948 55.1533C52.8074 54.7109 52.9912 54.2906 53.3074 53.9809L61.9365 45.513C62.805 44.6569 63.362 43.5348 63.5189 42.3255C64.0618 38.1169 64.1886 33.865 63.8975 29.6315ZM52.9961 61.932H39.1047V57.3136L52.996 57.3126L52.9961 61.932ZM61.4115 42.0537C61.3161 42.7905 60.977 43.4743 60.4481 43.996L51.8189 52.4639C51.1098 53.1579 50.6982 54.1003 50.6708 55.0921L50.668 55.1886H41.0704V49.7765C41.0694 47.9196 41.7606 46.129 43.0092 44.7545C43.6241 44.0718 44.3618 43.5108 45.184 43.1006C46.121 42.6386 47.1444 42.3777 48.1883 42.3349C48.9075 42.3001 49.5902 42.0081 50.112 41.512L54.362 37.482C54.6151 37.2428 54.9334 37.084 55.2767 37.0254C55.6199 36.9669 55.9729 37.0113 56.2909 37.1531C56.4428 37.2212 56.5706 37.3337 56.6575 37.4757C56.7444 37.6177 56.7865 37.7826 56.7781 37.9489C56.778 38.4391 56.5984 38.9123 56.2733 39.2791L50.9706 45.2661C50.8775 45.3704 50.8059 45.4921 50.7599 45.6242C50.7139 45.7563 50.6945 45.8962 50.7027 46.0358C50.7109 46.1754 50.7466 46.312 50.8077 46.4378C50.8688 46.5636 50.9541 46.6761 51.0588 46.7689C51.1635 46.8616 51.2855 46.9328 51.4177 46.9783C51.55 47.0237 51.6899 47.0427 51.8295 47.034C51.9691 47.0253 52.1056 46.9891 52.2312 46.9275C52.3567 46.8659 52.4689 46.7802 52.5613 46.6751L57.8644 40.6882C58.5434 39.9159 58.9133 38.9201 58.9031 37.8919C58.9014 37.3424 58.7452 36.8045 58.4523 36.3396C58.1595 35.8747 57.7418 35.5015 57.2469 35.2627L58.0943 33.2185C58.4464 32.3532 58.475 31.3899 58.1747 30.5052C57.6919 29.1531 57.7078 27.673 58.2194 26.3315C58.731 24.9901 59.7047 23.8753 60.9653 23.1881C61.3528 25.369 61.624 27.5691 61.7777 29.7789C62.0592 33.8726 61.9365 37.984 61.4115 42.0537Z" fill="#2B2B2B"/>
<path d="M30.2099 55.2048V50.1045C30.2425 47.449 29.2276 44.8876 27.385 42.9751C26.6641 42.2524 25.8302 41.652 24.916 41.1977C23.7193 40.6065 22.4125 40.2712 21.079 40.213C20.8752 40.2076 20.68 40.1296 20.5286 39.9931L16.2552 35.9402C15.654 35.3723 14.886 35.013 14.0647 34.9156L13.0251 32.4072C12.868 32.0141 12.8578 31.5776 12.9966 31.1777C13.6329 29.331 13.5958 27.3188 12.8918 25.4968C12.115 23.5835 10.6618 22.0225 8.80886 21.1109C8.5534 20.9827 8.27165 20.9157 7.98584 20.915C7.70003 20.9144 7.41799 20.9803 7.16199 21.1074C6.90599 21.2345 6.68304 21.4193 6.51075 21.6474C6.33845 21.8754 6.22153 22.1404 6.16922 22.4214C4.95837 28.9881 4.77861 35.7035 5.6364 42.3256C5.79325 43.5351 6.35048 44.6572 7.21926 45.5131L15.8474 53.9809C16.1637 54.2902 16.3477 54.7102 16.3605 55.1524L16.3616 55.1887H16.1592C15.5958 55.1894 15.0557 55.4134 14.6573 55.8118C14.2589 56.2102 14.0348 56.7503 14.0342 57.3137V61.9321C14.0348 62.4954 14.2589 63.0356 14.6573 63.434C15.0557 63.8323 15.5958 64.0564 16.1592 64.0571H30.0506C30.614 64.0564 31.1541 63.8323 31.5525 63.434C31.9509 63.0356 32.1749 62.4954 32.1756 61.9321V57.3137C32.174 56.7792 31.9706 56.265 31.6061 55.8739C31.2416 55.4829 30.743 55.2439 30.2099 55.2048ZM18.4845 55.0912C18.4569 54.0996 18.045 53.1576 17.3359 52.464L8.70773 43.9962C8.17847 43.4746 7.83911 42.7908 7.7438 42.0538C6.93091 35.7792 7.08137 29.4173 8.18996 23.1882C9.42685 23.8709 10.3891 24.9609 10.9132 26.273C11.4338 27.6317 11.4577 29.1307 10.9806 30.5053C10.6802 31.3904 10.7089 32.3541 11.0615 33.2197L11.9078 35.2613C11.4054 35.5062 10.983 35.889 10.6899 36.3649C10.3968 36.8408 10.245 37.3902 10.2522 37.949C10.252 38.9581 10.6215 39.9322 11.2908 40.6873L16.594 46.6752C16.6864 46.7803 16.7985 46.866 16.9241 46.9276C17.0497 46.9892 17.1862 47.0254 17.3258 47.0341C17.4654 47.0428 17.6053 47.0239 17.7375 46.9784C17.8698 46.9329 17.9918 46.8617 18.0965 46.769C18.2011 46.6762 18.2865 46.5637 18.3476 46.4379C18.4087 46.3121 18.4444 46.1755 18.4526 46.0359C18.4608 45.8963 18.4413 45.7564 18.3954 45.6243C18.3494 45.4922 18.2778 45.3705 18.1846 45.2662L12.8815 39.2782C12.5466 38.895 12.3668 38.4007 12.3772 37.892C12.3784 37.7306 12.4275 37.5733 12.5183 37.4399C12.6091 37.3065 12.7375 37.2031 12.8872 37.1428C13.2032 37.0064 13.5523 36.9658 13.8912 37.0261C14.2301 37.0864 14.5438 37.245 14.7933 37.4821L19.0676 41.536C19.5883 42.0224 20.266 42.3063 20.9779 42.336C22.0181 42.3803 23.0378 42.6407 23.9719 43.1007C24.6792 43.453 25.3246 43.9181 25.8826 44.4776C27.3276 45.9909 28.1188 48.0123 28.0849 50.1045V55.1887H18.4873L18.4845 55.0912ZM30.0506 61.9321H16.1592V57.3137H30.0506V61.9321Z" fill="#2B2B2B"/>
<path d="M34.5792 35.8053C34.3603 35.8056 34.1437 35.7618 33.9421 35.6766C32.3174 34.9635 30.7803 34.0656 29.3611 33.0007C20.7049 26.8135 20.8741 14.3634 20.9467 9.04669L20.9566 8.17616C20.9587 7.84043 21.0648 7.51361 21.2602 7.24066C21.4557 6.9677 21.731 6.76203 22.0481 6.65193C26.0808 5.27412 30.3109 4.56166 34.5724 4.54248C38.8364 4.56049 43.0689 5.27261 47.104 6.65087C47.4219 6.76064 47.6978 6.96628 47.8939 7.23946C48.0899 7.51264 48.1964 7.8399 48.1987 8.17615L48.2085 9.04668C48.2812 14.3633 48.4503 26.8135 39.7942 33.0007C38.375 34.0656 36.8378 34.9635 35.2132 35.6766C35.0126 35.7616 34.797 35.8054 34.5792 35.8053ZM23.0774 8.54761L23.0712 9.07574C23.0037 14.0593 22.845 25.7313 30.5969 31.272C31.834 32.2028 33.1688 32.9961 34.5776 33.6378C35.9863 32.9957 37.3211 32.2025 38.5584 31.2721C46.3103 25.7313 46.1515 14.0594 46.0841 9.0758L46.0778 8.54766C42.3655 7.31963 38.4826 6.6851 34.5724 6.66747C30.6658 6.68619 26.7865 7.3207 23.0774 8.54761Z" fill="#2B2B2B"/>
<path d="M32.5507 23.124C32.3473 23.1233 32.1464 23.0784 31.962 22.9924C31.7777 22.9064 31.6142 22.7814 31.483 22.626L28.6296 19.2901C28.4474 19.0758 28.3575 18.7981 28.3797 18.5177C28.4019 18.2374 28.5343 17.9772 28.748 17.7943C28.9617 17.6114 29.2391 17.5207 29.5195 17.542C29.8 17.5633 30.0605 17.6949 30.2441 17.908L32.5486 20.6026L38.9086 13.1164C39.091 12.9016 39.3513 12.7681 39.6322 12.7452C39.9131 12.7223 40.1916 12.812 40.4063 12.9944C40.6211 13.1769 40.7546 13.4372 40.7775 13.7181C40.8004 13.999 40.7107 14.2774 40.5283 14.4922L33.6209 22.6228C33.4901 22.7788 33.3268 22.9044 33.1425 22.9909C32.9583 23.0775 32.7574 23.1229 32.5538 23.124H32.5507Z" fill="#2B2B2B"/>
</svg>
