<svg width="70" height="70" viewBox="0 0 70 70" fill="none" xmlns="http://www.w3.org/2000/svg">
<path d="M11.1884 46.2028C13.1251 47.9352 15.3213 49.309 17.6751 50.3415L30.0534 42.5686C32.6142 40.9528 36.0443 41.3348 38.188 43.4903L42.3501 47.6523C48.5888 43.0527 52.5001 35.694 52.5001 27.7082C52.5001 14.0378 41.3788 2.9165 27.7084 2.9165C14.038 2.9165 2.91675 14.0378 2.91675 27.7082C2.91675 34.7636 5.92966 41.504 11.1884 46.2028ZM28.8167 29.8957H26.6001C23.1905 29.8957 20.4167 27.1219 20.4167 23.7123C20.4167 20.6469 22.6276 18.124 25.5209 17.6107V15.3123C25.5209 14.1048 26.5009 13.1248 27.7084 13.1248C28.9159 13.1248 29.8959 14.1048 29.8959 15.3123V17.4998H32.8126C34.0201 17.4998 35.0001 18.4798 35.0001 19.6873C35.0001 20.8948 34.0201 21.8748 32.8126 21.8748H26.6001C25.6026 21.8748 24.7917 22.6857 24.7917 23.6832C24.7917 24.7098 25.6026 25.5207 26.6001 25.5207H28.8167C32.2263 25.5207 35.0001 28.2944 35.0001 31.704C35.0001 34.7694 32.7892 37.2923 29.8959 37.8057V40.1011C29.8959 41.3086 28.9159 42.2886 27.7084 42.2886C26.5009 42.2886 25.5209 41.3086 25.5209 40.1011V37.9165H22.6042C21.3967 37.9165 20.4167 36.9365 20.4167 35.729C20.4167 34.5215 21.3967 33.5415 22.6042 33.5415H28.8167C29.8142 33.5415 30.6251 32.7307 30.6251 31.7332C30.6251 30.7065 29.8142 29.8957 28.8167 29.8957Z" fill="#323334"/>
<path d="M67.0833 35H55.4166C54.2382 35 53.1707 35.7117 52.7216 36.7996C52.2695 37.8904 52.5203 39.1446 53.3545 39.9787L57.1258 43.75L45.2082 55.6675L35.6037 46.0629C34.6499 45.1033 33.1507 44.9371 32.0074 45.6458L1.38242 64.6042C0.0115819 65.4529 -0.408418 67.2496 0.437415 68.6175C0.988665 69.51 1.94242 70 2.9195 70C3.4445 70 3.97242 69.86 4.45075 69.5625L33.1099 51.8204L43.1432 61.8538C44.2837 62.9942 46.127 62.9942 47.2674 61.8538L61.2499 47.8742L65.0212 51.6454C65.5782 52.2025 66.3249 52.5 67.0833 52.5C67.4595 52.5 67.8387 52.4271 68.2003 52.2783C69.2912 51.8263 69.9999 50.7617 69.9999 49.5833V37.9167C69.9999 36.3067 68.6962 35 67.0833 35Z" fill="#323334"/>
</svg>
