<svg width="70" height="70" viewBox="0 0 70 70" fill="none" xmlns="http://www.w3.org/2000/svg">
<g clip-path="url(#clip0_1067_2666)">
<path fill-rule="evenodd" clip-rule="evenodd" d="M66.8107 5.64416C68.4213 9.22697 67.756 13.584 64.8134 16.5266C61.8419 19.4981 57.4282 20.1472 53.8255 18.4757C53.7651 18.4476 53.697 18.4597 53.6499 18.5068L50.6336 21.5231C50.603 21.5537 50.5657 21.5689 50.5227 21.5686C50.4795 21.5684 50.4424 21.5526 50.4124 21.5217L48.5477 19.6117C48.5173 19.5806 48.4798 19.5647 48.4362 19.5647C46.8864 19.5647 45.3368 19.5647 43.7869 19.5647C43.7226 19.5647 43.6677 19.5281 43.6432 19.4688C43.6187 19.4094 43.6314 19.3446 43.6769 19.2993L49.0596 13.9166C49.1067 13.8695 49.1186 13.8015 49.0907 13.7411C47.4191 10.1385 48.0682 5.72483 51.0398 2.75328C53.9824 -0.189305 58.3392 -0.854585 61.9222 0.75584C61.9704 0.777519 62.0018 0.817855 62.0114 0.869741C62.021 0.921627 62.0057 0.97067 61.9684 1.00799L55.1786 7.79779C55.118 7.85838 55.118 7.95718 55.1786 8.01777L59.5488 12.3879C59.6094 12.4485 59.7082 12.4485 59.7687 12.3879L66.5584 5.59813C66.5957 5.56082 66.6447 5.54554 66.6966 5.55513C66.7487 5.56437 66.789 5.596 66.8107 5.64416ZM25.7016 33.827H12.6526C12.5952 33.827 12.546 33.8557 12.5175 33.9054C12.4891 33.9552 12.4893 34.012 12.5184 34.0614C19.917 46.6682 26.7853 57.6099 34.8696 70.0283C34.8991 70.0738 34.9458 70.099 35 70.099C35.0542 70.099 35.101 70.0738 35.1305 70.0283C43.2148 57.6099 50.0831 46.668 57.4817 34.0614C57.5106 34.012 57.511 33.9552 57.4826 33.9054C57.4541 33.8557 57.4049 33.827 57.3475 33.827H44.2985C44.2264 33.827 44.1652 33.8745 44.1476 33.9447L36.2217 65.384C36.2012 65.4653 36.1197 65.5158 36.0378 65.498C35.9555 65.4803 35.9024 65.4001 35.9178 65.3175L41.7667 34.0115C41.7754 33.9644 41.7641 33.9203 41.7335 33.8835C41.703 33.8468 41.6617 33.8274 41.6139 33.8274H28.3867C28.3387 33.8274 28.2977 33.8468 28.2669 33.8835C28.2364 33.9203 28.2248 33.9644 28.2337 34.0115L34.0826 65.3175C34.0981 65.4001 34.0449 65.4801 33.9629 65.498C33.8808 65.516 33.7994 65.4655 33.7788 65.384L25.8524 33.9447C25.8349 33.8745 25.7739 33.827 25.7016 33.827ZM45.1704 31.4925H56.5159C56.5799 31.4925 56.6344 31.4563 56.6593 31.3973C56.6842 31.3383 56.6719 31.274 56.6273 31.2281L48.5875 22.9937C48.5496 22.9549 48.499 22.9393 48.4458 22.9498C48.3927 22.9603 48.3518 22.9942 48.3318 23.0445L45.0262 31.2789C45.0063 31.3283 45.0118 31.3799 45.0416 31.4241C45.0713 31.4682 45.1171 31.4925 45.1704 31.4925ZM23.8033 22.1125C23.7834 22.0631 23.7889 22.0116 23.8188 21.9673C23.8486 21.9233 23.8945 21.8989 23.9476 21.8989H46.0522C46.1055 21.8989 46.1511 21.9233 46.181 21.9673C46.2108 22.0114 46.2163 22.0629 46.1964 22.1125L42.4702 31.3948C42.4461 31.455 42.3908 31.4923 42.3258 31.4923H27.6736C27.6088 31.4923 27.5533 31.4549 27.5291 31.3948L23.8033 22.1125ZM13.4842 31.4925H24.8296C24.883 31.4925 24.9286 31.4682 24.9585 31.4241C24.9883 31.38 24.9938 31.3285 24.9739 31.2789L21.6683 23.0445C21.6481 22.9942 21.6074 22.9604 21.5542 22.9498C21.5011 22.9393 21.4505 22.9549 21.4126 22.9937L13.3728 31.2281C13.3282 31.2738 13.3159 31.3383 13.3408 31.3973C13.3657 31.4563 13.4202 31.4925 13.4842 31.4925ZM8.07788 0.755663C11.6607 -0.85494 16.0177 -0.18966 18.9603 2.75292C21.9318 5.72447 22.581 10.1384 20.9094 13.7409C20.8813 13.8013 20.8934 13.8694 20.9405 13.9164L26.3232 19.2991C26.3686 19.3446 26.3814 19.4093 26.3569 19.4686C26.3324 19.528 26.2775 19.5646 26.2132 19.5646C24.6635 19.5646 23.1137 19.5646 21.564 19.5646C21.5205 19.5646 21.483 19.5804 21.4526 19.6115L19.5879 21.5215C19.5577 21.5524 19.5207 21.5681 19.4776 21.5684C19.4344 21.5686 19.3971 21.5533 19.3667 21.5229L16.3503 18.5066C16.3033 18.4595 16.2352 18.4476 16.1748 18.4755C12.5723 20.147 8.15855 19.4979 5.18701 16.5264C2.24442 13.5838 1.57914 9.22697 3.18975 5.64398C3.21142 5.59582 3.25176 5.56437 3.30365 5.55478C3.35553 5.54518 3.40457 5.56046 3.44189 5.59778L10.2317 12.3876C10.2923 12.4482 10.3911 12.4482 10.4517 12.3876L14.8218 8.01741C14.8824 7.95682 14.8824 7.85802 14.8218 7.79743L8.03168 1.00763C7.99437 0.970315 7.97908 0.921272 7.98868 0.869386C7.99828 0.8175 8.02991 0.777164 8.07788 0.755663ZM53.1865 46.1623L67.5556 60.5314C67.6162 60.5919 67.6162 60.6907 67.5556 60.7513L63.1854 65.1215C63.1248 65.1821 63.026 65.1821 62.9654 65.1215L49.6396 51.7956C49.5879 51.7439 49.5788 51.6659 49.6174 51.6037C50.7327 49.8039 51.8417 47.9998 52.9439 46.1912C52.9695 46.1491 53.0093 46.1235 53.0584 46.1177C53.1069 46.112 53.1515 46.1274 53.1865 46.1623ZM20.3609 51.7956L7.03501 65.1215C6.97441 65.1821 6.87562 65.1821 6.81502 65.1215L2.44486 60.7513C2.38427 60.6907 2.38427 60.5919 2.44486 60.5314L16.8139 46.1623C16.8488 46.1274 16.8934 46.112 16.9424 46.1178C16.9915 46.1237 17.0311 46.1493 17.0569 46.1914C18.1591 48 19.2681 49.8039 20.3834 51.6039C20.4216 51.6659 20.4126 51.7439 20.3609 51.7956Z" fill="#323334"/>
</g>
<defs>
<clipPath id="clip0_1067_2666">
<rect width="70" height="70" fill="white"/>
</clipPath>
</defs>
</svg>
