<svg width="70" height="70" viewBox="0 0 70 70" fill="none" xmlns="http://www.w3.org/2000/svg">
<path d="M46.7295 17.1139C47.5304 17.9148 48.8288 17.9148 49.6297 17.1139C50.4306 16.3132 50.4306 15.0146 49.6297 14.2137L48.7373 13.3213H59.3084V26.6469C59.4093 29.365 63.31 29.363 63.41 26.6469V11.2707C63.41 10.1381 62.4918 9.21991 61.3592 9.21991H48.7373L49.6297 8.32755C50.4306 7.52679 50.4306 6.22823 49.6297 5.42733C48.8288 4.62644 47.5304 4.62644 46.7295 5.42733L42.3363 9.82052C41.5354 10.6213 41.5354 11.92 42.3363 12.7207L46.7295 17.1139Z" fill="#323334"/>
<path d="M18.5254 0.433594C8.31045 0.433594 0 8.74404 0 18.959C0.931328 43.5016 36.1231 43.4949 37.0508 18.9587C37.0508 8.74404 28.7403 0.433594 18.5254 0.433594ZM20.5762 27.8122V28.2946C20.4753 31.0127 16.5746 31.0106 16.4746 28.2946V27.8152C15.5405 27.5027 14.6843 26.9771 13.968 26.26C13.1677 25.4587 13.1683 24.1602 13.9696 23.3598C14.7711 22.5595 16.0694 22.5602 16.8699 23.3615C18.1832 24.7091 20.5358 23.9392 20.8325 22.111C20.2187 21.7218 18.7664 21.2151 17.8499 20.8953C15.3053 20.0075 12.0814 18.9501 12.0814 16.2131C12.0814 13.3769 13.9241 10.9644 16.4746 10.1056V9.62328C16.5755 6.90518 20.4762 6.90723 20.5762 9.62328V10.1026C21.5102 10.4152 22.3665 10.9407 23.0828 11.6578C23.8831 12.4591 23.8824 13.7577 23.0811 14.558C22.2797 15.3584 20.9814 15.3577 20.1809 14.5564C18.8676 13.2087 16.5149 13.9786 16.2183 15.8068C16.8321 16.196 18.2844 16.7027 19.2009 17.0225C21.7455 17.9104 24.9694 18.9677 24.9694 21.7047C24.9694 24.5411 23.1267 26.9535 20.5762 27.8122Z" fill="#323334"/>
<path d="M23.2705 53.7529C22.4696 52.952 21.1712 52.952 20.3703 53.7529C19.5694 54.5537 19.5694 55.8522 20.3703 56.6531L21.2626 57.5455H10.6914V44.2199C10.5905 41.5018 6.68979 41.5039 6.58984 44.2199V59.5963C6.58984 60.7289 7.50805 61.6471 8.64062 61.6471H21.2625L20.3701 62.5394C19.5692 63.3402 19.5692 64.6387 20.3701 65.4396C21.171 66.2405 22.4695 66.2405 23.2704 65.4396L27.6635 61.0465C28.4644 60.2457 28.4644 58.947 27.6635 58.1462L23.2705 53.7529Z" fill="#323334"/>
<path d="M52.5 28.5604C51.8654 28.194 51.0839 28.194 50.4492 28.5604L35 37.4798L51.4746 46.9915L67.9492 37.48L52.5 28.5604Z" fill="#323334"/>
<path d="M53.5254 50.5439V69.5669L68.9746 60.6475C69.6091 60.2811 70 59.6042 70 58.8716V41.0322L53.5254 50.5439Z" fill="#323334"/>
<path d="M32.9492 58.8716C32.9492 59.6042 33.3401 60.2813 33.9746 60.6475L49.4238 69.5669V50.5439L32.9492 41.0322V58.8716Z" fill="#323334"/>
</svg>
