<svg width="270" height="36" viewBox="0 0 270 36" fill="none" xmlns="http://www.w3.org/2000/svg">
<mask id="path-1-outside-1_11_1003" maskUnits="userSpaceOnUse" x="-0.498047" y="-0.0507812" width="271" height="36" fill="black">
<rect fill="white" x="-0.498047" y="-0.0507812" width="271" height="36"/>
<path d="M27.1983 34.9978C26.0002 34.9978 25.0935 34.9168 24.4783 34.7549C23.8631 34.593 23.2965 34.3016 22.7784 33.8807C22.2603 33.4274 21.4346 32.6017 20.3013 31.4036L7.43022 17.5126V28.7322C7.43022 30.0922 7.51117 31.1446 7.67307 31.8893C7.83497 32.634 8.15878 33.2331 8.64448 33.6864C9.16256 34.1397 9.93968 34.4797 10.9758 34.7064V34.9492H0.387561V34.7064C1.42372 34.4797 2.18465 34.1397 2.67035 33.6864C3.18844 33.2331 3.52843 32.634 3.69033 31.8893C3.85223 31.1446 3.93318 30.0922 3.93318 28.7322V7.16713C3.93318 5.80716 3.85223 4.75481 3.69033 4.01007C3.52843 3.26533 3.18844 2.6663 2.67035 2.21298C2.18465 1.75966 1.42372 1.41966 0.387561 1.193V0.950153H10.9758V1.193C9.93968 1.41966 9.16256 1.75966 8.64448 2.21298C8.15878 2.6663 7.83497 3.26533 7.67307 4.01007C7.51117 4.75481 7.43022 5.80716 7.43022 7.16713V16.7354L20.3984 5.51574C22.3412 3.83198 23.3126 2.73106 23.3126 2.21298C23.3126 1.98631 23.1831 1.80822 22.9241 1.6787C22.6974 1.5168 22.2927 1.3549 21.7098 1.193V0.950153H30.4039V1.193C28.7849 1.41966 27.3763 1.87298 26.1783 2.55297C24.9802 3.23295 23.3936 4.43101 21.4184 6.14715L10.4901 15.6669L23.3126 29.5094C24.6078 30.9017 25.6926 31.9541 26.5668 32.6664C27.4411 33.3788 28.1858 33.8645 28.8011 34.1235C29.4163 34.3502 30.161 34.5445 31.0353 34.7064V34.9492L27.1983 34.9978ZM33.9484 34.7064C35.2759 34.3826 36.2635 33.8483 36.9111 33.1036C37.5911 32.3588 38.2549 31.096 38.9025 29.3151L48.1308 4.64148C48.2927 4.05864 48.3737 3.62151 48.3737 3.33009C48.3737 2.71487 48.1632 2.24536 47.7423 1.92156C47.3537 1.59775 46.6899 1.3549 45.7509 1.193V0.950153H52.3564L62.9447 28.7322C63.6571 30.6103 64.3694 31.9864 65.0818 32.8607C65.7941 33.735 66.8303 34.3502 68.1903 34.7064V34.9492H57.602V34.7064C58.5086 34.5445 59.1562 34.2692 59.5448 33.8807C59.9334 33.4921 60.1276 32.9902 60.1276 32.375C60.1276 31.6303 59.8038 30.416 59.1562 28.7322L57.1649 23.4867H42.3024L40.1168 29.3151C39.5987 30.7074 39.3396 31.7436 39.3396 32.4236C39.3396 33.0712 39.5501 33.5731 39.971 33.9292C40.392 34.2854 41.072 34.5445 42.011 34.7064V34.9492H33.9484V34.7064ZM42.691 22.4667H56.7763L49.6365 3.81579L42.6424 22.5153L42.691 22.4667ZM77.1143 34.7064C78.1504 34.4797 78.9114 34.1397 79.3971 33.6864C79.9151 33.2331 80.2551 32.634 80.417 31.8893C80.5789 31.1446 80.6599 30.0922 80.6599 28.7322V7.16713C80.6599 5.2567 80.417 3.91293 79.9313 3.13581C79.4456 2.35869 78.5066 1.97013 77.1143 1.97013H74.2001C72.7106 1.97013 71.5449 2.21298 70.703 2.69868C69.8611 3.18438 69.2621 3.71865 68.9059 4.30149C68.5821 4.85195 67.9993 5.93668 67.1574 7.55569H66.866L68.6145 0.464452H69.1973C69.7802 0.691113 70.2983 0.836824 70.7516 0.901583C71.2373 0.933963 72.403 0.950153 74.2486 0.950153H90.5682C92.4138 0.950153 93.5633 0.933963 94.0167 0.901583C94.5024 0.836824 95.0366 0.691113 95.6195 0.464452H96.2023L97.9508 7.55569H97.6594C97.5299 7.29665 97.1737 6.58428 96.5909 5.4186C96.0404 4.25292 95.2795 3.39485 94.3081 2.84439C93.3367 2.26155 92.1062 1.97013 90.6167 1.97013H87.994C86.5045 1.97013 85.4845 2.35869 84.934 3.13581C84.416 3.91293 84.1569 5.2567 84.1569 7.16713V28.7322C84.1569 30.0922 84.2379 31.1446 84.3998 31.8893C84.5617 32.634 84.8855 33.2331 85.3712 33.6864C85.8893 34.1397 86.6664 34.4797 87.7025 34.7064V34.9492H77.1143V34.7064ZM96.6076 34.7064C97.9352 34.3826 98.9227 33.8483 99.5703 33.1036C100.25 32.3588 100.914 31.096 101.562 29.3151L110.79 4.64148C110.952 4.05864 111.033 3.62151 111.033 3.33009C111.033 2.71487 110.822 2.24536 110.401 1.92156C110.013 1.59775 109.349 1.3549 108.41 1.193V0.950153H115.016L125.604 28.7322C126.316 30.6103 127.029 31.9864 127.741 32.8607C128.453 33.735 129.49 34.3502 130.849 34.7064V34.9492H120.261V34.7064C121.168 34.5445 121.815 34.2692 122.204 33.8807C122.593 33.4921 122.787 32.9902 122.787 32.375C122.787 31.6303 122.463 30.416 121.815 28.7322L119.824 23.4867H104.962L102.776 29.3151C102.258 30.7074 101.999 31.7436 101.999 32.4236C101.999 33.0712 102.209 33.5731 102.63 33.9292C103.051 34.2854 103.731 34.5445 104.67 34.7064V34.9492H96.6076V34.7064ZM105.35 22.4667H119.436L112.296 3.81579L105.302 22.5153L105.35 22.4667ZM134.765 34.7064C136.125 34.4149 137.048 33.8969 137.534 33.1521C138.052 32.375 138.311 31.096 138.311 29.3151V6.58428C138.311 4.80338 138.052 3.54056 137.534 2.79582C137.048 2.01869 136.125 1.48442 134.765 1.193V0.950153H141.517L162.548 29.1208V6.58428C162.548 4.80338 162.288 3.54056 161.77 2.79582C161.285 2.01869 160.362 1.48442 159.002 1.193V0.950153H167.162V1.193C165.769 1.48442 164.83 2.0025 164.345 2.74725C163.859 3.49199 163.616 4.771 163.616 6.58428V34.9492H162.548L139.38 3.9615V29.3151C139.38 31.1284 139.622 32.4074 140.108 33.1521C140.594 33.8969 141.533 34.4149 142.925 34.7064V34.9492H134.765V34.7064ZM189.339 35.4349C186.101 35.4349 183.041 34.7549 180.159 33.395C177.31 32.0026 174.995 29.9951 173.214 27.3723C171.433 24.7495 170.542 21.6248 170.542 17.9983C170.542 14.4041 171.433 11.2794 173.214 8.62423C174.995 5.96906 177.326 3.94531 180.208 2.55297C183.09 1.16062 186.149 0.464452 189.387 0.464452C192.625 0.464452 195.685 1.16062 198.567 2.55297C201.481 3.94531 203.813 5.96906 205.561 8.62423C207.342 11.2794 208.233 14.4041 208.233 17.9983C208.233 21.5924 207.342 24.7171 205.561 27.3723C203.78 29.9951 201.449 32.0026 198.567 33.395C195.685 34.7549 192.609 35.4349 189.339 35.4349ZM190.602 34.2692C193.127 34.2692 195.459 33.7188 197.596 32.6179C199.765 31.5169 201.498 29.8655 202.793 27.6637C204.088 25.4619 204.736 22.8067 204.736 19.6982C204.736 19.2773 204.703 18.6459 204.638 17.804C204.379 14.3393 203.44 11.3927 201.821 8.96422C200.202 6.50333 198.179 4.67386 195.75 3.4758C193.354 2.24536 190.828 1.63013 188.173 1.63013C185.648 1.63013 183.3 2.1806 181.131 3.28152C178.993 4.38244 177.277 6.03382 175.982 8.23567C174.687 10.4375 174.039 13.0927 174.039 16.2012C174.039 16.6221 174.072 17.2535 174.136 18.0954C174.395 21.5601 175.335 24.5228 176.954 26.9837C178.573 29.4122 180.58 31.2417 182.976 32.4721C185.405 33.6702 187.947 34.2692 190.602 34.2692ZM212.081 34.7064C213.117 34.4797 213.878 34.1397 214.364 33.6864C214.882 33.2331 215.222 32.634 215.384 31.8893C215.546 31.1446 215.627 30.0922 215.627 28.7322V7.16713C215.627 5.80716 215.546 4.75481 215.384 4.01007C215.222 3.26533 214.882 2.6663 214.364 2.21298C213.878 1.75966 213.117 1.41966 212.081 1.193V0.950153H231.363C233.209 0.950153 234.359 0.933963 234.812 0.901583C235.298 0.836824 235.832 0.691113 236.415 0.464452H236.998L238.746 7.55569H238.455C237.548 5.77478 236.512 4.39863 235.346 3.42723C234.213 2.45583 232.578 1.97013 230.441 1.97013H222.961C221.471 1.97013 220.451 2.35869 219.901 3.13581C219.383 3.91293 219.124 5.2567 219.124 7.16713V16.9783H227.138C228.239 16.9783 229.226 16.7354 230.101 16.2497C231.007 15.764 231.639 14.6955 231.995 13.0441H232.238V21.9324H231.995C231.639 20.3134 231.007 19.2611 230.101 18.7754C229.226 18.2897 228.239 18.0468 227.138 18.0468H219.124V28.7322C219.124 30.0922 219.205 31.1446 219.367 31.8893C219.528 32.634 219.852 33.2331 220.338 33.6864C220.856 34.1397 221.633 34.4797 222.669 34.7064V34.9492H212.081V34.7064ZM242.889 34.7064C243.925 34.4797 244.686 34.1397 245.172 33.6864C245.69 33.2331 246.03 32.634 246.192 31.8893C246.354 31.1446 246.435 30.0922 246.435 28.7322V7.16713C246.435 5.80716 246.354 4.75481 246.192 4.01007C246.03 3.26533 245.69 2.6663 245.172 2.21298C244.686 1.75966 243.925 1.41966 242.889 1.193V0.950153H262.171C264.017 0.950153 265.166 0.933963 265.62 0.901583C266.105 0.836824 266.64 0.691113 267.223 0.464452H267.805L269.554 7.55569H269.262C268.356 5.77478 267.32 4.39863 266.154 3.42723C265.021 2.45583 263.385 1.97013 261.248 1.97013H253.769C252.279 1.97013 251.259 2.35869 250.709 3.13581C250.191 3.91293 249.932 5.2567 249.932 7.16713V16.9783H257.946C259.047 16.9783 260.034 16.7354 260.908 16.2497C261.815 15.764 262.446 14.6955 262.803 13.0441H263.046V21.9324H262.803C262.446 20.3134 261.815 19.2611 260.908 18.7754C260.034 18.2897 259.047 18.0468 257.946 18.0468H249.932V28.7322C249.932 30.0922 250.013 31.1446 250.174 31.8893C250.336 32.634 250.66 33.2331 251.146 33.6864C251.664 34.1397 252.441 34.4797 253.477 34.7064V34.9492H242.889V34.7064Z"/>
</mask>
<path d="M27.1983 34.9978C26.0002 34.9978 25.0935 34.9168 24.4783 34.7549C23.8631 34.593 23.2965 34.3016 22.7784 33.8807C22.2603 33.4274 21.4346 32.6017 20.3013 31.4036L7.43022 17.5126V28.7322C7.43022 30.0922 7.51117 31.1446 7.67307 31.8893C7.83497 32.634 8.15878 33.2331 8.64448 33.6864C9.16256 34.1397 9.93968 34.4797 10.9758 34.7064V34.9492H0.387561V34.7064C1.42372 34.4797 2.18465 34.1397 2.67035 33.6864C3.18844 33.2331 3.52843 32.634 3.69033 31.8893C3.85223 31.1446 3.93318 30.0922 3.93318 28.7322V7.16713C3.93318 5.80716 3.85223 4.75481 3.69033 4.01007C3.52843 3.26533 3.18844 2.6663 2.67035 2.21298C2.18465 1.75966 1.42372 1.41966 0.387561 1.193V0.950153H10.9758V1.193C9.93968 1.41966 9.16256 1.75966 8.64448 2.21298C8.15878 2.6663 7.83497 3.26533 7.67307 4.01007C7.51117 4.75481 7.43022 5.80716 7.43022 7.16713V16.7354L20.3984 5.51574C22.3412 3.83198 23.3126 2.73106 23.3126 2.21298C23.3126 1.98631 23.1831 1.80822 22.9241 1.6787C22.6974 1.5168 22.2927 1.3549 21.7098 1.193V0.950153H30.4039V1.193C28.7849 1.41966 27.3763 1.87298 26.1783 2.55297C24.9802 3.23295 23.3936 4.43101 21.4184 6.14715L10.4901 15.6669L23.3126 29.5094C24.6078 30.9017 25.6926 31.9541 26.5668 32.6664C27.4411 33.3788 28.1858 33.8645 28.8011 34.1235C29.4163 34.3502 30.161 34.5445 31.0353 34.7064V34.9492L27.1983 34.9978ZM33.9484 34.7064C35.2759 34.3826 36.2635 33.8483 36.9111 33.1036C37.5911 32.3588 38.2549 31.096 38.9025 29.3151L48.1308 4.64148C48.2927 4.05864 48.3737 3.62151 48.3737 3.33009C48.3737 2.71487 48.1632 2.24536 47.7423 1.92156C47.3537 1.59775 46.6899 1.3549 45.7509 1.193V0.950153H52.3564L62.9447 28.7322C63.6571 30.6103 64.3694 31.9864 65.0818 32.8607C65.7941 33.735 66.8303 34.3502 68.1903 34.7064V34.9492H57.602V34.7064C58.5086 34.5445 59.1562 34.2692 59.5448 33.8807C59.9334 33.4921 60.1276 32.9902 60.1276 32.375C60.1276 31.6303 59.8038 30.416 59.1562 28.7322L57.1649 23.4867H42.3024L40.1168 29.3151C39.5987 30.7074 39.3396 31.7436 39.3396 32.4236C39.3396 33.0712 39.5501 33.5731 39.971 33.9292C40.392 34.2854 41.072 34.5445 42.011 34.7064V34.9492H33.9484V34.7064ZM42.691 22.4667H56.7763L49.6365 3.81579L42.6424 22.5153L42.691 22.4667ZM77.1143 34.7064C78.1504 34.4797 78.9114 34.1397 79.3971 33.6864C79.9151 33.2331 80.2551 32.634 80.417 31.8893C80.5789 31.1446 80.6599 30.0922 80.6599 28.7322V7.16713C80.6599 5.2567 80.417 3.91293 79.9313 3.13581C79.4456 2.35869 78.5066 1.97013 77.1143 1.97013H74.2001C72.7106 1.97013 71.5449 2.21298 70.703 2.69868C69.8611 3.18438 69.2621 3.71865 68.9059 4.30149C68.5821 4.85195 67.9993 5.93668 67.1574 7.55569H66.866L68.6145 0.464452H69.1973C69.7802 0.691113 70.2983 0.836824 70.7516 0.901583C71.2373 0.933963 72.403 0.950153 74.2486 0.950153H90.5682C92.4138 0.950153 93.5633 0.933963 94.0167 0.901583C94.5024 0.836824 95.0366 0.691113 95.6195 0.464452H96.2023L97.9508 7.55569H97.6594C97.5299 7.29665 97.1737 6.58428 96.5909 5.4186C96.0404 4.25292 95.2795 3.39485 94.3081 2.84439C93.3367 2.26155 92.1062 1.97013 90.6167 1.97013H87.994C86.5045 1.97013 85.4845 2.35869 84.934 3.13581C84.416 3.91293 84.1569 5.2567 84.1569 7.16713V28.7322C84.1569 30.0922 84.2379 31.1446 84.3998 31.8893C84.5617 32.634 84.8855 33.2331 85.3712 33.6864C85.8893 34.1397 86.6664 34.4797 87.7025 34.7064V34.9492H77.1143V34.7064ZM96.6076 34.7064C97.9352 34.3826 98.9227 33.8483 99.5703 33.1036C100.25 32.3588 100.914 31.096 101.562 29.3151L110.79 4.64148C110.952 4.05864 111.033 3.62151 111.033 3.33009C111.033 2.71487 110.822 2.24536 110.401 1.92156C110.013 1.59775 109.349 1.3549 108.41 1.193V0.950153H115.016L125.604 28.7322C126.316 30.6103 127.029 31.9864 127.741 32.8607C128.453 33.735 129.49 34.3502 130.849 34.7064V34.9492H120.261V34.7064C121.168 34.5445 121.815 34.2692 122.204 33.8807C122.593 33.4921 122.787 32.9902 122.787 32.375C122.787 31.6303 122.463 30.416 121.815 28.7322L119.824 23.4867H104.962L102.776 29.3151C102.258 30.7074 101.999 31.7436 101.999 32.4236C101.999 33.0712 102.209 33.5731 102.63 33.9292C103.051 34.2854 103.731 34.5445 104.67 34.7064V34.9492H96.6076V34.7064ZM105.35 22.4667H119.436L112.296 3.81579L105.302 22.5153L105.35 22.4667ZM134.765 34.7064C136.125 34.4149 137.048 33.8969 137.534 33.1521C138.052 32.375 138.311 31.096 138.311 29.3151V6.58428C138.311 4.80338 138.052 3.54056 137.534 2.79582C137.048 2.01869 136.125 1.48442 134.765 1.193V0.950153H141.517L162.548 29.1208V6.58428C162.548 4.80338 162.288 3.54056 161.77 2.79582C161.285 2.01869 160.362 1.48442 159.002 1.193V0.950153H167.162V1.193C165.769 1.48442 164.83 2.0025 164.345 2.74725C163.859 3.49199 163.616 4.771 163.616 6.58428V34.9492H162.548L139.38 3.9615V29.3151C139.38 31.1284 139.622 32.4074 140.108 33.1521C140.594 33.8969 141.533 34.4149 142.925 34.7064V34.9492H134.765V34.7064ZM189.339 35.4349C186.101 35.4349 183.041 34.7549 180.159 33.395C177.31 32.0026 174.995 29.9951 173.214 27.3723C171.433 24.7495 170.542 21.6248 170.542 17.9983C170.542 14.4041 171.433 11.2794 173.214 8.62423C174.995 5.96906 177.326 3.94531 180.208 2.55297C183.09 1.16062 186.149 0.464452 189.387 0.464452C192.625 0.464452 195.685 1.16062 198.567 2.55297C201.481 3.94531 203.813 5.96906 205.561 8.62423C207.342 11.2794 208.233 14.4041 208.233 17.9983C208.233 21.5924 207.342 24.7171 205.561 27.3723C203.78 29.9951 201.449 32.0026 198.567 33.395C195.685 34.7549 192.609 35.4349 189.339 35.4349ZM190.602 34.2692C193.127 34.2692 195.459 33.7188 197.596 32.6179C199.765 31.5169 201.498 29.8655 202.793 27.6637C204.088 25.4619 204.736 22.8067 204.736 19.6982C204.736 19.2773 204.703 18.6459 204.638 17.804C204.379 14.3393 203.44 11.3927 201.821 8.96422C200.202 6.50333 198.179 4.67386 195.75 3.4758C193.354 2.24536 190.828 1.63013 188.173 1.63013C185.648 1.63013 183.3 2.1806 181.131 3.28152C178.993 4.38244 177.277 6.03382 175.982 8.23567C174.687 10.4375 174.039 13.0927 174.039 16.2012C174.039 16.6221 174.072 17.2535 174.136 18.0954C174.395 21.5601 175.335 24.5228 176.954 26.9837C178.573 29.4122 180.58 31.2417 182.976 32.4721C185.405 33.6702 187.947 34.2692 190.602 34.2692ZM212.081 34.7064C213.117 34.4797 213.878 34.1397 214.364 33.6864C214.882 33.2331 215.222 32.634 215.384 31.8893C215.546 31.1446 215.627 30.0922 215.627 28.7322V7.16713C215.627 5.80716 215.546 4.75481 215.384 4.01007C215.222 3.26533 214.882 2.6663 214.364 2.21298C213.878 1.75966 213.117 1.41966 212.081 1.193V0.950153H231.363C233.209 0.950153 234.359 0.933963 234.812 0.901583C235.298 0.836824 235.832 0.691113 236.415 0.464452H236.998L238.746 7.55569H238.455C237.548 5.77478 236.512 4.39863 235.346 3.42723C234.213 2.45583 232.578 1.97013 230.441 1.97013H222.961C221.471 1.97013 220.451 2.35869 219.901 3.13581C219.383 3.91293 219.124 5.2567 219.124 7.16713V16.9783H227.138C228.239 16.9783 229.226 16.7354 230.101 16.2497C231.007 15.764 231.639 14.6955 231.995 13.0441H232.238V21.9324H231.995C231.639 20.3134 231.007 19.2611 230.101 18.7754C229.226 18.2897 228.239 18.0468 227.138 18.0468H219.124V28.7322C219.124 30.0922 219.205 31.1446 219.367 31.8893C219.528 32.634 219.852 33.2331 220.338 33.6864C220.856 34.1397 221.633 34.4797 222.669 34.7064V34.9492H212.081V34.7064ZM242.889 34.7064C243.925 34.4797 244.686 34.1397 245.172 33.6864C245.69 33.2331 246.03 32.634 246.192 31.8893C246.354 31.1446 246.435 30.0922 246.435 28.7322V7.16713C246.435 5.80716 246.354 4.75481 246.192 4.01007C246.03 3.26533 245.69 2.6663 245.172 2.21298C244.686 1.75966 243.925 1.41966 242.889 1.193V0.950153H262.171C264.017 0.950153 265.166 0.933963 265.62 0.901583C266.105 0.836824 266.64 0.691113 267.223 0.464452H267.805L269.554 7.55569H269.262C268.356 5.77478 267.32 4.39863 266.154 3.42723C265.021 2.45583 263.385 1.97013 261.248 1.97013H253.769C252.279 1.97013 251.259 2.35869 250.709 3.13581C250.191 3.91293 249.932 5.2567 249.932 7.16713V16.9783H257.946C259.047 16.9783 260.034 16.7354 260.908 16.2497C261.815 15.764 262.446 14.6955 262.803 13.0441H263.046V21.9324H262.803C262.446 20.3134 261.815 19.2611 260.908 18.7754C260.034 18.2897 259.047 18.0468 257.946 18.0468H249.932V28.7322C249.932 30.0922 250.013 31.1446 250.174 31.8893C250.336 32.634 250.66 33.2331 251.146 33.6864C251.664 34.1397 252.441 34.4797 253.477 34.7064V34.9492H242.889V34.7064Z" fill="#010101"/>
<path d="M27.1983 34.9978V35.2978L27.202 35.2978L27.1983 34.9978ZM24.4783 34.7549L24.402 35.0451L24.4783 34.7549ZM22.7784 33.8807L22.5807 34.1066L22.5892 34.1135L22.7784 33.8807ZM20.3013 31.4036L20.0812 31.6075L20.0834 31.6098L20.3013 31.4036ZM7.43022 17.5126L7.65028 17.3087L7.13022 16.7474V17.5126H7.43022ZM7.67307 31.8893L7.37992 31.953L7.37992 31.953L7.67307 31.8893ZM8.64448 33.6864L8.43967 33.9058L8.44692 33.9122L8.64448 33.6864ZM10.9758 34.7064H11.2758V34.4649L11.0399 34.4133L10.9758 34.7064ZM10.9758 34.9492V35.2492H11.2758V34.9492H10.9758ZM0.387561 34.9492H0.0875607V35.2492H0.387561V34.9492ZM0.387561 34.7064L0.323452 34.4133L0.0875607 34.4649V34.7064H0.387561ZM2.67035 33.6864L2.4727 33.4605L2.46566 33.4671L2.67035 33.6864ZM3.69033 31.8893L3.39717 31.8256L3.39717 31.8256L3.69033 31.8893ZM3.69033 4.01007L3.39717 4.0738L3.39717 4.0738L3.69033 4.01007ZM2.67035 2.21298L2.46555 2.43241L2.4728 2.43875L2.67035 2.21298ZM0.387561 1.193H0.0875607V1.43447L0.323451 1.48607L0.387561 1.193ZM0.387561 0.950153V0.650153H0.0875607V0.950153H0.387561ZM10.9758 0.950153H11.2758V0.650153H10.9758V0.950153ZM10.9758 1.193L11.04 1.48607L11.2758 1.43447V1.193H10.9758ZM8.64448 2.21298L8.44682 1.98709L8.43978 1.99366L8.64448 2.21298ZM7.67307 4.01007L7.37992 3.94634L7.37992 3.94634L7.67307 4.01007ZM7.43022 16.7354H7.13022V17.3917L7.62651 16.9623L7.43022 16.7354ZM20.3984 5.51574L20.5947 5.74262L20.5949 5.74245L20.3984 5.51574ZM22.9241 1.6787L22.7497 1.92282L22.7689 1.9365L22.7899 1.94703L22.9241 1.6787ZM21.7098 1.193H21.4098V1.42103L21.6295 1.48206L21.7098 1.193ZM21.7098 0.950153V0.650153H21.4098V0.950153H21.7098ZM30.4039 0.950153H30.7039V0.650153H30.4039V0.950153ZM30.4039 1.193L30.4455 1.49011L30.7039 1.45393V1.193H30.4039ZM26.1783 2.55297L26.0302 2.29206L26.0302 2.29206L26.1783 2.55297ZM21.4184 6.14715L21.2216 5.92069L21.2214 5.92094L21.4184 6.14715ZM10.4901 15.6669L10.2931 15.4407L10.0599 15.6438L10.2701 15.8708L10.4901 15.6669ZM23.3126 29.5094L23.0926 29.7132L23.093 29.7137L23.3126 29.5094ZM26.5668 32.6664L26.3773 32.899L26.3773 32.899L26.5668 32.6664ZM28.8011 34.1235L28.6845 34.4003L28.6974 34.405L28.8011 34.1235ZM31.0353 34.7064H31.3353V34.4568L31.0899 34.4114L31.0353 34.7064ZM31.0353 34.9492L31.0391 35.2492L31.3353 35.2454V34.9492H31.0353ZM27.1983 34.9978V34.6978C26.0075 34.6978 25.1319 34.6167 24.5547 34.4648L24.4783 34.7549L24.402 35.0451C25.0552 35.217 25.9928 35.2978 27.1983 35.2978V34.9978ZM24.4783 34.7549L24.5547 34.4648C23.9827 34.3143 23.4542 34.0432 22.9676 33.6478L22.7784 33.8807L22.5892 34.1135C23.1387 34.56 23.7435 34.8718 24.402 35.0451L24.4783 34.7549ZM22.7784 33.8807L22.9759 33.6549C22.4696 33.2119 21.6525 32.3955 20.5192 31.1974L20.3013 31.4036L20.0834 31.6098C21.2167 32.8079 22.051 33.6429 22.5808 34.1064L22.7784 33.8807ZM20.3013 31.4036L20.5214 31.1997L7.65028 17.3087L7.43022 17.5126L7.21017 17.7165L20.0812 31.6075L20.3013 31.4036ZM7.43022 17.5126H7.13022V28.7322H7.43022H7.73022V17.5126H7.43022ZM7.43022 28.7322H7.13022C7.13022 30.0998 7.21125 31.1771 7.37992 31.953L7.67307 31.8893L7.96623 31.8256C7.8111 31.112 7.73022 30.0847 7.73022 28.7322H7.43022ZM7.67307 31.8893L7.37992 31.953C7.55282 32.7484 7.90312 33.4048 8.43978 33.9057L8.64448 33.6864L8.84917 33.4671C8.41444 33.0613 8.11713 32.5197 7.96623 31.8256L7.67307 31.8893ZM8.64448 33.6864L8.44692 33.9122C9.01828 34.4121 9.85052 34.7673 10.9117 34.9994L10.9758 34.7064L11.0399 34.4133C10.0288 34.1921 9.30683 33.8673 8.84203 33.4606L8.64448 33.6864ZM10.9758 34.7064H10.6758V34.9492H10.9758H11.2758V34.7064H10.9758ZM10.9758 34.9492V34.6492H0.387561V34.9492V35.2492H10.9758V34.9492ZM0.387561 34.9492H0.687561V34.7064H0.387561H0.0875607V34.9492H0.387561ZM0.387561 34.7064L0.45167 34.9994C1.51205 34.7675 2.33307 34.4116 2.87505 33.9057L2.67035 33.6864L2.46566 33.4671C2.03623 33.8679 1.33539 34.1919 0.323452 34.4133L0.387561 34.7064ZM2.67035 33.6864L2.86791 33.9122C3.43959 33.4119 3.80945 32.7536 3.98348 31.953L3.69033 31.8893L3.39717 31.8256C3.2474 32.5145 2.93728 33.0542 2.4728 33.4606L2.67035 33.6864ZM3.69033 31.8893L3.98348 31.953C4.15215 31.1771 4.23318 30.0998 4.23318 28.7322H3.93318H3.63318C3.63318 30.0847 3.5523 31.112 3.39717 31.8256L3.69033 31.8893ZM3.93318 28.7322H4.23318V7.16713H3.93318H3.63318V28.7322H3.93318ZM3.93318 7.16713H4.23318C4.23318 5.79962 4.15215 4.72224 3.98348 3.94634L3.69033 4.01007L3.39717 4.0738C3.5523 4.78738 3.63318 5.8147 3.63318 7.16713H3.93318ZM3.69033 4.01007L3.98348 3.94634C3.80945 3.14581 3.43959 2.48743 2.86791 1.9872L2.67035 2.21298L2.4728 2.43875C2.93728 2.84517 3.2474 3.38484 3.39717 4.0738L3.69033 4.01007ZM2.67035 2.21298L2.87505 1.99366C2.33307 1.48782 1.51205 1.13189 0.45167 0.899933L0.387561 1.193L0.323451 1.48607C1.33539 1.70744 2.03623 2.03149 2.46566 2.43229L2.67035 2.21298ZM0.387561 1.193H0.687561V0.950153H0.387561H0.0875607V1.193H0.387561ZM0.387561 0.950153V1.25015H10.9758V0.950153V0.650153H0.387561V0.950153ZM10.9758 0.950153H10.6758V1.193H10.9758H11.2758V0.950153H10.9758ZM10.9758 1.193L10.9117 0.899933C9.85052 1.13207 9.01828 1.48727 8.44692 1.9872L8.64448 2.21298L8.84203 2.43875C9.30683 2.03204 10.0288 1.70725 11.04 1.48607L10.9758 1.193ZM8.64448 2.21298L8.43978 1.99366C7.90312 2.49455 7.55282 3.15101 7.37992 3.94634L7.67307 4.01007L7.96623 4.0738C8.11713 3.37964 8.41444 2.83805 8.84917 2.43229L8.64448 2.21298ZM7.67307 4.01007L7.37992 3.94634C7.21125 4.72224 7.13022 5.79962 7.13022 7.16713H7.43022H7.73022C7.73022 5.8147 7.8111 4.78738 7.96623 4.0738L7.67307 4.01007ZM7.43022 7.16713H7.13022V16.7354H7.43022H7.73022V7.16713H7.43022ZM7.43022 16.7354L7.62651 16.9623L20.5947 5.74262L20.3984 5.51574L20.2022 5.28887L7.23394 16.5086L7.43022 16.7354ZM20.3984 5.51574L20.5949 5.74245C21.5701 4.89726 22.3103 4.19095 22.809 3.62571C23.0581 3.34343 23.2533 3.08931 23.3878 2.86517C23.5175 2.64896 23.6126 2.4254 23.6126 2.21298H23.3126H23.0126C23.0126 2.25959 22.9864 2.36793 22.8733 2.55647C22.7649 2.73707 22.5958 2.96057 22.3591 3.22874C21.8865 3.76443 21.1695 4.45046 20.202 5.28904L20.3984 5.51574ZM23.3126 2.21298H23.6126C23.6126 1.8395 23.3854 1.57395 23.0582 1.41038L22.9241 1.6787L22.7899 1.94703C22.9809 2.0425 23.0126 2.13313 23.0126 2.21298H23.3126ZM22.9241 1.6787L23.0985 1.43458C22.8258 1.23981 22.3766 1.06684 21.7901 0.903947L21.7098 1.193L21.6295 1.48206C22.2088 1.64296 22.5691 1.7938 22.7497 1.92282L22.9241 1.6787ZM21.7098 1.193H22.0098V0.950153H21.7098H21.4098V1.193H21.7098ZM21.7098 0.950153V1.25015H30.4039V0.950153V0.650153H21.7098V0.950153ZM30.4039 0.950153H30.1039V1.193H30.4039H30.7039V0.950153H30.4039ZM30.4039 1.193L30.3623 0.8959C28.7127 1.12685 27.2667 1.59027 26.0302 2.29206L26.1783 2.55297L26.3264 2.81387C27.486 2.1557 28.8571 1.71248 30.4455 1.49011L30.4039 1.193ZM26.1783 2.55297L26.0302 2.29206C24.8057 2.98707 23.201 4.20091 21.2216 5.92069L21.4184 6.14715L21.6152 6.37361C23.5862 4.66111 25.1548 3.47882 26.3264 2.81387L26.1783 2.55297ZM21.4184 6.14715L21.2214 5.92094L10.2931 15.4407L10.4901 15.6669L10.6872 15.8931L21.6155 6.37336L21.4184 6.14715ZM10.4901 15.6669L10.2701 15.8708L23.0926 29.7132L23.3126 29.5094L23.5327 29.3055L10.7102 15.463L10.4901 15.6669ZM23.3126 29.5094L23.093 29.7137C24.3922 31.1103 25.4876 32.174 26.3773 32.899L26.5668 32.6664L26.7563 32.4339C25.8975 31.7341 24.8235 30.6931 23.5323 29.305L23.3126 29.5094ZM26.5668 32.6664L26.3773 32.899C27.2607 33.6188 28.0312 34.1249 28.6846 34.4L28.8011 34.1235L28.9175 33.847C28.3405 33.6041 27.6215 33.1388 26.7563 32.4339L26.5668 32.6664ZM28.8011 34.1235L28.6974 34.405C29.333 34.6392 30.0951 34.8374 30.9807 35.0014L31.0353 34.7064L31.0899 34.4114C30.2269 34.2516 29.4996 34.0612 28.9048 33.842L28.8011 34.1235ZM31.0353 34.7064H30.7353V34.9492H31.0353H31.3353V34.7064H31.0353ZM31.0353 34.9492L31.0315 34.6492L27.1945 34.6978L27.1983 34.9978L27.202 35.2978L31.0391 35.2492L31.0353 34.9492ZM33.9484 34.7064L33.8773 34.4149L33.6484 34.4707V34.7064H33.9484ZM36.9111 33.1036L36.6895 32.9012L36.6847 32.9067L36.9111 33.1036ZM38.9025 29.3151L38.6215 29.21L38.6206 29.2126L38.9025 29.3151ZM48.1308 4.64148L48.4118 4.74658L48.4164 4.73435L48.4199 4.72177L48.1308 4.64148ZM47.7423 1.92156L47.5501 2.1522L47.5593 2.15934L47.7423 1.92156ZM45.7509 1.193H45.4509V1.4457L45.6999 1.48864L45.7509 1.193ZM45.7509 0.950153V0.650153H45.4509V0.950153H45.7509ZM52.3564 0.950153L52.6368 0.843313L52.5631 0.650153H52.3564V0.950153ZM62.9447 28.7322L63.2252 28.6259L63.225 28.6254L62.9447 28.7322ZM65.0818 32.8607L65.3144 32.6712L65.3144 32.6712L65.0818 32.8607ZM68.1903 34.7064H68.4903V34.4748L68.2663 34.4162L68.1903 34.7064ZM68.1903 34.9492V35.2492H68.4903V34.9492H68.1903ZM57.602 34.9492H57.302V35.2492H57.602V34.9492ZM57.602 34.7064L57.5493 34.411L57.302 34.4552V34.7064H57.602ZM59.5448 33.8807L59.3327 33.6685L59.3327 33.6685L59.5448 33.8807ZM59.1562 28.7322L58.8758 28.8387L58.8762 28.8399L59.1562 28.7322ZM57.1649 23.4867L57.4453 23.3802L57.3719 23.1867H57.1649V23.4867ZM42.3024 23.4867V23.1867H42.0945L42.0215 23.3813L42.3024 23.4867ZM40.1168 29.3151L39.8359 29.2098L39.8356 29.2105L40.1168 29.3151ZM39.971 33.9292L40.1648 33.7002L40.1648 33.7002L39.971 33.9292ZM42.011 34.7064H42.311V34.4537L42.062 34.4107L42.011 34.7064ZM42.011 34.9492V35.2492H42.311V34.9492H42.011ZM33.9484 34.9492H33.6484V35.2492H33.9484V34.9492ZM42.691 22.4667V22.1667H42.5667L42.4788 22.2546L42.691 22.4667ZM56.7763 22.4667V22.7667H57.2124L57.0565 22.3595L56.7763 22.4667ZM49.6365 3.81579L49.9167 3.70854L49.6332 2.96815L49.3555 3.71069L49.6365 3.81579ZM42.6424 22.5153L42.3614 22.4102L42.8545 22.7274L42.6424 22.5153ZM33.9484 34.7064L34.0194 34.9978C35.3848 34.6648 36.4362 34.1069 37.1375 33.3004L36.9111 33.1036L36.6847 32.9067C36.0908 33.5897 35.1671 34.1003 33.8773 34.4149L33.9484 34.7064ZM36.9111 33.1036L37.1327 33.3058C37.8532 32.5167 38.5331 31.2087 39.1844 29.4176L38.9025 29.3151L38.6206 29.2126C37.9767 30.9833 37.329 32.2009 36.6896 32.9013L36.9111 33.1036ZM38.9025 29.3151L39.1835 29.4202L48.4118 4.74658L48.1308 4.64148L47.8498 4.53639L38.6215 29.21L38.9025 29.3151ZM48.1308 4.64148L48.4199 4.72177C48.583 4.13455 48.6737 3.66451 48.6737 3.33009H48.3737H48.0737C48.0737 3.57851 48.0024 3.98273 47.8418 4.56119L48.1308 4.64148ZM48.3737 3.33009H48.6737C48.6737 2.63842 48.4322 2.07382 47.9252 1.68377L47.7423 1.92156L47.5593 2.15934C47.8942 2.4169 48.0737 2.79131 48.0737 3.33009H48.3737ZM47.7423 1.92156L47.9343 1.69109C47.4832 1.31515 46.7543 1.06157 45.8019 0.897365L45.7509 1.193L45.6999 1.48864C46.6255 1.64823 47.2242 1.88035 47.5502 2.15202L47.7423 1.92156ZM45.7509 1.193H46.0509V0.950153H45.7509H45.4509V1.193H45.7509ZM45.7509 0.950153V1.25015H52.3564V0.950153V0.650153H45.7509V0.950153ZM52.3564 0.950153L52.0761 1.05699L62.6644 28.8391L62.9447 28.7322L63.225 28.6254L52.6368 0.843313L52.3564 0.950153ZM62.9447 28.7322L62.6642 28.8386C63.3805 30.7271 64.1065 32.1387 64.8492 33.0502L65.0818 32.8607L65.3144 32.6712C64.6323 31.8342 63.9336 30.4934 63.2252 28.6259L62.9447 28.7322ZM65.0818 32.8607L64.8492 33.0502C65.6108 33.9848 66.7081 34.6283 68.1143 34.9966L68.1903 34.7064L68.2663 34.4162C66.9525 34.0721 65.9775 33.4851 65.3144 32.6712L65.0818 32.8607ZM68.1903 34.7064H67.8903V34.9492H68.1903H68.4903V34.7064H68.1903ZM68.1903 34.9492V34.6492H57.602V34.9492V35.2492H68.1903V34.9492ZM57.602 34.9492H57.902V34.7064H57.602H57.302V34.9492H57.602ZM57.602 34.7064L57.6547 35.0017C58.585 34.8356 59.3045 34.5452 59.7569 34.0928L59.5448 33.8807L59.3327 33.6685C59.008 33.9932 58.4323 34.2534 57.5493 34.411L57.602 34.7064ZM59.5448 33.8807L59.7569 34.0928C60.2087 33.641 60.4276 33.0594 60.4276 32.375H60.1276H59.8276C59.8276 32.9211 59.658 33.3432 59.3327 33.6685L59.5448 33.8807ZM60.1276 32.375H60.4276C60.4276 31.5686 60.0835 30.3074 59.4362 28.6246L59.1562 28.7322L58.8762 28.8399C59.5242 30.5246 59.8276 31.6919 59.8276 32.375H60.1276ZM59.1562 28.7322L59.4367 28.6258L57.4453 23.3802L57.1649 23.4867L56.8844 23.5932L58.8758 28.8387L59.1562 28.7322ZM57.1649 23.4867V23.1867H42.3024V23.4867V23.7867H57.1649V23.4867ZM42.3024 23.4867L42.0215 23.3813L39.8359 29.2098L40.1168 29.3151L40.3977 29.4204L42.5833 23.592L42.3024 23.4867ZM40.1168 29.3151L39.8356 29.2105C39.3163 30.6061 39.0396 31.6858 39.0396 32.4236H39.3396H39.6396C39.6396 31.8014 39.8811 30.8088 40.3979 29.4197L40.1168 29.3151ZM39.3396 32.4236H39.0396C39.0396 33.1424 39.2769 33.7349 39.7773 34.1583L39.971 33.9292L40.1648 33.7002C39.8233 33.4112 39.6396 33 39.6396 32.4236H39.3396ZM39.971 33.9292L39.7773 34.1583C40.2589 34.5658 41.0018 34.8368 41.96 35.002L42.011 34.7064L42.062 34.4107C41.1421 34.2521 40.5251 34.0051 40.1648 33.7002L39.971 33.9292ZM42.011 34.7064H41.711V34.9492H42.011H42.311V34.7064H42.011ZM42.011 34.9492V34.6492H33.9484V34.9492V35.2492H42.011V34.9492ZM33.9484 34.9492H34.2484V34.7064H33.9484H33.6484V34.9492H33.9484ZM42.691 22.4667V22.7667H56.7763V22.4667V22.1667H42.691V22.4667ZM56.7763 22.4667L57.0565 22.3595L49.9167 3.70854L49.6365 3.81579L49.3563 3.92304L56.4961 22.574L56.7763 22.4667ZM49.6365 3.81579L49.3555 3.71069L42.3614 22.4102L42.6424 22.5153L42.9234 22.6204L49.9175 3.92089L49.6365 3.81579ZM42.6424 22.5153L42.8545 22.7274L42.9031 22.6788L42.691 22.4667L42.4788 22.2546L42.4303 22.3031L42.6424 22.5153ZM77.1143 34.7064L77.0502 34.4133L76.8143 34.4649V34.7064H77.1143ZM79.3971 33.6864L79.1994 33.4605L79.1924 33.4671L79.3971 33.6864ZM80.417 31.8893L80.7102 31.953L80.7102 31.953L80.417 31.8893ZM79.9313 3.13581L80.1857 2.97681L80.1857 2.97681L79.9313 3.13581ZM70.703 2.69868L70.8529 2.95853L70.8529 2.95853L70.703 2.69868ZM68.9059 4.30149L68.6499 4.14503L68.6473 4.14938L68.9059 4.30149ZM67.1574 7.55569V7.85569H67.3395L67.4236 7.69409L67.1574 7.55569ZM66.866 7.55569L66.5747 7.48387L66.483 7.85569H66.866V7.55569ZM68.6145 0.464452V0.164452H68.3795L68.3232 0.392631L68.6145 0.464452ZM69.1973 0.464452L69.3061 0.184851L69.2536 0.164452H69.1973V0.464452ZM70.7516 0.901583L70.7092 1.19857L70.7203 1.20017L70.7316 1.20092L70.7516 0.901583ZM94.0167 0.901583L94.038 1.20082L94.0472 1.20017L94.0563 1.19895L94.0167 0.901583ZM95.6195 0.464452V0.164452H95.5632L95.5107 0.184851L95.6195 0.464452ZM96.2023 0.464452L96.4936 0.392631L96.4373 0.164452H96.2023V0.464452ZM97.9508 7.55569V7.85569H98.3338L98.2421 7.48387L97.9508 7.55569ZM97.6594 7.55569L97.3911 7.68985L97.474 7.85569H97.6594V7.55569ZM96.5909 5.4186L96.3195 5.54674L96.3225 5.55277L96.5909 5.4186ZM94.3081 2.84439L94.1537 3.10172L94.1602 3.10539L94.3081 2.84439ZM84.934 3.13581L84.6891 2.96233L84.6844 2.9694L84.934 3.13581ZM84.3998 31.8893L84.6929 31.8256L84.6929 31.8256L84.3998 31.8893ZM85.3712 33.6864L85.1664 33.9058L85.1736 33.9122L85.3712 33.6864ZM87.7025 34.7064H88.0025V34.4649L87.7667 34.4133L87.7025 34.7064ZM87.7025 34.9492V35.2492H88.0025V34.9492H87.7025ZM77.1143 34.9492H76.8143V35.2492H77.1143V34.9492ZM77.1143 34.7064L77.1784 34.9994C78.2388 34.7675 79.0598 34.4116 79.6018 33.9057L79.3971 33.6864L79.1924 33.4671C78.7629 33.8679 78.0621 34.1919 77.0502 34.4133L77.1143 34.7064ZM79.3971 33.6864L79.5946 33.9122C80.1663 33.4119 80.5362 32.7536 80.7102 31.953L80.417 31.8893L80.1239 31.8256C79.9741 32.5145 79.664 33.0542 79.1995 33.4606L79.3971 33.6864ZM80.417 31.8893L80.7102 31.953C80.8789 31.1771 80.9599 30.0998 80.9599 28.7322H80.6599H80.3599C80.3599 30.0847 80.279 31.112 80.1239 31.8256L80.417 31.8893ZM80.6599 28.7322H80.9599V7.16713H80.6599H80.3599V28.7322H80.6599ZM80.6599 7.16713H80.9599C80.9599 5.24955 80.7195 3.83081 80.1857 2.97681L79.9313 3.13581L79.6769 3.29481C80.1146 3.99505 80.3599 5.26385 80.3599 7.16713H80.6599ZM79.9313 3.13581L80.1857 2.97681C79.6205 2.07247 78.5528 1.67013 77.1143 1.67013V1.97013V2.27013C78.4604 2.27013 79.2707 2.6449 79.6769 3.29481L79.9313 3.13581ZM77.1143 1.97013V1.67013H74.2001V1.97013V2.27013H77.1143V1.97013ZM74.2001 1.97013V1.67013C72.6837 1.67013 71.4586 1.91641 70.5531 2.43882L70.703 2.69868L70.8529 2.95853C71.6312 2.50954 72.7375 2.27013 74.2001 2.27013V1.97013ZM70.703 2.69868L70.5531 2.43882C69.685 2.93962 69.041 3.50513 68.6499 4.14505L68.9059 4.30149L69.1619 4.45792C69.4832 3.93217 70.0372 3.42913 70.8529 2.95853L70.703 2.69868ZM68.9059 4.30149L68.6473 4.14938C68.319 4.70764 67.7326 5.79918 66.8912 7.41728L67.1574 7.55569L67.4236 7.69409C68.2659 6.07418 68.8453 4.99627 69.1645 4.4536L68.9059 4.30149ZM67.1574 7.55569V7.25569H66.866V7.55569V7.85569H67.1574V7.55569ZM66.866 7.55569L67.1572 7.62751L68.9058 0.536274L68.6145 0.464452L68.3232 0.392631L66.5747 7.48387L66.866 7.55569ZM68.6145 0.464452V0.764452H69.1973V0.464452V0.164452H68.6145V0.464452ZM69.1973 0.464452L69.0886 0.744053C69.6856 0.97623 70.2266 1.12963 70.7092 1.19857L70.7516 0.901583L70.794 0.604598C70.3699 0.544015 69.8747 0.405997 69.3061 0.184851L69.1973 0.464452ZM70.7516 0.901583L70.7316 1.20092C71.2295 1.23411 72.4063 1.25015 74.2486 1.25015V0.950153V0.650153C72.3996 0.650153 71.2451 0.633818 70.7715 0.602248L70.7516 0.901583ZM74.2486 0.950153V1.25015H90.5682V0.950153V0.650153H74.2486V0.950153ZM90.5682 0.950153V1.25015C92.4097 1.25015 93.5716 1.23414 94.038 1.20082L94.0167 0.901583L93.9953 0.602345C93.5551 0.633788 92.418 0.650153 90.5682 0.650153V0.950153ZM94.0167 0.901583L94.0563 1.19895C94.5711 1.13031 95.1289 0.977113 95.7282 0.744053L95.6195 0.464452L95.5107 0.184851C94.9443 0.405114 94.4336 0.543336 93.977 0.604215L94.0167 0.901583ZM95.6195 0.464452V0.764452H96.2023V0.464452V0.164452H95.6195V0.464452ZM96.2023 0.464452L95.911 0.536274L97.6596 7.62751L97.9508 7.55569L98.2421 7.48387L96.4936 0.392631L96.2023 0.464452ZM97.9508 7.55569V7.25569H97.6594V7.55569V7.85569H97.9508V7.55569ZM97.6594 7.55569L97.9277 7.42152C97.7982 7.16248 97.442 6.45012 96.8592 5.28444L96.5909 5.4186L96.3225 5.55277C96.9054 6.71845 97.2616 7.43081 97.3911 7.68985L97.6594 7.55569ZM96.5909 5.4186L96.8621 5.2905C96.2895 4.07779 95.4892 3.16889 94.456 2.58338L94.3081 2.84439L94.1602 3.10539C95.0697 3.6208 95.7913 4.42805 96.3196 5.5467L96.5909 5.4186ZM94.3081 2.84439L94.4624 2.58714C93.4319 1.96883 92.1439 1.67013 90.6167 1.67013V1.97013V2.27013C92.0685 2.27013 93.2414 2.55426 94.1537 3.10164L94.3081 2.84439ZM90.6167 1.97013V1.67013H87.994V1.97013V2.27013H90.6167V1.97013ZM87.994 1.97013V1.67013C86.4637 1.67013 85.3221 2.0689 84.6892 2.9624L84.934 3.13581L85.1789 3.30921C85.6469 2.64847 86.5453 2.27013 87.994 2.27013V1.97013ZM84.934 3.13581L84.6844 2.9694C84.1136 3.82559 83.8569 5.24808 83.8569 7.16713H84.1569H84.4569C84.4569 5.26533 84.7183 4.00026 85.1837 3.30222L84.934 3.13581ZM84.1569 7.16713H83.8569V28.7322H84.1569H84.4569V7.16713H84.1569ZM84.1569 28.7322H83.8569C83.8569 30.0998 83.9379 31.1771 84.1066 31.953L84.3998 31.8893L84.6929 31.8256C84.5378 31.112 84.4569 30.0847 84.4569 28.7322H84.1569ZM84.3998 31.8893L84.1066 31.953C84.2795 32.7484 84.6298 33.4048 85.1665 33.9057L85.3712 33.6864L85.5759 33.4671C85.1411 33.0613 84.8438 32.5197 84.6929 31.8256L84.3998 31.8893ZM85.3712 33.6864L85.1736 33.9122C85.745 34.4121 86.5772 34.7673 87.6384 34.9994L87.7025 34.7064L87.7667 34.4133C86.7555 34.1921 86.0335 33.8673 85.5687 33.4606L85.3712 33.6864ZM87.7025 34.7064H87.4025V34.9492H87.7025H88.0025V34.7064H87.7025ZM87.7025 34.9492V34.6492H77.1143V34.9492V35.2492H87.7025V34.9492ZM77.1143 34.9492H77.4143V34.7064H77.1143H76.8143V34.9492H77.1143ZM96.6076 34.7064L96.5365 34.4149L96.3076 34.4707V34.7064H96.6076ZM99.5703 33.1036L99.3487 32.9012L99.344 32.9067L99.5703 33.1036ZM101.562 29.3151L101.281 29.21L101.28 29.2126L101.562 29.3151ZM110.79 4.64148L111.071 4.74658L111.076 4.73435L111.079 4.72177L110.79 4.64148ZM110.401 1.92156L110.209 2.1522L110.219 2.15934L110.401 1.92156ZM108.41 1.193H108.11V1.4457L108.359 1.48864L108.41 1.193ZM108.41 0.950153V0.650153H108.11V0.950153H108.41ZM115.016 0.950153L115.296 0.843313L115.222 0.650153H115.016V0.950153ZM125.604 28.7322L125.884 28.6259L125.884 28.6254L125.604 28.7322ZM127.741 32.8607L127.974 32.6712L127.974 32.6712L127.741 32.8607ZM130.849 34.7064H131.149V34.4748L130.925 34.4162L130.849 34.7064ZM130.849 34.9492V35.2492H131.149V34.9492H130.849ZM120.261 34.9492H119.961V35.2492H120.261V34.9492ZM120.261 34.7064L120.208 34.411L119.961 34.4552V34.7064H120.261ZM122.204 33.8807L121.992 33.6685L121.992 33.6685L122.204 33.8807ZM121.815 28.7322L121.535 28.8387L121.535 28.8399L121.815 28.7322ZM119.824 23.4867L120.105 23.3802L120.031 23.1867H119.824V23.4867ZM104.962 23.4867V23.1867H104.754L104.681 23.3813L104.962 23.4867ZM102.776 29.3151L102.495 29.2098L102.495 29.2105L102.776 29.3151ZM102.63 33.9292L102.824 33.7002L102.824 33.7002L102.63 33.9292ZM104.67 34.7064H104.97V34.4537L104.721 34.4107L104.67 34.7064ZM104.67 34.9492V35.2492H104.97V34.9492H104.67ZM96.6076 34.9492H96.3076V35.2492H96.6076V34.9492ZM105.35 22.4667V22.1667H105.226L105.138 22.2546L105.35 22.4667ZM119.436 22.4667V22.7667H119.872L119.716 22.3595L119.436 22.4667ZM112.296 3.81579L112.576 3.70854L112.292 2.96815L112.015 3.71069L112.296 3.81579ZM105.302 22.5153L105.021 22.4102L105.514 22.7274L105.302 22.5153ZM96.6076 34.7064L96.6787 34.9978C98.044 34.6648 99.0954 34.1069 99.7967 33.3004L99.5703 33.1036L99.344 32.9067C98.7501 33.5897 97.8263 34.1003 96.5365 34.4149L96.6076 34.7064ZM99.5703 33.1036L99.7919 33.3058C100.512 32.5167 101.192 31.2087 101.844 29.4176L101.562 29.3151L101.28 29.2126C100.636 30.9833 99.9882 32.2009 99.3488 32.9013L99.5703 33.1036ZM101.562 29.3151L101.843 29.4202L111.071 4.74658L110.79 4.64148L110.509 4.53639L101.281 29.21L101.562 29.3151ZM110.79 4.64148L111.079 4.72177C111.242 4.13455 111.333 3.66451 111.333 3.33009H111.033H110.733C110.733 3.57851 110.662 3.98273 110.501 4.56119L110.79 4.64148ZM111.033 3.33009H111.333C111.333 2.63842 111.091 2.07382 110.584 1.68377L110.401 1.92156L110.219 2.15934C110.553 2.4169 110.733 2.79131 110.733 3.33009H111.033ZM110.401 1.92156L110.594 1.69109C110.142 1.31515 109.413 1.06157 108.461 0.897365L108.41 1.193L108.359 1.48864C109.285 1.64823 109.883 1.88035 110.209 2.15202L110.401 1.92156ZM108.41 1.193H108.71V0.950153H108.41H108.11V1.193H108.41ZM108.41 0.950153V1.25015H115.016V0.950153V0.650153H108.41V0.950153ZM115.016 0.950153L114.735 1.05699L125.324 28.8391L125.604 28.7322L125.884 28.6254L115.296 0.843313L115.016 0.950153ZM125.604 28.7322L125.323 28.8386C126.04 30.7271 126.766 32.1387 127.508 33.0502L127.741 32.8607L127.974 32.6712C127.292 31.8342 126.593 30.4934 125.884 28.6259L125.604 28.7322ZM127.741 32.8607L127.508 33.0502C128.27 33.9848 129.367 34.6283 130.773 34.9966L130.849 34.7064L130.925 34.4162C129.612 34.0721 128.637 33.4851 127.974 32.6712L127.741 32.8607ZM130.849 34.7064H130.549V34.9492H130.849H131.149V34.7064H130.849ZM130.849 34.9492V34.6492H120.261V34.9492V35.2492H130.849V34.9492ZM120.261 34.9492H120.561V34.7064H120.261H119.961V34.9492H120.261ZM120.261 34.7064L120.314 35.0017C121.244 34.8356 121.964 34.5452 122.416 34.0928L122.204 33.8807L121.992 33.6685C121.667 33.9932 121.091 34.2534 120.208 34.411L120.261 34.7064ZM122.204 33.8807L122.416 34.0928C122.868 33.641 123.087 33.0594 123.087 32.375H122.787H122.487C122.487 32.9211 122.317 33.3432 121.992 33.6685L122.204 33.8807ZM122.787 32.375H123.087C123.087 31.5686 122.743 30.3074 122.095 28.6246L121.815 28.7322L121.535 28.8399C122.183 30.5246 122.487 31.6919 122.487 32.375H122.787ZM121.815 28.7322L122.096 28.6258L120.105 23.3802L119.824 23.4867L119.544 23.5932L121.535 28.8387L121.815 28.7322ZM119.824 23.4867V23.1867H104.962V23.4867V23.7867H119.824V23.4867ZM104.962 23.4867L104.681 23.3813L102.495 29.2098L102.776 29.3151L103.057 29.4204L105.243 23.592L104.962 23.4867ZM102.776 29.3151L102.495 29.2105C101.975 30.6061 101.699 31.6858 101.699 32.4236H101.999H102.299C102.299 31.8014 102.54 30.8088 103.057 29.4197L102.776 29.3151ZM101.999 32.4236H101.699C101.699 33.1424 101.936 33.7349 102.436 34.1583L102.63 33.9292L102.824 33.7002C102.482 33.4112 102.299 33 102.299 32.4236H101.999ZM102.63 33.9292L102.436 34.1583C102.918 34.5658 103.661 34.8368 104.619 35.002L104.67 34.7064L104.721 34.4107C103.801 34.2521 103.184 34.0051 102.824 33.7002L102.63 33.9292ZM104.67 34.7064H104.37V34.9492H104.67H104.97V34.7064H104.67ZM104.67 34.9492V34.6492H96.6076V34.9492V35.2492H104.67V34.9492ZM96.6076 34.9492H96.9076V34.7064H96.6076H96.3076V34.9492H96.6076ZM105.35 22.4667V22.7667H119.436V22.4667V22.1667H105.35V22.4667ZM119.436 22.4667L119.716 22.3595L112.576 3.70854L112.296 3.81579L112.016 3.92304L119.155 22.574L119.436 22.4667ZM112.296 3.81579L112.015 3.71069L105.021 22.4102L105.302 22.5153L105.583 22.6204L112.577 3.92089L112.296 3.81579ZM105.302 22.5153L105.514 22.7274L105.562 22.6788L105.35 22.4667L105.138 22.2546L105.089 22.3031L105.302 22.5153ZM134.765 34.7064L134.703 34.413L134.465 34.4638V34.7064H134.765ZM137.534 33.1521L137.284 32.9857L137.283 32.9882L137.534 33.1521ZM137.534 2.79582L137.28 2.95482L137.283 2.96107L137.288 2.96713L137.534 2.79582ZM134.765 1.193H134.465V1.43553L134.703 1.48634L134.765 1.193ZM134.765 0.950153V0.650153H134.465V0.950153H134.765ZM141.517 0.950153L141.757 0.770684L141.667 0.650153H141.517V0.950153ZM162.548 29.1208L162.307 29.3003L162.848 30.0241V29.1208H162.548ZM161.77 2.79582L161.516 2.95482L161.52 2.96107L161.524 2.96713L161.77 2.79582ZM159.002 1.193H158.702V1.43553L158.939 1.48634L159.002 1.193ZM159.002 0.950153V0.650153H158.702V0.950153H159.002ZM167.162 0.950153H167.462V0.650153H167.162V0.950153ZM167.162 1.193L167.223 1.48664L167.462 1.43671V1.193H167.162ZM164.345 2.74725L164.093 2.58337L164.093 2.58337L164.345 2.74725ZM163.616 34.9492V35.2492H163.916V34.9492H163.616ZM162.548 34.9492L162.307 35.1289L162.397 35.2492H162.548V34.9492ZM139.38 3.9615L139.62 3.78186L139.08 3.05924V3.9615H139.38ZM140.108 33.1521L139.857 33.316L139.857 33.316L140.108 33.1521ZM142.925 34.7064H143.225V34.4627L142.987 34.4127L142.925 34.7064ZM142.925 34.9492V35.2492H143.225V34.9492H142.925ZM134.765 34.9492H134.465V35.2492H134.765V34.9492ZM134.765 34.7064L134.828 34.9997C136.223 34.7008 137.237 34.1562 137.785 33.316L137.534 33.1521L137.283 32.9882C136.859 33.6375 136.028 34.1291 134.703 34.413L134.765 34.7064ZM137.534 33.1521L137.784 33.3185C138.353 32.4645 138.611 31.1098 138.611 29.3151H138.311H138.011C138.011 31.0822 137.751 32.2855 137.284 32.9857L137.534 33.1521ZM138.311 29.3151H138.611V6.58428H138.311H138.011V29.3151H138.311ZM138.311 6.58428H138.611C138.611 4.79153 138.354 3.44876 137.78 2.6245L137.534 2.79582L137.288 2.96713C137.75 3.63235 138.011 4.81523 138.011 6.58428H138.311ZM137.534 2.79582L137.788 2.63682C137.242 1.76217 136.227 1.19939 134.828 0.899662L134.765 1.193L134.703 1.48634C136.024 1.76946 136.855 2.27522 137.28 2.95482L137.534 2.79582ZM134.765 1.193H135.065V0.950153H134.765H134.465V1.193H134.765ZM134.765 0.950153V1.25015H141.517V0.950153V0.650153H134.765V0.950153ZM141.517 0.950153L141.276 1.12962L162.307 29.3003L162.548 29.1208L162.788 28.9413L141.757 0.770684L141.517 0.950153ZM162.548 29.1208H162.848V6.58428H162.548H162.248V29.1208H162.548ZM162.548 6.58428H162.848C162.848 4.79153 162.59 3.44876 162.017 2.6245L161.77 2.79582L161.524 2.96713C161.987 3.63235 162.248 4.81523 162.248 6.58428H162.548ZM161.77 2.79582L162.025 2.63682C161.478 1.76217 160.464 1.19939 159.065 0.899662L159.002 1.193L158.939 1.48634C160.26 1.76946 161.091 2.27522 161.516 2.95482L161.77 2.79582ZM159.002 1.193H159.302V0.950153H159.002H158.702V1.193H159.002ZM159.002 0.950153V1.25015H167.162V0.950153V0.650153H159.002V0.950153ZM167.162 0.950153H166.862V1.193H167.162H167.462V0.950153H167.162ZM167.162 1.193L167.1 0.899366C165.675 1.19768 164.643 1.74129 164.093 2.58337L164.345 2.74725L164.596 2.91113C165.018 2.26372 165.864 1.77116 167.223 1.48664L167.162 1.193ZM164.345 2.74725L164.093 2.58337C163.557 3.40617 163.316 4.76221 163.316 6.58428H163.616H163.916C163.916 4.77979 164.161 3.5778 164.596 2.91113L164.345 2.74725ZM163.616 6.58428H163.316V34.9492H163.616H163.916V6.58428H163.616ZM163.616 34.9492V34.6492H162.548V34.9492V35.2492H163.616V34.9492ZM162.548 34.9492L162.788 34.7696L139.62 3.78186L139.38 3.9615L139.139 4.14114L162.307 35.1289L162.548 34.9492ZM139.38 3.9615H139.08V29.3151H139.38H139.68V3.9615H139.38ZM139.38 29.3151H139.08C139.08 31.1372 139.32 32.4932 139.857 33.316L140.108 33.1521L140.359 32.9882C139.925 32.3216 139.68 31.1196 139.68 29.3151H139.38ZM140.108 33.1521L139.857 33.316C140.406 34.1581 141.438 34.7017 142.864 35L142.925 34.7064L142.987 34.4127C141.627 34.1282 140.782 33.6357 140.359 32.9882L140.108 33.1521ZM142.925 34.7064H142.625V34.9492H142.925H143.225V34.7064H142.925ZM142.925 34.9492V34.6492H134.765V34.9492V35.2492H142.925V34.9492ZM134.765 34.9492H135.065V34.7064H134.765H134.465V34.9492H134.765ZM180.159 33.395L180.027 33.6645L180.031 33.6663L180.159 33.395ZM173.214 27.3723L172.965 27.5408L172.965 27.5408L173.214 27.3723ZM173.214 8.62423L172.964 8.45712L172.964 8.45712L173.214 8.62423ZM180.208 2.55297L180.077 2.28284L180.077 2.28284L180.208 2.55297ZM198.567 2.55297L198.437 2.82309L198.438 2.82366L198.567 2.55297ZM205.561 8.62423L205.311 8.78923L205.312 8.79134L205.561 8.62423ZM205.561 27.3723L205.809 27.5408L205.81 27.5394L205.561 27.3723ZM198.567 33.395L198.695 33.6663L198.698 33.6651L198.567 33.395ZM197.596 32.6179L197.46 32.3503L197.458 32.3512L197.596 32.6179ZM204.638 17.804L204.339 17.8263L204.339 17.827L204.638 17.804ZM201.821 8.96422L201.571 9.12911L201.572 9.13063L201.821 8.96422ZM195.75 3.4758L195.613 3.7427L195.617 3.74484L195.75 3.4758ZM181.131 3.28152L180.995 3.01399L180.993 3.01483L181.131 3.28152ZM175.982 8.23567L176.241 8.38777L176.241 8.38777L175.982 8.23567ZM174.136 18.0954L174.436 18.073L174.436 18.0724L174.136 18.0954ZM176.954 26.9837L176.703 27.1486L176.704 27.1501L176.954 26.9837ZM182.976 32.4721L182.839 32.739L182.843 32.7412L182.976 32.4721ZM189.339 35.4349V35.1349C186.144 35.1349 183.128 34.4644 180.287 33.1237L180.159 33.395L180.031 33.6663C182.954 35.0455 186.057 35.7349 189.339 35.7349V35.4349ZM180.159 33.395L180.291 33.1254C177.488 31.756 175.213 29.7833 173.462 27.2038L173.214 27.3723L172.965 27.5408C174.776 30.2069 177.131 32.2492 180.027 33.6645L180.159 33.395ZM173.214 27.3723L173.462 27.2038C171.719 24.6376 170.842 21.5737 170.842 17.9983H170.542H170.242C170.242 21.676 171.146 24.8614 172.965 27.5408L173.214 27.3723ZM170.542 17.9983H170.842C170.842 14.4559 171.719 11.3911 173.463 8.79134L173.214 8.62423L172.964 8.45712C171.146 11.1677 170.242 14.3522 170.242 17.9983H170.542ZM173.214 8.62423L173.463 8.79134C175.214 6.18049 177.504 4.19227 180.338 2.82309L180.208 2.55297L180.077 2.28284C177.147 3.69835 174.775 5.75763 172.964 8.45712L173.214 8.62423ZM180.208 2.55297L180.338 2.82309C183.179 1.45065 186.194 0.764452 189.387 0.764452V0.464452V0.164452C186.105 0.164452 183 0.870599 180.077 2.28284L180.208 2.55297ZM189.387 0.464452V0.764452C192.581 0.764452 195.596 1.45065 198.437 2.82309L198.567 2.55297L198.698 2.28284C195.775 0.870599 192.67 0.164452 189.387 0.164452V0.464452ZM198.567 2.55297L198.438 2.82366C201.304 4.19285 203.593 6.18043 205.311 8.78922L205.561 8.62423L205.812 8.45923C204.033 5.7577 201.659 3.69777 198.697 2.28227L198.567 2.55297ZM205.561 8.62423L205.312 8.79134C207.056 11.3911 207.933 14.4559 207.933 17.9983H208.233H208.533C208.533 14.3522 207.629 11.1677 205.81 8.45712L205.561 8.62423ZM208.233 17.9983H207.933C207.933 21.5406 207.056 24.6054 205.312 27.2052L205.561 27.3723L205.81 27.5394C207.629 24.8288 208.533 21.6443 208.533 17.9983H208.233ZM205.561 27.3723L205.313 27.2038C203.562 29.7825 201.272 31.7552 198.437 33.1249L198.567 33.395L198.698 33.6651C201.627 32.2501 203.999 30.2076 205.809 27.5408L205.561 27.3723ZM198.567 33.395L198.439 33.1237C195.598 34.4642 192.566 35.1349 189.339 35.1349V35.4349V35.7349C192.652 35.7349 195.772 35.0456 198.695 33.6663L198.567 33.395ZM190.602 34.2692V34.5692C193.173 34.5692 195.551 34.0085 197.733 32.8845L197.596 32.6179L197.458 32.3512C195.366 33.4291 193.082 33.9692 190.602 33.9692V34.2692ZM197.596 32.6179L197.732 32.8854C199.955 31.7572 201.729 30.0645 203.051 27.8158L202.793 27.6637L202.534 27.5116C201.267 29.6666 199.576 31.2767 197.46 32.3503L197.596 32.6179ZM202.793 27.6637L203.051 27.8158C204.379 25.5588 205.036 22.8486 205.036 19.6982H204.736H204.436C204.436 22.7648 203.797 25.3649 202.534 27.5116L202.793 27.6637ZM204.736 19.6982H205.036C205.036 19.2653 205.002 18.6245 204.938 17.781L204.638 17.804L204.339 17.827C204.404 18.6672 204.436 19.2892 204.436 19.6982H204.736ZM204.638 17.804L204.938 17.7816C204.675 14.2753 203.724 11.2768 202.071 8.79781L201.821 8.96422L201.572 9.13063C203.157 11.5087 204.083 14.4033 204.339 17.8263L204.638 17.804ZM201.821 8.96422L202.072 8.79933C200.426 6.2979 198.363 4.43048 195.883 3.20676L195.75 3.4758L195.617 3.74484C197.994 4.91724 199.978 6.70877 201.571 9.1291L201.821 8.96422ZM195.75 3.4758L195.887 3.20893C193.449 1.95704 190.877 1.33013 188.173 1.33013V1.63013V1.93013C190.78 1.93013 193.259 2.53367 195.613 3.74267L195.75 3.4758ZM188.173 1.63013V1.33013C185.602 1.33013 183.208 1.8909 180.995 3.01399L181.131 3.28152L181.266 3.54904C183.392 2.47029 185.693 1.93013 188.173 1.93013V1.63013ZM181.131 3.28152L180.993 3.01483C178.802 4.14337 177.046 5.83604 175.724 8.08356L175.982 8.23567L176.241 8.38777C177.509 6.23161 179.184 4.62151 181.268 3.54821L181.131 3.28152ZM175.982 8.23567L175.724 8.08356C174.396 10.3406 173.739 13.0508 173.739 16.2012H174.039H174.339C174.339 13.1346 174.978 10.5345 176.241 8.38777L175.982 8.23567ZM174.039 16.2012H173.739C173.739 16.6341 173.772 17.2749 173.837 18.1184L174.136 18.0954L174.436 18.0724C174.371 17.2322 174.339 16.6101 174.339 16.2012H174.039ZM174.136 18.0954L173.837 18.1178C174.099 21.6241 175.051 24.6381 176.703 27.1486L176.954 26.9837L177.204 26.8188C175.618 24.4076 174.692 21.496 174.436 18.073L174.136 18.0954ZM176.954 26.9837L176.704 27.1501C178.349 29.6175 180.394 31.4833 182.839 32.739L182.976 32.4721L183.113 32.2053C180.766 31.0001 178.796 29.2069 177.203 26.8173L176.954 26.9837ZM182.976 32.4721L182.843 32.7412C185.312 33.9592 187.9 34.5692 190.602 34.5692V34.2692V33.9692C187.994 33.9692 185.497 33.3812 183.109 32.2031L182.976 32.4721ZM212.081 34.7064L212.017 34.4133L211.781 34.4649V34.7064H212.081ZM214.364 33.6864L214.166 33.4605L214.159 33.4671L214.364 33.6864ZM215.384 31.8893L215.091 31.8256L215.091 31.8256L215.384 31.8893ZM215.384 4.01007L215.091 4.0738L215.091 4.0738L215.384 4.01007ZM214.364 2.21298L214.159 2.43241L214.166 2.43875L214.364 2.21298ZM212.081 1.193H211.781V1.43447L212.017 1.48607L212.081 1.193ZM212.081 0.950153V0.650153H211.781V0.950153H212.081ZM234.812 0.901583L234.833 1.20082L234.842 1.20017L234.852 1.19895L234.812 0.901583ZM236.415 0.464452V0.164452H236.358L236.306 0.184851L236.415 0.464452ZM236.998 0.464452L237.289 0.392631L237.233 0.164452H236.998V0.464452ZM238.746 7.55569V7.85569H239.129L239.037 7.48387L238.746 7.55569ZM238.455 7.55569L238.187 7.69179L238.271 7.85569H238.455V7.55569ZM235.346 3.42723L235.151 3.65503L235.154 3.65769L235.346 3.42723ZM219.901 3.13581L219.656 2.96233L219.651 2.9694L219.901 3.13581ZM219.124 16.9783H218.824V17.2783H219.124V16.9783ZM230.101 16.2497L229.959 15.9853L229.955 15.9875L230.101 16.2497ZM231.995 13.0441V12.7441H231.753L231.702 12.9809L231.995 13.0441ZM232.238 13.0441H232.538V12.7441H232.238V13.0441ZM232.238 21.9324V22.2324H232.538V21.9324H232.238ZM231.995 21.9324L231.702 21.9969L231.754 22.2324H231.995V21.9324ZM230.101 18.7754L229.955 19.0377L229.959 19.0398L230.101 18.7754ZM219.124 18.0468V17.7468H218.824V18.0468H219.124ZM219.367 31.8893L219.073 31.953L219.073 31.953L219.367 31.8893ZM220.338 33.6864L220.133 33.9058L220.14 33.9122L220.338 33.6864ZM222.669 34.7064H222.969V34.4649L222.733 34.4133L222.669 34.7064ZM222.669 34.9492V35.2492H222.969V34.9492H222.669ZM212.081 34.9492H211.781V35.2492H212.081V34.9492ZM212.081 34.7064L212.145 34.9994C213.206 34.7675 214.027 34.4116 214.569 33.9057L214.364 33.6864L214.159 33.4671C213.73 33.8679 213.029 34.1919 212.017 34.4133L212.081 34.7064ZM214.364 33.6864L214.561 33.9122C215.133 33.4119 215.503 32.7536 215.677 31.953L215.384 31.8893L215.091 31.8256C214.941 32.5145 214.631 33.0542 214.166 33.4606L214.364 33.6864ZM215.384 31.8893L215.677 31.953C215.846 31.1771 215.927 30.0998 215.927 28.7322H215.627H215.327C215.327 30.0847 215.246 31.112 215.091 31.8256L215.384 31.8893ZM215.627 28.7322H215.927V7.16713H215.627H215.327V28.7322H215.627ZM215.627 7.16713H215.927C215.927 5.79962 215.846 4.72224 215.677 3.94634L215.384 4.01007L215.091 4.0738C215.246 4.78738 215.327 5.8147 215.327 7.16713H215.627ZM215.384 4.01007L215.677 3.94634C215.503 3.14581 215.133 2.48743 214.561 1.9872L214.364 2.21298L214.166 2.43875C214.631 2.84517 214.941 3.38484 215.091 4.0738L215.384 4.01007ZM214.364 2.21298L214.569 1.99366C214.027 1.48782 213.206 1.13189 212.145 0.899933L212.081 1.193L212.017 1.48607C213.029 1.70744 213.73 2.03149 214.159 2.43229L214.364 2.21298ZM212.081 1.193H212.381V0.950153H212.081H211.781V1.193H212.081ZM212.081 0.950153V1.25015H231.363V0.950153V0.650153H212.081V0.950153ZM231.363 0.950153V1.25015C233.205 1.25015 234.367 1.23414 234.833 1.20082L234.812 0.901583L234.791 0.602345C234.35 0.633788 233.213 0.650153 231.363 0.650153V0.950153ZM234.812 0.901583L234.852 1.19895C235.366 1.13031 235.924 0.977113 236.523 0.744053L236.415 0.464452L236.306 0.184851C235.74 0.405114 235.229 0.543336 234.772 0.604215L234.812 0.901583ZM236.415 0.464452V0.764452H236.998V0.464452V0.164452H236.415V0.464452ZM236.998 0.464452L236.706 0.536273L238.455 7.62751L238.746 7.55569L239.037 7.48387L237.289 0.392631L236.998 0.464452ZM238.746 7.55569V7.25569H238.455V7.55569V7.85569H238.746V7.55569ZM238.455 7.55569L238.722 7.41958C237.802 5.61337 236.743 4.20103 235.538 3.19676L235.346 3.42723L235.154 3.65769C236.28 4.59623 237.294 5.9362 238.187 7.69179L238.455 7.55569ZM235.346 3.42723L235.541 3.19945C234.334 2.16487 232.619 1.67013 230.441 1.67013V1.97013V2.27013C232.536 2.27013 234.091 2.74679 235.151 3.655L235.346 3.42723ZM230.441 1.97013V1.67013H222.961V1.97013V2.27013H230.441V1.97013ZM222.961 1.97013V1.67013C221.43 1.67013 220.289 2.0689 219.656 2.9624L219.901 3.13581L220.146 3.30921C220.614 2.64847 221.512 2.27013 222.961 2.27013V1.97013ZM219.901 3.13581L219.651 2.9694C219.08 3.82559 218.824 5.24808 218.824 7.16713H219.124H219.424C219.424 5.26533 219.685 4.00026 220.15 3.30222L219.901 3.13581ZM219.124 7.16713H218.824V16.9783H219.124H219.424V7.16713H219.124ZM219.124 16.9783V17.2783H227.138V16.9783V16.6783H219.124V16.9783ZM227.138 16.9783V17.2783C228.284 17.2783 229.323 17.0249 230.246 16.512L230.101 16.2497L229.955 15.9875C229.13 16.446 228.193 16.6783 227.138 16.6783V16.9783ZM230.101 16.2497L230.242 16.5142C231.265 15.9665 231.925 14.7908 232.288 13.1074L231.995 13.0441L231.702 12.9809C231.352 14.6002 230.75 15.5616 229.959 15.9853L230.101 16.2497ZM231.995 13.0441V13.3441H232.238V13.0441V12.7441H231.995V13.0441ZM232.238 13.0441H231.938V21.9324H232.238H232.538V13.0441H232.238ZM232.238 21.9324V21.6324H231.995V21.9324V22.2324H232.238V21.9324ZM231.995 21.9324L232.288 21.868C231.924 20.2149 231.263 19.0577 230.242 18.5109L230.101 18.7754L229.959 19.0398C230.752 19.4645 231.353 20.412 231.702 21.9969L231.995 21.9324ZM230.101 18.7754L230.246 18.5131C229.323 18.0002 228.284 17.7468 227.138 17.7468V18.0468V18.3468C228.193 18.3468 229.13 18.5791 229.955 19.0376L230.101 18.7754ZM227.138 18.0468V17.7468H219.124V18.0468V18.3468H227.138V18.0468ZM219.124 18.0468H218.824V28.7322H219.124H219.424V18.0468H219.124ZM219.124 28.7322H218.824C218.824 30.0998 218.905 31.1771 219.073 31.953L219.367 31.8893L219.66 31.8256C219.505 31.112 219.424 30.0847 219.424 28.7322H219.124ZM219.367 31.8893L219.073 31.953C219.246 32.7484 219.597 33.4048 220.133 33.9057L220.338 33.6864L220.543 33.4671C220.108 33.0613 219.811 32.5197 219.66 31.8256L219.367 31.8893ZM220.338 33.6864L220.14 33.9122C220.712 34.4121 221.544 34.7673 222.605 34.9994L222.669 34.7064L222.733 34.4133C221.722 34.1921 221 33.8673 220.536 33.4606L220.338 33.6864ZM222.669 34.7064H222.369V34.9492H222.669H222.969V34.7064H222.669ZM222.669 34.9492V34.6492H212.081V34.9492V35.2492H222.669V34.9492ZM212.081 34.9492H212.381V34.7064H212.081H211.781V34.9492H212.081ZM242.889 34.7064L242.825 34.4133L242.589 34.4649V34.7064H242.889ZM245.172 33.6864L244.974 33.4605L244.967 33.4671L245.172 33.6864ZM246.192 31.8893L245.899 31.8256L245.899 31.8256L246.192 31.8893ZM246.192 4.01007L245.899 4.0738L245.899 4.0738L246.192 4.01007ZM245.172 2.21298L244.967 2.43241L244.974 2.43875L245.172 2.21298ZM242.889 1.193H242.589V1.43447L242.825 1.48607L242.889 1.193ZM242.889 0.950153V0.650153H242.589V0.950153H242.889ZM265.62 0.901583L265.641 1.20082L265.65 1.20017L265.659 1.19895L265.62 0.901583ZM267.223 0.464452V0.164452H267.166L267.114 0.184851L267.223 0.464452ZM267.805 0.464452L268.097 0.392631L268.04 0.164452H267.805V0.464452ZM269.554 7.55569V7.85569H269.937L269.845 7.48387L269.554 7.55569ZM269.262 7.55569L268.995 7.69179L269.079 7.85569H269.262V7.55569ZM266.154 3.42723L265.959 3.65503L265.962 3.65769L266.154 3.42723ZM250.709 3.13581L250.464 2.96233L250.459 2.9694L250.709 3.13581ZM249.932 16.9783H249.632V17.2783H249.932V16.9783ZM260.908 16.2497L260.767 15.9853L260.763 15.9875L260.908 16.2497ZM262.803 13.0441V12.7441H262.56L262.509 12.9809L262.803 13.0441ZM263.046 13.0441H263.346V12.7441H263.046V13.0441ZM263.046 21.9324V22.2324H263.346V21.9324H263.046ZM262.803 21.9324L262.51 21.9969L262.561 22.2324H262.803V21.9324ZM260.908 18.7754L260.763 19.0377L260.767 19.0398L260.908 18.7754ZM249.932 18.0468V17.7468H249.632V18.0468H249.932ZM250.174 31.8893L249.881 31.953L249.881 31.953L250.174 31.8893ZM251.146 33.6864L250.941 33.9058L250.948 33.9122L251.146 33.6864ZM253.477 34.7064H253.777V34.4649L253.541 34.4133L253.477 34.7064ZM253.477 34.9492V35.2492H253.777V34.9492H253.477ZM242.889 34.9492H242.589V35.2492H242.889V34.9492ZM242.889 34.7064L242.953 34.9994C244.013 34.7675 244.834 34.4116 245.376 33.9057L245.172 33.6864L244.967 33.4671C244.538 33.8679 243.837 34.1919 242.825 34.4133L242.889 34.7064ZM245.172 33.6864L245.369 33.9122C245.941 33.4119 246.311 32.7536 246.485 31.953L246.192 31.8893L245.899 31.8256C245.749 32.5145 245.439 33.0542 244.974 33.4606L245.172 33.6864ZM246.192 31.8893L246.485 31.953C246.654 31.1771 246.735 30.0998 246.735 28.7322H246.435H246.135C246.135 30.0847 246.054 31.112 245.899 31.8256L246.192 31.8893ZM246.435 28.7322H246.735V7.16713H246.435H246.135V28.7322H246.435ZM246.435 7.16713H246.735C246.735 5.79962 246.654 4.72224 246.485 3.94634L246.192 4.01007L245.899 4.0738C246.054 4.78738 246.135 5.8147 246.135 7.16713H246.435ZM246.192 4.01007L246.485 3.94634C246.311 3.14581 245.941 2.48743 245.369 1.9872L245.172 2.21298L244.974 2.43875C245.439 2.84517 245.749 3.38484 245.899 4.0738L246.192 4.01007ZM245.172 2.21298L245.376 1.99366C244.834 1.48782 244.013 1.13189 242.953 0.899933L242.889 1.193L242.825 1.48607C243.837 1.70744 244.538 2.03149 244.967 2.43229L245.172 2.21298ZM242.889 1.193H243.189V0.950153H242.889H242.589V1.193H242.889ZM242.889 0.950153V1.25015H262.171V0.950153V0.650153H242.889V0.950153ZM262.171 0.950153V1.25015C264.013 1.25015 265.175 1.23414 265.641 1.20082L265.62 0.901583L265.598 0.602345C265.158 0.633788 264.021 0.650153 262.171 0.650153V0.950153ZM265.62 0.901583L265.659 1.19895C266.174 1.13031 266.732 0.977113 267.331 0.744053L267.223 0.464452L267.114 0.184851C266.547 0.405114 266.037 0.543336 265.58 0.604215L265.62 0.901583ZM267.223 0.464452V0.764452H267.805V0.464452V0.164452H267.223V0.464452ZM267.805 0.464452L267.514 0.536273L269.263 7.62751L269.554 7.55569L269.845 7.48387L268.097 0.392631L267.805 0.464452ZM269.554 7.55569V7.25569H269.262V7.55569V7.85569H269.554V7.55569ZM269.262 7.55569L269.53 7.41958C268.61 5.61337 267.551 4.20103 266.346 3.19676L266.154 3.42723L265.962 3.65769C267.088 4.59623 268.101 5.9362 268.995 7.69179L269.262 7.55569ZM266.154 3.42723L266.349 3.19945C265.142 2.16487 263.427 1.67013 261.248 1.67013V1.97013V2.27013C263.344 2.27013 264.899 2.74679 265.959 3.655L266.154 3.42723ZM261.248 1.97013V1.67013H253.769V1.97013V2.27013H261.248V1.97013ZM253.769 1.97013V1.67013C252.238 1.67013 251.097 2.0689 250.464 2.9624L250.709 3.13581L250.954 3.30921C251.422 2.64847 252.32 2.27013 253.769 2.27013V1.97013ZM250.709 3.13581L250.459 2.9694C249.888 3.82559 249.632 5.24808 249.632 7.16713H249.932H250.232C250.232 5.26533 250.493 4.00026 250.958 3.30222L250.709 3.13581ZM249.932 7.16713H249.632V16.9783H249.932H250.232V7.16713H249.932ZM249.932 16.9783V17.2783H257.946V16.9783V16.6783H249.932V16.9783ZM257.946 16.9783V17.2783C259.092 17.2783 260.131 17.0249 261.054 16.512L260.908 16.2497L260.763 15.9875C259.937 16.446 259.001 16.6783 257.946 16.6783V16.9783ZM260.908 16.2497L261.05 16.5142C262.072 15.9665 262.733 14.7908 263.096 13.1074L262.803 13.0441L262.509 12.9809C262.16 14.6002 261.558 15.5616 260.767 15.9853L260.908 16.2497ZM262.803 13.0441V13.3441H263.046V13.0441V12.7441H262.803V13.0441ZM263.046 13.0441H262.746V21.9324H263.046H263.346V13.0441H263.046ZM263.046 21.9324V21.6324H262.803V21.9324V22.2324H263.046V21.9324ZM262.803 21.9324L263.096 21.868C262.732 20.2149 262.071 19.0577 261.05 18.5109L260.908 18.7754L260.767 19.0398C261.559 19.4645 262.161 20.412 262.51 21.9969L262.803 21.9324ZM260.908 18.7754L261.054 18.5131C260.131 18.0002 259.092 17.7468 257.946 17.7468V18.0468V18.3468C259.001 18.3468 259.937 18.5791 260.763 19.0376L260.908 18.7754ZM257.946 18.0468V17.7468H249.932V18.0468V18.3468H257.946V18.0468ZM249.932 18.0468H249.632V28.7322H249.932H250.232V18.0468H249.932ZM249.932 28.7322H249.632C249.632 30.0998 249.713 31.1771 249.881 31.953L250.174 31.8893L250.468 31.8256C250.312 31.112 250.232 30.0847 250.232 28.7322H249.932ZM250.174 31.8893L249.881 31.953C250.054 32.7484 250.404 33.4048 250.941 33.9057L251.146 33.6864L251.351 33.4671C250.916 33.0613 250.618 32.5197 250.468 31.8256L250.174 31.8893ZM251.146 33.6864L250.948 33.9122C251.52 34.4121 252.352 34.7673 253.413 34.9994L253.477 34.7064L253.541 34.4133C252.53 34.1921 251.808 33.8673 251.343 33.4606L251.146 33.6864ZM253.477 34.7064H253.177V34.9492H253.477H253.777V34.7064H253.477ZM253.477 34.9492V34.6492H242.889V34.9492V35.2492H253.477V34.9492ZM242.889 34.9492H243.189V34.7064H242.889H242.589V34.9492H242.889Z" fill="#010101" mask="url(#path-1-outside-1_11_1003)"/>
</svg>
