<svg width="68" height="68" viewBox="0 0 68 68" fill="none" xmlns="http://www.w3.org/2000/svg">
<path d="M22.0283 52.231C30.3889 57.9811 41.8209 57.0695 49.21 49.5263C56.599 41.9834 57.4921 30.3132 51.8594 21.7783" stroke="black" stroke-width="1.5" stroke-miterlimit="10" stroke-linecap="round"/>
<path d="M22.6708 59.6591L24.0237 59.3385L22.4693 52.5361L29.2296 51.4503L29.0124 50.0498L20.7793 51.3738L22.6708 59.6591Z" fill="black"/>
<path d="M16.1399 46.2203C10.5074 37.6856 11.4003 26.0154 18.7894 18.4724C26.1785 10.9294 37.6106 10.0177 45.971 15.7677" stroke="black" stroke-width="1.5" stroke-miterlimit="10" stroke-linecap="round"/>
<path d="M38.9867 17.95L38.7695 16.5496L45.5289 15.4649L43.9754 8.66144L45.3283 8.34082L47.2189 16.6271L38.9867 17.95Z" fill="black"/>
<path d="M21.3379 32.6857L27.4924 26.3838H40.5082L46.6628 32.6857L33.9942 44.1877L21.3379 32.6857Z" fill="white" stroke="black" stroke-width="1.5" stroke-miterlimit="10"/>
<path d="M31.6934 36.4553L27.5889 32.726L29.979 30.2793" fill="white"/>
<path d="M31.6934 36.4553L27.5889 32.726L29.979 30.2793" stroke="black" stroke-width="1.5" stroke-miterlimit="10" stroke-linecap="round"/>
<path d="M33.9941 44.0298L39.6315 32.7419L35.309 26.4033" fill="white"/>
<path d="M33.9941 44.0298L39.6315 32.7419L35.309 26.4033" stroke="black" stroke-width="1.5" stroke-miterlimit="10"/>
</svg>
