<svg width="16" height="10" viewBox="0 0 16 10" fill="none" xmlns="http://www.w3.org/2000/svg">
<path d="M15.4997 1.81341C15.5046 1.62234 15.4404 1.43471 15.3158 1.27661C15.1912 1.11851 15.0125 0.99778 14.8046 0.931219C14.5967 0.864657 14.37 0.855567 14.1559 0.90521C13.9417 0.954854 13.751 1.06077 13.6099 1.20822L8.01725 6.83446L2.42658 1.20822C2.33959 1.10622 2.22915 1.02079 2.10209 0.957298C1.97502 0.893801 1.83407 0.8536 1.68813 0.839211C1.5422 0.824822 1.39443 0.836556 1.254 0.873678C1.11358 0.9108 0.983517 0.97251 0.872046 1.05494C0.760575 1.13738 0.670154 1.23876 0.606251 1.35274C0.542349 1.46672 0.506458 1.59085 0.500795 1.71734C0.495132 1.84383 0.519751 1.96997 0.573273 2.08786C0.626795 2.20574 0.707981 2.31284 0.81175 2.40243L7.2067 8.84396C7.30686 8.94511 7.43119 9.02634 7.57131 9.08204C7.71142 9.13774 7.86393 9.16658 8.01823 9.16658C8.17254 9.16658 8.32505 9.13774 8.46516 9.08204C8.60528 9.02634 8.72973 8.94511 8.82989 8.84396L15.231 2.40243C15.3987 2.2397 15.4938 2.03099 15.4997 1.81341Z" fill="black"/>
</svg>
