<svg width="16" height="16" viewBox="0 0 16 16" fill="none" xmlns="http://www.w3.org/2000/svg">
    <g clip-path="url(#clip0_361_9174)">
        <path
            d="M8.00039 0.400391C3.80275 0.400391 0.400391 3.80275 0.400391 8.00039C0.400391 12.198 3.80275 15.6004 8.00039 15.6004C12.198 15.6004 15.6004 12.198 15.6004 8.00039C15.6004 3.80275 12.198 0.400391 8.00039 0.400391ZM11.2809 4.63088L12.2027 5.47355C12.2677 5.53292 12.2725 5.63361 12.2135 5.69891L6.73299 11.7645C6.67161 11.8325 6.56587 11.8351 6.50113 11.7704L3.79399 9.06326C3.7315 9.00077 3.7315 8.89947 3.79399 8.83698L4.56236 8.06861C4.62485 8.00612 4.72615 8.00612 4.78864 8.06861L6.53085 9.81082L11.2808 4.63033L11.2809 4.63088Z"
            fill="#2B2B2B" />
    </g>
    <defs>
        <clipPath id="clip0_361_9174">
            <rect width="16" height="16" fill="white" />
        </clipPath>
    </defs>
</svg>