<svg width="14" height="14" viewBox="0 0 14 14" fill="none" xmlns="http://www.w3.org/2000/svg">
<g clip-path="url(#clip0_253_8329)">
<path d="M1.00417 12.9961C1.04481 13.0367 1.09306 13.069 1.14617 13.091C1.19928 13.113 1.25621 13.1244 1.31371 13.1244C1.3712 13.1244 1.42813 13.113 1.48124 13.091C1.53435 13.069 1.58261 13.0367 1.62324 12.9961L7.00011 7.61918L12.3792 12.9961C12.4613 13.0781 12.5726 13.1243 12.6887 13.1243C12.8048 13.1243 12.9161 13.0781 12.9982 12.9961C13.0803 12.914 13.1264 12.8026 13.1264 12.6865C13.1264 12.5704 13.0803 12.4591 12.9982 12.377L7.61918 7.00012L12.9961 1.62105C13.0781 1.53896 13.1243 1.42762 13.1243 1.31152C13.1243 1.19543 13.0781 1.08408 12.9961 1.00199C12.914 0.919899 12.8026 0.873779 12.6865 0.873779C12.5704 0.873779 12.4591 0.919899 12.377 1.00199L7.00011 6.38105L1.62105 1.00418C1.53736 0.932505 1.4297 0.895052 1.31959 0.899305C1.20948 0.903558 1.10503 0.949203 1.02712 1.02712C0.9492 1.10504 0.903554 1.20948 0.899301 1.31959C0.895048 1.4297 0.932501 1.53736 1.00417 1.62105L6.38105 7.00012L1.00417 12.3792C0.92269 12.4612 0.876953 12.572 0.876953 12.6876C0.876953 12.8032 0.92269 12.9141 1.00417 12.9961Z" fill="black" stroke="black" stroke-width="0.5"/>
</g>
<defs>
<clipPath id="clip0_253_8329">
<rect width="14" height="14" fill="white"/>
</clipPath>
</defs>
</svg>
