<svg width="53" height="53" viewBox="0 0 53 53" fill="none" xmlns="http://www.w3.org/2000/svg">
<path d="M47.7584 5.29243C29.4975 -2.03765 11.9653 2.23823 5.48186 5.29243C-2.74841 23.9392 2.05258 41.4606 5.48186 47.8904C21.8138 55.8635 40.4712 51.2126 47.7584 47.8904C55.7315 31.1727 51.0805 12.526 47.7584 5.29243Z" stroke="#2B2B2B" stroke-width="1.11352"/>
<path d="M5.43725 48.1841L17.8148 18.1244M17.8148 18.1244L3.50828 11.5337M17.8148 18.1244L14.3766 9.43334M17.8148 18.1244L38.3991 9.69355M3.02603 40.7898L9.28897 38.271M17.8148 34.8421L11.2242 50.2739M17.8148 34.8421L9.28897 14.2664M17.8148 34.8421L9.28897 38.271M17.8148 34.8421L26.3344 38.5393M4.955 47.3804L14.3766 43.4843M26.3344 38.5393L34.6933 34.8421M26.3344 38.5393L14.3766 43.4843M26.3344 38.5393L38.1129 43.7147M47.5531 47.8626L38.1129 43.7147M9.28897 14.2664L5.75874 5.74682L14.3766 9.43334M9.28897 14.2664L1.25781 26.9655L9.28897 38.271M34.6933 34.8421L44.0263 14.4894M34.6933 34.8421L49.9643 41.915M34.6933 34.8421L38.1129 43.7147M12.0279 3.49635L14.3766 9.43334M34.6933 18.1244L14.3766 9.43334M34.6933 18.1244L38.3991 9.69355M34.6933 18.1244L44.0263 14.4894M34.6933 18.1244L43.0521 38.5393M49.9643 12.1767L44.0263 14.4894M41.1232 3.49635L38.3991 9.69355M14.3766 9.43334L26.3344 1.56738L38.3991 9.69355M38.3991 9.69355L47.3923 5.74682L44.0263 14.4894M44.0263 14.4894L51.8933 26.4832L43.0521 38.5393M43.0521 38.5393L46.9101 48.1841M40.6409 50.2739L38.1129 43.7147M14.3766 43.4843L26.9774 52.2028L38.1129 43.7147" stroke="#2B2B2B" stroke-width="1.11352"/>
</svg>
