<svg width="23" height="20" viewBox="0 0 23 20" fill="none" xmlns="http://www.w3.org/2000/svg">
<g clip-path="url(#clip0_1772_3341)">
<path d="M11.5083 0.504626C13.7758 0.504626 16.0432 0.508321 18.3106 0.500007C18.6021 0.499083 18.7933 0.589614 18.9578 0.839036C20.052 2.50046 21.1596 4.15312 22.2625 5.80854C22.4899 6.14941 22.482 6.23948 22.2104 6.55588C18.779 10.5586 15.3485 14.5619 11.9171 18.5646C11.5979 18.9369 11.4012 18.9369 11.0852 18.5683C7.64459 14.5531 4.20303 10.5387 0.761467 6.52447C0.523592 6.24687 0.515278 6.13879 0.719896 5.83164C1.83583 4.15727 2.95546 2.48476 4.06585 0.806242C4.20903 0.589614 4.37901 0.500469 4.63674 0.500931C6.92727 0.506935 9.21779 0.504626 11.5083 0.504626ZM6.82658 6.55773C8.38593 10.1969 9.93049 13.8011 11.4995 17.4625C13.0714 13.7947 14.6178 10.1854 16.1726 6.55773H6.82658ZM16.0187 5.76512C15.9799 5.69814 15.9633 5.66535 15.9429 5.63486C15.0067 4.22933 14.0723 2.82286 13.1277 1.42333C13.0774 1.34897 12.9444 1.29308 12.8487 1.29215C11.9504 1.28245 11.0515 1.29031 10.1527 1.28245C10.0016 1.28107 9.91895 1.3328 9.83858 1.45428C8.92726 2.83026 8.01041 4.20254 7.09586 5.57621C7.0603 5.62979 7.03166 5.68799 6.98778 5.76558L16.0187 5.76512ZM1.82382 6.56419C4.58085 9.78082 7.30787 12.9623 10.0783 16.1947C10.0589 16.1014 10.0575 16.0788 10.0492 16.0593C8.7148 12.9429 7.37854 9.82701 6.04829 6.70831C5.98548 6.56096 5.89402 6.54849 5.76191 6.54849C4.53282 6.55173 3.30326 6.55034 2.07416 6.5508C2.00811 6.5508 1.94206 6.55819 1.82382 6.56419ZM21.1753 6.56512C21.0866 6.55727 21.051 6.55126 21.0155 6.55126C19.7402 6.5508 18.4644 6.55449 17.1891 6.54618C17.0219 6.54526 16.9868 6.63949 16.9369 6.75542C15.6234 9.82239 14.3079 12.8889 12.9933 15.9558C12.9697 16.0113 12.9526 16.0695 12.9328 16.1267C12.9444 16.1319 12.9559 16.1369 12.9674 16.1416C15.6936 12.961 18.4201 9.7799 21.1753 6.56512ZM1.71527 5.75727C1.78317 5.76605 1.8132 5.77344 1.84322 5.77344C3.18733 5.77436 4.5319 5.77713 5.87601 5.76789C5.96007 5.76743 6.07323 5.69075 6.12311 5.6164C7.05337 4.23441 7.97623 2.84735 8.89955 1.46074C8.93096 1.41317 8.95221 1.35913 8.9887 1.28615H8.75406C7.47138 1.28615 6.18824 1.28984 4.90556 1.28199C4.73744 1.28107 4.64691 1.34065 4.55776 1.47598C3.6603 2.83349 2.75592 4.18637 1.85384 5.54064C1.81227 5.603 1.77301 5.66628 1.71527 5.75727ZM21.2843 5.76097C21.2455 5.69584 21.2247 5.6575 21.2002 5.62101C20.2681 4.22194 19.3342 2.82379 18.4062 1.42194C18.331 1.30832 18.2455 1.28384 18.1213 1.28384C16.8076 1.28707 15.494 1.28569 14.1804 1.28615C14.1305 1.28615 14.081 1.29169 14.0035 1.29631C14.0579 1.38684 14.094 1.45243 14.1351 1.51432C15.0377 2.8686 15.9429 4.22102 16.8399 5.57898C16.9364 5.72493 17.0363 5.77945 17.2108 5.77851C18.4861 5.77112 19.7615 5.77482 21.0363 5.7739C21.1092 5.7739 21.1817 5.76697 21.2843 5.76097Z" fill="#2B2B2B"/>
</g>
<defs>
<clipPath id="clip0_1772_3341">
<rect width="23" height="19" fill="white" transform="translate(0 0.5)"/>
</clipPath>
</defs>
</svg>
