<svg width="57" height="57" viewBox="0 0 57 57" fill="none" xmlns="http://www.w3.org/2000/svg">
<g clip-path="url(#clip0_68_280)">
<path d="M48.8422 28.0265H47.0319C47.0347 31.6788 45.983 35.2543 44.0031 38.3234C42.0232 41.3925 39.1994 43.8247 35.8707 45.3278C32.5421 46.8309 28.8503 47.3411 25.2387 46.7969C21.6272 46.2528 18.2496 44.6775 15.5116 42.2604C12.7736 39.8432 10.7917 36.6869 9.80398 33.1707C8.81627 29.6545 8.86475 25.9279 9.94358 22.4386C11.0224 18.9493 13.0857 15.8456 15.8857 13.5005C18.6856 11.1554 22.1031 9.66848 25.7275 9.21847L23.8163 11.1297L25.0936 12.407L29.3513 8.14932L25.0936 3.8916L23.8163 5.16892L25.9909 7.3435C21.9913 7.74536 18.1942 9.29893 15.06 11.8158C11.9257 14.3327 9.58903 17.7049 8.33316 21.5234C7.07728 25.3419 6.95619 29.4427 7.98456 33.3287C9.01293 37.2147 11.1466 40.7188 14.1268 43.4163C17.1071 46.1137 20.8059 47.8886 24.7748 48.5258C28.7437 49.163 32.8122 48.635 36.4871 47.0059C40.1619 45.3768 43.2851 42.7166 45.4782 39.3478C47.6712 35.979 48.8398 32.0463 48.8422 28.0265Z" fill="#2B2B2B"/>
<path d="M21.719 0.738975L23.4899 0.385742L23.8431 2.15664L22.0722 2.50829L21.719 0.738975Z" fill="#2B2B2B"/>
<path d="M16.5134 2.50184L18.1818 1.80957L18.8725 3.47796L17.2041 4.17024L16.5134 2.50184Z" fill="#2B2B2B"/>
<path d="M11.7605 5.25195L13.2617 4.24902L14.2662 5.75184L12.765 6.75476L11.7605 5.25195Z" fill="#2B2B2B"/>
<path d="M7.63062 8.86618L8.90793 7.58887L10.1852 8.86618L8.90793 10.1435L7.63062 8.86618Z" fill="#2B2B2B"/>
<path d="M25.3584 16.2831V17.2513C23.8541 17.4701 22.4787 18.2229 21.4836 19.372C20.4885 20.5212 19.9401 21.99 19.9385 23.5101V24.4137C19.941 26.0896 20.6078 27.6962 21.7929 28.8812C22.9779 30.0663 24.5845 30.7331 26.2604 30.7356H29.8732C30.1128 30.7356 30.3426 30.8308 30.5121 31.0003C30.6815 31.1697 30.7767 31.3996 30.7767 31.6392V32.5428C30.7767 32.7824 30.6815 33.0123 30.5121 33.1817C30.3426 33.3512 30.1128 33.4464 29.8732 33.4464H26.2604C26.0208 33.4464 25.7909 33.3512 25.6215 33.1817C25.452 33.0123 25.3568 32.7824 25.3568 32.5428V31.6392H19.9385V32.5428C19.9404 34.0628 20.4889 35.5315 21.484 36.6806C22.4791 37.8296 23.8542 38.5825 25.3584 38.8016V39.7683C25.3584 40.487 25.6439 41.1763 26.1521 41.6845C26.6603 42.1927 27.3496 42.4783 28.0684 42.4783C28.7871 42.4783 29.4764 42.1927 29.9846 41.6845C30.4928 41.1763 30.7783 40.487 30.7783 39.7683V38.7969C32.2826 38.5781 33.6579 37.8253 34.6531 36.6761C35.6482 35.527 36.1966 34.0582 36.1982 32.5381V31.6345C36.1957 29.9586 35.5289 28.352 34.3438 27.167C33.1588 25.9819 31.5522 25.3151 29.8763 25.3126H26.2636C26.1449 25.3126 26.0274 25.2892 25.9178 25.2438C25.8081 25.1984 25.7085 25.1318 25.6246 25.0479C25.5407 24.964 25.4742 24.8644 25.4287 24.7548C25.3833 24.6451 25.36 24.5276 25.36 24.409V23.5054C25.36 23.3867 25.3833 23.2692 25.4287 23.1596C25.4742 23.05 25.5407 22.9504 25.6246 22.8665C25.7085 22.7826 25.8081 22.716 25.9178 22.6706C26.0274 22.6252 26.1449 22.6018 26.2636 22.6018H29.8732C30.1128 22.6018 30.3426 22.697 30.5121 22.8665C30.6815 23.0359 30.7767 23.2657 30.7767 23.5054V24.409H36.1966V23.5054C36.1951 21.9853 35.6466 20.5164 34.6515 19.3673C33.6564 18.2181 32.281 17.4654 30.7767 17.2466V16.2783C30.7767 15.5596 30.4912 14.8703 29.983 14.3621C29.4748 13.8539 28.7855 13.5684 28.0668 13.5684C27.348 13.5684 26.6587 13.8539 26.1505 14.3621C25.6423 14.8703 25.3568 15.5596 25.3568 16.2783L25.3584 16.2831ZM28.9711 16.2831V18.9922H29.8747C30.9153 18.9934 31.9237 19.3535 32.7297 20.0116C33.5358 20.6697 34.0902 21.5856 34.2996 22.605H32.4294C32.242 22.077 31.8959 21.6199 31.4385 21.2964C30.9812 20.9729 30.4349 20.7987 29.8747 20.7978H26.262C25.5438 20.7991 24.8555 21.0849 24.3477 21.5927C23.8399 22.1005 23.5541 22.7888 23.5528 23.507V24.4106C23.5537 25.1288 23.8393 25.8174 24.3472 26.3253C24.8551 26.8332 25.5437 27.1189 26.262 27.1197H29.8732C31.0706 27.121 32.2186 27.5972 33.0653 28.4439C33.912 29.2906 34.3882 30.4386 34.3895 31.6361V32.5396C34.3899 33.7382 33.9144 34.8878 33.0675 35.7359C32.2206 36.5839 31.0717 37.061 29.8732 37.0623H28.9696V39.7714C28.9696 39.8901 28.9462 40.0076 28.9008 40.1172C28.8554 40.2269 28.7888 40.3265 28.7049 40.4104C28.621 40.4943 28.5214 40.5608 28.4118 40.6063C28.3021 40.6517 28.1847 40.675 28.066 40.675C27.9473 40.675 27.8298 40.6517 27.7202 40.6063C27.6106 40.5608 27.511 40.4943 27.427 40.4104C27.3431 40.3265 27.2766 40.2269 27.2312 40.1172C27.1858 40.0076 27.1624 39.8901 27.1624 39.7714V37.0623H26.2588C25.2182 37.0611 24.2099 36.701 23.4038 36.0429C22.5978 35.3848 22.0433 34.4688 21.8339 33.4495H23.7042C23.8916 33.9775 24.2377 34.4346 24.695 34.7581C25.1524 35.0816 25.6986 35.2558 26.2588 35.2567H29.8732C30.5914 35.2558 31.28 34.9702 31.7879 34.4623C32.2958 33.9544 32.5815 33.2658 32.5823 32.5475V31.644C32.5811 30.9258 32.2952 30.2374 31.7874 29.7296C31.2796 29.2219 30.5913 28.936 29.8732 28.9348H26.2604C25.063 28.9335 23.915 28.4573 23.0683 27.6106C22.2215 26.7639 21.7453 25.6159 21.7441 24.4184V23.5149C21.7453 22.3174 22.2215 21.1694 23.0683 20.3227C23.915 19.476 25.063 18.9998 26.2604 18.9985H27.164V16.2894C27.164 16.0497 27.2592 15.8199 27.4286 15.6504C27.5981 15.481 27.8279 15.3858 28.0676 15.3858C28.3072 15.3858 28.537 15.481 28.7065 15.6504C28.8759 15.8199 28.9711 16.0497 28.9711 16.2894V16.2831Z" fill="#2B2B2B"/>
<path d="M7.79459 11.4368L6.39743 10.292C2.16951 15.4589 -0.0732072 21.9663 0.0736779 28.6409C0.220563 35.3155 2.74739 41.718 7.19851 46.6939L8.54364 45.4891C4.37991 40.8343 2.01628 34.8451 1.87893 28.6013C1.74159 22.3576 3.83958 16.2702 7.79459 11.4368Z" fill="#2B2B2B"/>
<path d="M32.2937 53.8913L34.0646 53.5381L34.4179 55.309L32.6469 55.6622L32.2937 53.8913Z" fill="#2B2B2B"/>
<path d="M37.2549 52.5712L38.9233 51.8789L39.614 53.5473L37.9456 54.238L37.2549 52.5712Z" fill="#2B2B2B"/>
<path d="M41.8674 50.3047L43.3687 49.3018L44.3732 50.803L42.8719 51.8059L41.8674 50.3047Z" fill="#2B2B2B"/>
<path d="M45.95 47.1875L47.2273 45.9102L48.5046 47.1875L47.2273 48.4648L45.95 47.1875Z" fill="#2B2B2B"/>
<path d="M48.9367 9.3584L47.5916 10.5632C51.755 15.2181 54.1184 21.2073 54.2558 27.4509C54.3931 33.6946 52.2953 39.782 48.3406 44.6154L49.7377 45.7603C53.9654 40.5933 56.2079 34.0859 56.061 27.4114C55.9141 20.7369 53.3875 14.3344 48.9367 9.3584Z" fill="#2B2B2B"/>
</g>
<defs>
<clipPath id="clip0_68_280">
<rect width="56" height="56" fill="white" transform="translate(0.067627 0.0234375)"/>
</clipPath>
</defs>
</svg>
