<svg width="82" height="17" viewBox="0 0 82 17" fill="none" xmlns="http://www.w3.org/2000/svg">
<path d="M8.19883 0L10.0396 5.66525H15.9964L11.1772 9.16657L13.018 14.8318L8.19883 11.3305L3.37968 14.8318L5.22043 9.16657L0.401279 5.66525H6.35808L8.19883 0Z" fill="#202020"/>
<path d="M24.5965 0L26.4373 5.66525H32.3941L27.5749 9.16657L29.4157 14.8318L24.5965 11.3305L19.7774 14.8318L21.6181 9.16657L16.799 5.66525H22.7558L24.5965 0Z" fill="#202020"/>
<path d="M40.9942 0L42.835 5.66525H48.7918L43.9726 9.16657L45.8134 14.8318L40.9942 11.3305L36.1751 14.8318L38.0158 9.16657L33.1967 5.66525H39.1535L40.9942 0Z" fill="#202020"/>
<path d="M57.3919 0L59.2327 5.66525H65.1895L60.3703 9.16657L62.2111 14.8318L57.3919 11.3305L52.5728 14.8318L54.4135 9.16657L49.5944 5.66525H55.5512L57.3919 0Z" fill="#202020"/>
<path d="M73.7897 0L75.6304 5.66525H81.5872L76.7681 9.16657L78.6088 14.8318L73.7897 11.3305L68.9705 14.8318L70.8113 9.16657L65.9921 5.66525H71.9489L73.7897 0Z" fill="#202020"/>
</svg>
