<svg width="68" height="68" viewBox="0 0 68 68" fill="none" xmlns="http://www.w3.org/2000/svg">
    <path
        d="M56.668 23.9352C55.989 22.8262 54.771 22.1373 53.486 22.1373H43.849V16.4493C43.849 15.1843 42.82 14.1562 41.555 14.1562H6.66705C5.40205 14.1562 4.37305 15.1853 4.37305 16.4493V48.8903C4.37305 50.1553 5.40205 51.1833 6.66705 51.1833H11.813C12.293 54.0532 14.788 56.2503 17.792 56.2503C20.796 56.2503 23.291 54.0532 23.771 51.1833H46.257C46.737 54.0532 49.232 56.2503 52.236 56.2503C55.24 56.2503 57.735 54.0532 58.215 51.1833H60.632C62.696 51.1833 64.375 49.5042 64.375 47.4403V37.5272C64.375 36.8782 64.184 36.2112 63.813 35.5812L56.669 23.9352H56.668ZM61.519 35.6693H49.737C49.61 35.6693 49.503 35.5623 49.503 35.4352V28.1593H56.913L61.519 35.6693ZM6.37305 48.8903V16.4493C6.37305 16.2873 6.50505 16.1562 6.66705 16.1562H41.556C41.718 16.1562 41.85 16.2883 41.85 16.4493V49.1833H23.77C23.292 46.3112 20.796 44.1133 17.791 44.1133C14.786 44.1133 12.29 46.3112 11.812 49.1833H6.66705C6.50505 49.1833 6.37305 49.0513 6.37305 48.8903ZM17.791 54.2503C15.549 54.2503 13.726 52.4272 13.723 50.1862C13.723 50.1862 13.723 50.1842 13.723 50.1833C13.723 50.1823 13.723 50.1802 13.723 50.1792C13.723 47.9372 15.549 46.1133 17.791 46.1133C20.033 46.1133 21.859 47.9383 21.859 50.1813C21.859 52.4243 20.034 54.2503 17.791 54.2503ZM52.234 54.2503C49.997 54.2503 48.177 52.4342 48.167 50.1992C48.167 50.1942 48.17 50.1893 48.17 50.1833C48.17 50.1772 48.167 50.1723 48.167 50.1663C48.175 47.9303 49.996 46.1123 52.234 46.1123C54.472 46.1123 56.278 47.9172 56.299 50.1432C56.299 50.1572 56.291 50.1683 56.291 50.1823C56.291 50.1953 56.298 50.2072 56.299 50.2202C56.277 52.4452 54.464 54.2492 52.235 54.2492L52.234 54.2503ZM60.63 49.1833H58.213C57.735 46.3112 55.239 44.1133 52.234 44.1133C49.229 44.1133 46.733 46.3112 46.255 49.1833H43.849V24.1383H53.486C54.079 24.1383 54.644 24.4613 54.963 24.9813L55.687 26.1613H49.066C48.205 26.1613 47.504 26.8622 47.504 27.7232V35.4362C47.504 36.6682 48.5061 37.6702 49.738 37.6702H62.374V47.4412C62.374 48.4022 61.592 49.1842 60.631 49.1842L60.63 49.1833Z"
        fill="#2B2B2B" />
    <path
        d="M11.7432 32.3235H15.0112C15.5642 32.3235 16.0112 31.8755 16.0112 31.3235C16.0112 30.7715 15.5642 30.3235 15.0112 30.3235H11.7432V28.6025H15.3512C15.9042 28.6025 16.3512 28.1545 16.3512 27.6025C16.3512 27.0505 15.9042 26.6025 15.3512 26.6025H10.7432C10.1902 26.6025 9.74316 27.0505 9.74316 27.6025V35.0435C9.74316 35.5955 10.1902 36.0435 10.7432 36.0435C11.2962 36.0435 11.7432 35.5955 11.7432 35.0435V32.3225V32.3235Z"
        fill="#2B2B2B" />
    <path
        d="M25.7578 36.0436H30.3658C30.9188 36.0436 31.3658 35.5956 31.3658 35.0436C31.3658 34.4916 30.9188 34.0436 30.3658 34.0436H26.7578V32.3226H29.4848C30.0378 32.3226 30.4848 31.8746 30.4848 31.3226C30.4848 30.7706 30.0378 30.3226 29.4848 30.3226H26.7578V28.6016H30.3658C30.9188 28.6016 31.3658 28.1536 31.3658 27.6016C31.3658 27.0496 30.9188 26.6016 30.3658 26.6016H25.7578C25.2048 26.6016 24.7578 27.0496 24.7578 27.6016V35.0426C24.7578 35.5946 25.2048 36.0436 25.7578 36.0436Z"
        fill="#2B2B2B" />
    <path
        d="M18.251 36.0435C18.804 36.0435 19.251 35.5955 19.251 35.0435V32.3225H19.998L22.009 35.5695C22.198 35.8755 22.526 36.0435 22.861 36.0435C23.041 36.0435 23.222 35.9955 23.386 35.8935C23.856 35.6025 24 34.9865 23.71 34.5175L22.202 32.0835C23.178 31.6485 23.859 30.6695 23.859 29.5345V29.3915C23.859 27.8535 22.608 26.6025 21.07 26.6025H18.251C17.698 26.6025 17.251 27.0505 17.251 27.6025V35.0435C17.251 35.5955 17.698 36.0435 18.251 36.0435ZM19.251 28.6025H21.07C21.506 28.6025 21.859 28.9565 21.859 29.3915V29.5345C21.859 29.9695 21.505 30.3235 21.07 30.3235H19.251V28.6025Z"
        fill="#2B2B2B" />
    <path
        d="M33.2646 36.0436H37.8726C38.4256 36.0436 38.8726 35.5956 38.8726 35.0436C38.8726 34.4916 38.4256 34.0436 37.8726 34.0436H34.2646V32.3226H36.9916C37.5446 32.3226 37.9916 31.8746 37.9916 31.3226C37.9916 30.7706 37.5446 30.3226 36.9916 30.3226H34.2646V28.6016H37.8726C38.4256 28.6016 38.8726 28.1536 38.8726 27.6016C38.8726 27.0496 38.4256 26.6016 37.8726 26.6016H33.2646C32.7116 26.6016 32.2646 27.0496 32.2646 27.6016V35.0426C32.2646 35.5946 32.7116 36.0436 33.2646 36.0436Z"
        fill="#2B2B2B" />
</svg>