<svg width="20" height="20" viewBox="0 0 20 20" fill="none" xmlns="http://www.w3.org/2000/svg">
<path d="M9.43281 11.9874C9.27575 11.9885 9.12402 11.9305 9.00781 11.8249L6.50781 9.52485C6.38514 9.41214 6.31228 9.25531 6.30525 9.08887C6.29822 8.92243 6.35759 8.76002 6.47031 8.63735C6.58302 8.51469 6.73985 8.44183 6.90629 8.4348C7.07273 8.42776 7.23514 8.48714 7.35781 8.59985L9.38906 10.4749L12.6016 6.87485C12.6563 6.81289 12.7228 6.76239 12.7971 6.72629C12.8715 6.6902 12.9523 6.66921 13.0349 6.66456C13.1174 6.65991 13.2001 6.67169 13.278 6.6992C13.356 6.72672 13.4277 6.76942 13.4891 6.82485C13.6123 6.93521 13.6868 7.08995 13.6962 7.25514C13.7056 7.42034 13.6491 7.58251 13.5391 7.7061L9.90156 11.7999C9.84599 11.8616 9.77868 11.9116 9.70357 11.947C9.62845 11.9824 9.54703 12.0025 9.46406 12.0061L9.43281 11.9874Z" fill="black"/>
<path d="M10.0009 18.7499C9.80628 18.751 9.61257 18.7236 9.42588 18.6687C7.43361 18.08 5.68626 16.8605 4.44648 15.1936C3.20671 13.5266 2.54151 11.5023 2.55088 9.42492V4.87492C2.55576 4.45265 2.69544 4.04299 2.94953 3.7057C3.20363 3.3684 3.55885 3.12112 3.96338 2.99992L9.42588 1.36242C9.79931 1.25322 10.1962 1.25322 10.5696 1.36242L16.0259 2.99992C16.4316 3.12001 16.7882 3.36681 17.0435 3.70421C17.2988 4.0416 17.4393 4.45186 17.4446 4.87492V9.42492C17.454 11.5023 16.7888 13.5266 15.549 15.1936C14.3093 16.8605 12.5619 18.08 10.5696 18.6687C10.3849 18.723 10.1934 18.7503 10.0009 18.7499ZM10.0009 2.49992C9.93034 2.49083 9.85892 2.49083 9.78838 2.49992L4.33213 4.16867C4.18034 4.21434 4.04731 4.3077 3.95275 4.43491C3.85819 4.56212 3.80712 4.71641 3.80713 4.87492V9.42492C3.79135 11.238 4.36659 13.0069 5.44579 14.4638C6.52499 15.9208 8.04942 16.9866 9.78838 17.4999C9.92669 17.5436 10.0751 17.5436 10.2134 17.4999C11.9472 16.9881 13.4678 15.927 14.5465 14.4763C15.6252 13.0257 16.2036 11.2639 16.1946 9.45617V4.87492C16.1946 4.71641 16.1436 4.56212 16.049 4.43491C15.9544 4.3077 15.8214 4.21434 15.6696 4.16867L10.2134 2.53117C10.1442 2.51161 10.0728 2.5011 10.0009 2.49992Z" fill="black"/>
</svg>
