<svg width="36" height="71" viewBox="0 0 36 71" fill="none" xmlns="http://www.w3.org/2000/svg">
<path d="M31.3462 53.6412C33.9022 47.0584 34.977 40.9529 35.0114 35.3894M31.3462 53.6412C30.5714 55.9656 28.3753 60.3564 24.593 64.3622M31.3462 53.6412L20.7601 59.4924M31.3462 53.6412L23.1859 21.3356M31.1822 17.3202L17.9751 69.1718C17.9242 69.3716 18.1369 69.5337 18.3143 69.4288C20.7571 67.9836 22.8445 66.214 24.593 64.3622M31.1822 17.3202C33.4976 22.4274 35.0541 28.4917 35.0114 35.3894M31.1822 17.3202C29.3285 13.2311 26.9883 9.75554 24.593 6.95712M31.1822 17.3202L20.6041 11.1146M35.0114 35.3894L18.0224 56.014L20.7601 59.4924M35.0114 35.3894L23.1859 21.3356M24.593 64.3622L20.7601 59.4924M23.1859 21.3356L20.6041 11.1146M23.1859 21.3356L18.0224 14.9474L20.6041 11.1146M24.593 6.95712C22.5204 4.53562 20.4065 2.62112 18.5309 1.25475C18.356 1.12732 18.1222 1.28889 18.1752 1.49871L20.6041 11.1146M24.593 6.95712L20.6041 11.1146" stroke="#2B2B2B" stroke-width="1.17146"/>
<path d="M4.52883 53.6412C1.97275 47.0584 0.897987 40.9529 0.863569 35.3894M4.52883 53.6412C5.30363 55.9656 7.49972 60.3564 11.282 64.3622M4.52883 53.6412L15.1149 59.4924M4.52883 53.6412L12.6891 21.3356M4.69276 17.3202L17.8999 69.1718C17.9508 69.3716 17.7381 69.5337 17.5607 69.4288C15.1179 67.9836 13.0305 66.214 11.282 64.3622M4.69276 17.3202C2.37744 22.4274 0.820897 28.4917 0.863569 35.3894M4.69276 17.3202C6.54654 13.2311 8.88674 9.75554 11.282 6.95712M4.69276 17.3202L15.2709 11.1146M0.863569 35.3894L17.8526 56.014L15.1149 59.4924M0.863569 35.3894L12.6891 21.3356M11.282 64.3622L15.1149 59.4924M12.6891 21.3356L15.2709 11.1146M12.6891 21.3356L17.8526 14.9474L15.2709 11.1146M11.282 6.95712C13.3546 4.53562 15.4685 2.62112 17.3441 1.25475C17.519 1.12732 17.7528 1.28889 17.6998 1.49871L15.2709 11.1146M11.282 6.95712L15.2709 11.1146" stroke="#2B2B2B" stroke-width="1.17146"/>
</svg>
