<svg width="69" height="69" viewBox="0 0 69 69" fill="none" xmlns="http://www.w3.org/2000/svg">
<path d="M56.3579 27.0972C56.3579 25.5203 55.4218 24.095 54.0216 23.4498C53.9969 23.3144 53.9705 23.1783 53.9414 23.0399C54.9924 21.8919 55.2939 20.2405 54.6774 18.7636C54.0674 17.3132 52.6488 16.3653 51.1028 16.3163C51.0688 16.2648 51.0345 16.214 51.0001 16.1634C51.5387 14.7162 51.1936 13.0444 50.0737 11.925C48.9561 10.8161 47.2848 10.4732 45.8379 11.0074C45.7239 10.9289 45.61 10.8526 45.4964 10.7787C45.4224 9.23565 44.4506 7.82452 42.9842 7.22115C41.5241 6.63811 39.8498 6.97173 38.7242 8.02015C38.6674 8.00873 38.6106 7.99771 38.5537 7.98668C37.9032 6.58432 36.4735 5.646 34.8984 5.646C33.3263 5.646 31.8989 6.58565 31.2502 7.98974C31.1162 8.01524 30.9822 8.0422 30.8491 8.07036C29.7041 7.02592 28.0206 6.71248 26.5702 7.3278C25.1184 7.94352 24.1687 9.36435 24.1181 10.9087C24.0682 10.9414 24.0188 10.9743 23.9696 11.0074C22.509 10.4618 20.866 10.7998 19.7286 11.9276C18.5956 13.0607 18.2531 14.705 18.8005 16.1682C18.7233 16.2819 18.6463 16.3978 18.5705 16.5155C17.0223 16.5895 15.6137 17.5591 15.024 19.0153C14.4246 20.4956 14.7463 22.1422 15.8133 23.2802C15.8009 23.3397 15.7895 23.3992 15.7781 23.4596C14.3814 24.1084 13.4476 25.5306 13.4476 27.0973C13.4476 28.6738 14.3833 30.1039 15.7817 30.7531C15.8081 30.8933 15.8359 31.0334 15.865 31.1727C14.828 32.3163 14.519 33.9919 15.1272 35.4296C15.7372 36.8888 17.1554 37.8439 18.7014 37.8946C18.7345 37.9448 18.768 37.9951 18.802 38.0449C18.267 39.4984 18.6142 41.1706 19.7287 42.2758C20.5227 43.0694 21.5682 43.4653 22.6254 43.4492L15.8676 56.8755C15.7102 57.1875 15.7477 57.5621 15.9628 57.8376C16.1784 58.1126 16.5309 58.24 16.8734 58.1615L23.5005 56.6582L26.2299 62.8728C26.3706 63.1927 26.6829 63.4026 27.0325 63.4117C27.0405 63.4121 27.0483 63.4121 27.0563 63.4121C27.3965 63.4121 27.7089 63.2203 27.8623 62.9154L34.9047 48.9319L41.9437 62.9154C42.0971 63.2203 42.4097 63.4121 42.7498 63.4121C42.7578 63.4121 42.7656 63.4121 42.7736 63.4117C43.123 63.4024 43.4355 63.1927 43.5761 62.8728L46.3056 56.6582L52.9323 58.1615C53.272 58.2378 53.6277 58.113 53.8428 57.8376C54.058 57.5621 54.0953 57.1875 53.938 56.8755L47.1763 43.4411C48.2376 43.4541 49.2936 43.0595 50.0743 42.2785C51.1955 41.1666 51.5409 39.4971 51.0006 38.0472C51.0786 37.9343 51.1562 37.8185 51.2337 37.6986C52.7811 37.6307 54.19 36.6576 54.781 35.1896C55.3751 33.7327 55.0445 32.0574 53.99 30.9287C54.0006 30.8732 54.0107 30.8177 54.0208 30.7622C55.4213 30.116 56.3579 28.6838 56.3579 27.0972ZM27.1118 60.3917L24.853 55.2499C24.6789 54.8537 24.2497 54.636 23.8271 54.733L18.3402 55.9776L24.3782 43.9805C24.6217 45.3026 25.5225 46.4566 26.808 46.9803C28.2884 47.5801 29.935 47.258 31.0729 46.191C31.1324 46.2029 31.1919 46.2148 31.2518 46.2258C31.6617 47.1099 32.3811 47.8076 33.2498 48.2036L27.1118 60.3917ZM45.9781 54.7328C45.5581 54.6368 45.1257 54.8545 44.9521 55.2497L42.6939 60.3916L36.5574 48.201C37.4267 47.804 38.1454 47.1057 38.5546 46.2225C38.6917 46.1964 38.8284 46.1691 38.9641 46.1405C40.1095 47.1863 41.7922 47.4935 43.2404 46.876C44.3996 46.3885 45.2286 45.3831 45.5435 44.2126L51.4645 55.9773L45.9781 54.7328ZM52.9643 29.2342C52.6253 29.332 52.3746 29.618 52.3217 29.9666C52.2679 30.3214 52.2067 30.6766 52.1216 31.0243C52.0383 31.3663 52.1613 31.726 52.4367 31.945C53.2 32.5523 53.4768 33.6061 53.1076 34.5113C52.7409 35.4227 51.8071 35.9877 50.8361 35.8846C50.4857 35.8529 50.1494 36.0164 49.9687 36.3156C49.7227 36.7224 49.4847 37.0771 49.241 37.3997C49.0254 37.6849 48.9986 38.0706 49.1722 38.3825C49.6465 39.2353 49.4944 40.3102 48.7998 40.9991C48.1074 41.6918 47.0263 41.8475 46.1713 41.3772C45.8637 41.2084 45.4851 41.2331 45.2018 41.4415C44.9092 41.657 44.6094 41.8654 44.3014 42.0502C43.9969 42.2331 43.8281 42.5773 43.8695 42.9298C43.9832 43.8963 43.4367 44.835 42.536 45.2136C41.6404 45.5975 40.5818 45.334 39.963 44.5772C39.744 44.3078 39.391 44.1894 39.052 44.27C38.6262 44.3727 38.1922 44.4595 37.7506 44.5304C37.4077 44.586 37.127 44.8333 37.0288 45.1663C36.752 46.1041 35.8758 46.7596 34.8983 46.7596C33.9256 46.7596 33.053 46.1043 32.7762 45.1663C32.677 44.8291 32.3911 44.5806 32.0438 44.5286C31.7091 44.4789 30.8082 44.2946 30.7652 44.2946C30.4954 44.2946 30.235 44.4158 30.0614 44.6322C29.4387 45.4074 28.4047 45.6802 27.4876 45.3074C26.585 44.9398 26.0258 44.0046 26.1276 43.0342C26.1642 42.6861 25.9963 42.3479 25.6967 42.1673C25.3085 41.9329 24.9399 41.6883 24.6019 41.4402C24.319 41.2339 23.9434 41.2088 23.6358 41.3759C22.7632 41.8515 21.7059 41.7002 21.0021 40.9964C20.3132 40.3128 20.1594 39.2353 20.628 38.3763C20.7959 38.0682 20.7704 37.691 20.5624 37.4085C20.3468 37.1163 20.1468 36.8162 19.9621 36.5086C19.7792 36.204 19.4306 36.0362 19.0829 36.0767C18.116 36.1921 17.1706 35.6386 16.7912 34.7294C16.4152 33.8409 16.6784 32.7872 17.4303 32.1671C17.696 31.9484 17.8141 31.5977 17.7348 31.2631C17.6318 30.8276 17.5449 30.3927 17.4734 29.9494C17.4179 29.6064 17.1706 29.3258 16.8375 29.2275C15.8895 28.9477 15.2527 28.0918 15.2527 27.0971C15.2527 26.1279 15.9045 25.2588 16.8375 24.9834C17.1747 24.8842 17.4232 24.5982 17.4753 24.2509C17.5291 23.8886 17.5983 23.5342 17.6833 23.1875C17.767 22.8468 17.6454 22.4881 17.3717 22.2685C16.5965 21.6462 16.325 20.611 16.697 19.693C17.0615 18.7918 18.0028 18.2285 18.9756 18.3268C19.3246 18.3625 19.6565 18.1928 19.8367 17.8958C20.0711 17.5076 20.3162 17.1387 20.5639 16.8003C20.7705 16.5182 20.7956 16.1418 20.6281 15.8346C20.1521 14.9624 20.3038 13.9051 21.0023 13.2066C21.706 12.5089 22.7651 12.3613 23.6365 12.8351C23.9437 13.0017 24.3218 12.9762 24.6039 12.7695C24.8957 12.5545 25.1958 12.3544 25.5029 12.1701C25.8078 11.9877 25.9772 11.6435 25.9357 11.2905C25.8198 10.3033 26.3583 9.37869 27.2742 8.98995C28.1715 8.6105 29.2305 8.87586 29.851 9.63475C30.071 9.90317 30.4253 10.0212 30.7616 9.94102C31.1878 9.83836 31.6218 9.7515 32.0564 9.68057C32.3984 9.62506 32.6787 9.37776 32.7765 9.04507C33.0533 8.10675 33.9259 7.45145 34.8986 7.45145C35.8761 7.45145 36.7522 8.10675 37.029 9.04507C37.1282 9.38135 37.4129 9.62984 37.7598 9.6823C38.1145 9.73609 38.4698 9.80568 38.8175 9.89082C39.1631 9.97276 39.5195 9.85111 39.7381 9.57565C40.3442 8.81278 41.4049 8.53334 42.3066 8.89432C43.2153 9.26806 43.7821 10.2085 43.6852 11.1816C43.6508 11.528 43.8187 11.8639 44.1167 12.0437C44.4777 12.2619 44.8333 12.4998 45.2039 12.7709C45.4868 12.9784 45.8628 13.0022 46.1717 12.8339C47.0258 12.3655 48.1082 12.5174 48.8002 13.2041C49.4935 13.8974 49.6463 14.9762 49.1726 15.8286C48.9981 16.1419 49.0262 16.5289 49.2435 16.8145C49.4528 17.0886 49.6486 17.3791 49.8429 17.7024C50.0258 18.007 50.3735 18.1731 50.7221 18.1344C51.6935 18.018 52.6362 18.5667 53.0125 19.4614C53.3946 20.3773 53.1385 21.4147 52.3752 22.0436C52.1086 22.2635 51.9905 22.6161 52.0716 22.9519C52.1805 23.4045 52.2621 23.825 52.3207 24.237C52.3709 24.5886 52.6225 24.8782 52.9641 24.977C53.8998 25.2467 54.553 26.1189 54.553 27.0973C54.5527 28.0857 53.8995 28.9646 52.9643 29.2342Z" fill="#2B2B2B"/>
<path d="M34.9068 14.1362C27.7552 14.1362 21.9374 19.9542 21.9374 27.1056C21.9374 34.2571 27.7554 40.075 34.9068 40.075C42.0534 40.075 47.8678 34.2571 47.8678 27.1056C47.8678 19.9542 42.0534 14.1362 34.9068 14.1362ZM34.9068 38.27C28.7508 38.27 23.7426 33.2616 23.7426 27.1058C23.7426 20.9499 28.7509 15.9416 34.9068 15.9416C41.0584 15.9416 46.0626 20.9499 46.0626 27.1058C46.0626 33.2616 41.0583 38.27 34.9068 38.27Z" fill="#2B2B2B"/>
<path d="M34.2695 23.2751C34.2695 21.7224 33.0059 20.459 31.4533 20.459C29.9065 20.459 28.6482 21.7226 28.6482 23.2751C28.6482 24.822 29.9065 26.0808 31.4533 26.0808C33.0059 26.0808 34.2695 24.822 34.2695 23.2751ZM30.4534 23.2751C30.4534 22.7176 30.902 22.2642 31.4533 22.2642C32.0109 22.2642 32.4643 22.7177 32.4643 23.2751C32.4643 23.827 32.0107 24.2756 31.4533 24.2756C30.902 24.2756 30.4534 23.827 30.4534 23.2751Z" fill="#2B2B2B"/>
<path d="M38.3408 28.1309C36.794 28.1309 35.5352 29.3939 35.5352 30.9466C35.5352 32.4935 36.7938 33.7523 38.3408 33.7523C39.8935 33.7523 41.157 32.4936 41.157 30.9466C41.157 29.394 39.8935 28.1309 38.3408 28.1309ZM38.3408 31.9471C37.789 31.9471 37.3403 31.4985 37.3403 30.9466C37.3403 30.3896 37.789 29.936 38.3408 29.936C38.8984 29.936 39.3518 30.3896 39.3518 30.9466C39.3518 31.4985 38.8984 31.9471 38.3408 31.9471Z" fill="#2B2B2B"/>
<path d="M39.4854 21.0273C39.087 20.7264 38.5203 20.8057 38.2214 21.2045L30.1422 31.9201C29.842 32.318 29.9215 32.8839 30.3194 33.1841C30.7147 33.483 31.2825 33.4065 31.5833 33.0069L39.6626 22.2913C39.9627 21.8934 39.8833 21.3275 39.4854 21.0273Z" fill="#2B2B2B"/>
</svg>
