<svg width="24" height="24" viewBox="0 0 24 24" fill="none" xmlns="http://www.w3.org/2000/svg">
<path d="M22.5913 14.9913L20.2446 11.7779C20.1602 11.6668 20.0268 11.5957 19.8846 11.5957H4.11573C3.97351 11.5957 3.84017 11.6668 3.75573 11.7779L1.40906 14.9913C1.31129 15.129 1.29351 15.3068 1.36906 15.4579C1.44462 15.6046 1.60017 15.6979 1.76462 15.6979H9.65351C9.79573 15.6979 9.92906 15.6313 10.0135 15.5157L12.0002 12.7957L13.9868 15.5157C14.0713 15.6313 14.2046 15.6979 14.3468 15.6979H22.2357C22.4002 15.6979 22.5557 15.6046 22.6313 15.4579C22.7068 15.3068 22.6891 15.129 22.5913 14.9913Z" fill="#828282"/>
<path d="M20.2569 16.5556C20.0124 16.5556 19.8124 16.7556 19.8124 17.0001V21.6223C19.8124 21.9556 19.5413 22.2268 19.208 22.2268H12.4435V16.2623C12.4435 16.0179 12.2435 15.8179 11.9991 15.8179C11.7547 15.8179 11.5547 16.0179 11.5547 16.2623V22.2268H4.79021C4.45687 22.2268 4.18576 21.9556 4.18576 21.6223V17.0001C4.18576 16.7556 3.98576 16.5556 3.74132 16.5556C3.49688 16.5556 3.29688 16.7556 3.29688 17.0001V21.6223C3.29688 22.4445 3.96799 23.1156 4.79021 23.1156H19.208C20.0302 23.1156 20.7013 22.4445 20.7013 21.6223V17.0001C20.7013 16.7556 20.5013 16.5556 20.2569 16.5556Z" fill="#828282"/>
<path d="M12 0.413086C15.1875 0.413086 17.7773 3.00647 17.7773 6.19141C17.7773 7.7583 17.1494 9.18066 16.1328 10.2227H7.86719C6.85056 9.18066 6.22274 7.7583 6.22266 6.19141C6.22266 3.00647 8.81253 0.413086 12 0.413086Z" fill="#828282"/>
<path d="M15.0205 4.6793C14.926 4.61143 14.7973 4.63708 14.7329 4.73659L14.3107 5.38881C14.201 4.85041 13.947 4.35568 13.569 3.95741C13.051 3.41165 12.3623 3.11108 11.6298 3.11108C10.8973 3.11108 10.2086 3.41165 9.69063 3.95741C8.62135 5.08406 8.62135 6.91725 9.69063 8.04387C10.2253 8.6072 10.9275 8.88886 11.6298 8.88886C12.3321 8.88886 13.0343 8.6072 13.569 8.04387C13.6498 7.9587 13.6498 7.8206 13.569 7.73543C13.4881 7.65026 13.3571 7.65026 13.2763 7.73543C12.3684 8.69199 10.8912 8.69199 9.98339 7.73543C9.07554 6.77886 9.07554 5.22239 9.98339 4.26583C10.4232 3.80247 11.0079 3.54727 11.6298 3.54727C12.2518 3.54727 12.8365 3.80247 13.2763 4.26585C13.6157 4.62347 13.8369 5.07284 13.9204 5.56067L13.1857 5.03265C13.0912 4.96478 12.9624 4.99042 12.898 5.08993C12.8336 5.18944 12.858 5.32513 12.9524 5.393L14.0484 6.18067C14.0485 6.1807 14.0486 6.18076 14.0486 6.18082C14.0659 6.19326 14.0844 6.20242 14.1034 6.20868C14.104 6.20888 14.1046 6.2092 14.1052 6.20937C14.1084 6.21042 14.1117 6.21083 14.1149 6.2117C14.1315 6.21606 14.1483 6.21874 14.165 6.21874C14.2312 6.21874 14.2962 6.18541 14.3362 6.12353L15.0749 4.9824C15.1393 4.88286 15.115 4.74718 15.0205 4.6793Z" fill="black" stroke="white" stroke-width="0.444444"/>
</svg>
