<svg width="69" height="69" viewBox="0 0 69 69" fill="none" xmlns="http://www.w3.org/2000/svg">
<path d="M41.3966 55.8772H10.5447C9.94351 55.8765 9.36709 55.6374 8.94196 55.2122C8.51682 54.7871 8.27768 54.2107 8.27701 53.6095V15.3366C8.27769 14.7354 8.51683 14.159 8.94196 13.7339C9.3671 13.3087 9.94351 13.0696 10.5447 13.0689H24.3955V24.7018C24.3966 25.762 24.8182 26.7785 25.5679 27.5282C26.3176 28.2779 27.3341 28.6995 28.3943 28.7006H35.9472C37.0073 28.6994 38.0237 28.2777 38.7733 27.528C39.5228 26.7784 39.9444 25.762 39.9455 24.7018V13.0689H53.7968C54.3979 13.0697 54.9742 13.3089 55.3993 13.734C55.8243 14.1591 56.0634 14.7355 56.064 15.3366V34.1881C56.064 34.4536 56.1695 34.7082 56.3572 34.8959C56.5449 35.0836 56.7995 35.1891 57.0649 35.1891C57.3304 35.1891 57.585 35.0836 57.7727 34.8959C57.9604 34.7082 58.0659 34.4536 58.0659 34.1881V15.3366C58.0647 14.2047 57.6146 13.1195 56.8142 12.3191C56.0139 11.5186 54.9287 11.0684 53.7968 11.0671H38.9446C31.9026 11.068 17.6128 11.0664 10.5447 11.0671C9.41269 11.0683 8.32742 11.5185 7.52699 12.3189C6.72656 13.1194 6.27635 14.2047 6.27515 15.3366V53.6095C6.27635 54.7415 6.72657 55.8267 7.52701 56.6272C8.32745 57.4276 9.41274 57.8778 10.5447 57.8791H41.3966C41.6589 57.8742 41.9088 57.7666 42.0925 57.5795C42.2763 57.3923 42.3792 57.1404 42.3792 56.8781C42.3792 56.6158 42.2763 56.364 42.0925 56.1768C41.9088 55.9896 41.6589 55.882 41.3966 55.8772ZM37.9437 13.0689V24.7018C37.9432 25.2312 37.7327 25.7388 37.3584 26.1132C36.9841 26.4876 36.4766 26.6982 35.9472 26.6988H28.3943C27.8648 26.6983 27.3572 26.4877 26.9828 26.1133C26.6084 25.7389 26.3978 25.2313 26.3973 24.7018V13.0689H37.9437Z" fill="#2B2B2B" stroke="#2B2B2B" stroke-width="0.5"/>
<path d="M13.6701 44.9585C13.5387 44.9585 13.4085 44.9843 13.287 45.0346C13.1656 45.0849 13.0552 45.1586 12.9623 45.2516C12.8693 45.3445 12.7956 45.4549 12.7453 45.5763C12.695 45.6978 12.6692 45.828 12.6692 45.9594V51.6522C12.6692 51.7837 12.695 51.9138 12.7453 52.0353C12.7956 52.1567 12.8693 52.2671 12.9623 52.36C13.0552 52.453 13.1656 52.5267 13.287 52.577C13.4085 52.6273 13.5387 52.6532 13.6701 52.6531H24.0387C24.1701 52.6532 24.3003 52.6273 24.4217 52.577C24.5432 52.5267 24.6536 52.453 24.7465 52.36C24.8395 52.2671 24.9132 52.1567 24.9635 52.0353C25.0138 51.9138 25.0396 51.7837 25.0396 51.6522V45.9594C25.0396 45.828 25.0138 45.6978 24.9635 45.5763C24.9132 45.4549 24.8395 45.3445 24.7465 45.2516C24.6536 45.1586 24.5432 45.0849 24.4217 45.0346C24.3003 44.9843 24.1701 44.9585 24.0387 44.9585H13.6701ZM23.0377 50.6513H14.6711V46.9604H23.0378L23.0377 50.6513Z" fill="#2B2B2B" stroke="#2B2B2B" stroke-width="0.5"/>
<path d="M52.2572 38.5924H37.1522L41.9937 34.9914C42.2008 34.8308 42.3367 34.5955 42.3722 34.3358C42.4078 34.0762 42.3401 33.813 42.1838 33.6027C42.0274 33.3924 41.7949 33.2517 41.536 33.2109C41.2772 33.1701 41.0127 33.2324 40.7992 33.3845L33.5225 38.7967C33.3191 38.962 33.1852 39.1977 33.1471 39.457C33.109 39.7163 33.1696 39.9805 33.3168 40.1974L38.729 47.4747C38.8073 47.5803 38.9058 47.6695 39.0186 47.7371C39.1314 47.8047 39.2565 47.8493 39.3866 47.8685C39.5168 47.8878 39.6494 47.8811 39.777 47.849C39.9045 47.8169 40.0245 47.76 40.13 47.6815C40.2356 47.603 40.3246 47.5045 40.3921 47.3916C40.4595 47.2786 40.504 47.1535 40.523 47.0233C40.5421 46.8932 40.5353 46.7606 40.503 46.633C40.4707 46.5055 40.4136 46.3856 40.335 46.2802L36.106 40.5942H52.2572C54.397 40.5942 56.4491 41.4443 57.9622 42.9573C59.4752 44.4704 60.3252 46.5225 60.3252 48.6623C60.3252 50.802 59.4752 52.8542 57.9622 54.3672C56.4491 55.8803 54.397 56.7303 52.2572 56.7303H47.7232C47.4599 56.7335 47.2084 56.8404 47.0233 57.0278C46.8382 57.2151 46.7345 57.4679 46.7345 57.7312C46.7345 57.9946 46.8382 58.2473 47.0233 58.4347C47.2084 58.6221 47.4599 58.7289 47.7232 58.7322H52.2572C65.6118 58.1811 65.617 39.1454 52.2572 38.5924Z" fill="#2B2B2B" stroke="#2B2B2B" stroke-width="0.5"/>
</svg>
