<svg width="54" height="54" viewBox="0 0 54 54" fill="none" xmlns="http://www.w3.org/2000/svg">
<g clip-path="url(#clip0_43_2660)">
<path d="M50.5557 26.9923C50.5557 31.6511 49.1742 36.2054 46.5858 40.0791C43.9975 43.9527 40.3186 46.9719 36.0144 48.7548C31.7102 50.5376 26.974 51.0041 22.4046 50.0952C17.8353 49.1863 13.6381 46.9429 10.3438 43.6486C7.04951 40.3543 4.80606 36.1571 3.89716 31.5877C2.98827 27.0184 3.45475 22.2822 5.23761 17.978C7.02047 13.6738 10.0397 9.99487 13.9133 7.40656C17.787 4.81824 22.3413 3.43673 27.0001 3.43673C33.2474 3.43673 39.2389 5.91847 43.6564 10.336C48.0739 14.7535 50.5557 20.745 50.5557 26.9923ZM6.389 26.9923C6.389 31.0688 7.59782 35.0537 9.86259 38.4432C12.1274 41.8327 15.3464 44.4745 19.1126 46.0345C22.8788 47.5945 27.023 48.0026 31.0211 47.2074C35.0193 46.4121 38.6918 44.4491 41.5744 41.5665C44.4569 38.684 46.4199 35.0115 47.2152 31.0133C48.0105 27.0151 47.6023 22.8709 46.0423 19.1048C44.4823 15.3386 41.8405 12.1195 38.451 9.85477C35.0615 7.58999 31.0766 6.38117 27.0001 6.38117C21.5337 6.38117 16.2912 8.5527 12.4259 12.418C8.56052 16.2834 6.389 21.5259 6.389 26.9923Z" fill="#2B2B2B"/>
<path d="M41.3394 26.8746L30.1357 38.0782C30.0038 38.2323 29.8414 38.3575 29.6587 38.4458C29.476 38.5342 29.2771 38.5838 29.0744 38.5917C28.8716 38.5995 28.6694 38.5653 28.4805 38.4913C28.2916 38.4173 28.12 38.305 27.9765 38.1616C27.833 38.0181 27.7208 37.8465 27.6467 37.6576C27.5727 37.4687 27.5386 37.2665 27.5464 37.0637C27.5542 36.861 27.6039 36.662 27.6923 36.4794C27.7806 36.2967 27.9058 36.1343 28.0599 36.0023L35.5682 28.4646H13.4849C13.0945 28.4646 12.72 28.3094 12.4439 28.0334C12.1678 27.7573 12.0127 27.3828 12.0127 26.9923C12.0127 26.6019 12.1678 26.2274 12.4439 25.9513C12.72 25.6752 13.0945 25.5201 13.4849 25.5201H35.8332L28.0599 17.7468C27.9058 17.6148 27.7806 17.4524 27.6923 17.2697C27.6039 17.0871 27.5542 16.8881 27.5464 16.6854C27.5386 16.4826 27.5727 16.2804 27.6467 16.0915C27.7208 15.9026 27.833 15.731 27.9765 15.5875C28.12 15.4441 28.2916 15.3318 28.4805 15.2578C28.6694 15.1838 28.8716 15.1496 29.0744 15.1574C29.2771 15.1653 29.476 15.2149 29.6587 15.3033C29.8414 15.3917 30.0038 15.5168 30.1357 15.6709L41.3394 26.8746Z" fill="#2B2B2B"/>
</g>
<defs>
<clipPath id="clip0_43_2660">
<rect width="53" height="53" fill="white" transform="matrix(0 -1 -1 0 53.5 53.4922)"/>
</clipPath>
</defs>
</svg>
