<svg width="161" height="161" viewBox="0 0 161 161" fill="none" xmlns="http://www.w3.org/2000/svg">
<g clip-path="url(#clip0_74_502)">
<path d="M76.5364 45.1869C74.9613 31.6883 73.2981 17.4358 73.2981 0.88623H88.1583C88.1583 17.2499 86.5031 31.4843 84.93 44.998C83.6485 56.011 82.4226 66.5454 82.1949 77.3639C89.6567 69.5809 96.1838 61.3282 103.021 52.6834C111.452 42.0249 120.355 30.7709 132.056 19.069L142.564 29.577C130.993 41.1479 119.756 50.042 109.088 58.4859L109.078 58.4935C100.389 65.3723 92.0768 71.9523 84.269 79.438C95.0475 79.2103 105.498 77.9909 116.445 76.7134C129.944 75.1378 144.197 73.4746 160.747 73.4746V88.3348C144.384 88.3348 130.149 86.6789 116.636 85.1065L116.626 85.1057C105.616 83.8246 95.0843 82.5995 84.269 82.3715C92.0468 89.8276 100.295 96.3519 108.934 103.185L108.948 103.196C119.607 111.627 130.861 120.529 142.564 132.233L132.056 142.741C120.485 131.17 111.591 119.934 103.149 109.267L103.129 109.239L103.112 109.217C96.2418 100.542 89.6699 92.2425 82.1949 84.4455C82.4226 95.264 83.6485 105.798 84.93 116.811C86.5031 130.325 88.1583 144.559 88.1583 160.923H73.2981C73.2981 144.374 74.9613 130.121 76.5364 116.623L76.5396 116.601C77.8155 105.661 79.0338 95.2168 79.2615 84.4455C71.7865 92.2425 65.2146 100.542 58.3446 109.217L58.3278 109.239L58.3078 109.267C49.8651 119.934 40.9714 131.17 29.4005 142.741L18.8925 132.233C30.595 120.529 41.8496 111.627 52.5085 103.196L52.5221 103.185C61.1613 96.3519 69.4096 89.8276 77.1874 82.3715C66.3689 82.5999 55.8341 83.8254 44.8203 85.1065C31.3072 86.6789 17.0729 88.3348 0.709717 88.3348V73.4746C17.2593 73.4746 31.5126 75.1378 45.0112 76.7134C55.9581 77.9909 66.4089 79.2103 77.1874 79.438C69.3764 71.9495 61.0609 65.3675 52.3681 58.4859C41.7004 50.042 30.4632 41.1479 18.8925 29.577L29.4005 19.069C41.1019 30.7709 50.0047 42.0249 58.4351 52.6834C65.2726 61.3278 71.7997 69.5805 79.2615 77.3631C79.0338 66.5922 77.8155 56.1482 76.5396 45.2089L76.5364 45.1869Z" fill="#151313" fill-opacity="0.04"/>
</g>
<defs>
<clipPath id="clip0_74_502">
<rect width="160.037" height="160.037" fill="white" transform="translate(0.709717 0.88623)"/>
</clipPath>
</defs>
</svg>
