<svg width="15" height="14" viewBox="0 0 15 14" fill="none" xmlns="http://www.w3.org/2000/svg">
<path d="M13.4198 6.44715C13.4576 6.76609 13.357 7.03792 13.118 7.26264C12.879 7.48735 12.5658 7.62268 12.1785 7.66861C11.7457 7.71995 11.0782 7.64318 10.176 7.43831C9.25105 7.23614 8.35573 7.1864 7.49003 7.28907C7.76243 7.63795 8.03512 7.94058 8.3081 8.19698C8.58108 8.45337 8.85001 8.6756 9.11488 8.86365C9.4676 9.11059 9.80892 9.35888 10.1389 9.60852C10.4574 9.85951 10.7247 10.1166 10.9407 10.3797C11.1567 10.6429 11.2823 10.9225 11.3174 11.2187C11.3499 11.4921 11.2864 11.7364 11.1272 11.9517C10.9565 12.1683 10.7458 12.2914 10.4952 12.3212C10.2105 12.3549 9.92861 12.2671 9.64964 12.0576C9.35929 11.8495 9.11604 11.5029 8.91991 11.0179C8.82184 10.7754 8.72242 10.5216 8.62165 10.2563C8.50814 9.98097 8.404 9.68723 8.30922 9.37504C8.11096 8.77481 7.76357 8.1345 7.26704 7.45413C6.94344 8.23178 6.75248 8.95903 6.69415 9.63591C6.63311 10.29 6.5633 10.8701 6.48471 11.3761C6.39337 11.872 6.23592 12.2488 6.01234 12.5063C5.77737 12.7652 5.51751 12.9115 5.23274 12.9453C4.97075 12.9764 4.74352 12.9109 4.55105 12.749C4.35722 12.5756 4.24274 12.3408 4.20761 12.0446C4.17114 11.7371 4.24789 11.4103 4.43788 11.0644C4.61647 10.7198 4.847 10.3748 5.12946 10.0294C5.41192 9.68403 5.68068 9.36915 5.93572 9.08478C6.33403 8.64481 6.69266 8.06515 7.01162 7.34582L6.7895 7.37216C6.44778 7.41269 6.14226 7.46626 5.87294 7.53285C5.59087 7.58941 5.35138 7.66402 5.15445 7.75668C4.89188 7.88023 4.59649 8.01923 4.26828 8.17366C3.93872 8.31671 3.6192 8.44702 3.30971 8.56458C2.98884 8.68349 2.73158 8.75443 2.53794 8.7774C2.13927 8.82469 1.80315 8.76637 1.52958 8.60245C1.24328 8.42849 1.08189 8.18774 1.04541 7.88019C1.01028 7.58403 1.10586 7.31857 1.33214 7.08382C1.55841 6.84906 1.87659 6.70737 2.28665 6.65873C2.69672 6.61009 3.37562 6.68551 4.32335 6.88498C5.25969 7.0858 6.14362 7.13689 6.97515 7.03827C6.7873 6.81798 6.64541 6.64422 6.54946 6.51699C6.44213 6.39111 6.34888 6.28666 6.26973 6.20364C6.17919 6.12197 6.0759 6.03026 5.95987 5.92851C5.83246 5.82811 5.65407 5.68756 5.42472 5.50684C4.45307 4.81352 3.84011 4.32023 3.58586 4.02696C3.33161 3.73369 3.18422 3.41619 3.14369 3.07447C3.11126 2.80109 3.16967 2.56315 3.31892 2.36063C3.46816 2.15811 3.67378 2.04132 3.93576 2.01024C4.22053 1.97647 4.50172 2.05863 4.77934 2.25672C5.04421 2.44477 5.28611 2.77994 5.50502 3.26221C5.61313 3.49196 5.71824 3.74516 5.82036 4.02183C5.92113 4.2871 6.0246 4.57515 6.13077 4.88598C6.34177 5.49626 6.69755 6.15867 7.19814 6.87321C7.35994 6.48439 7.48959 6.11671 7.5871 5.77016C7.67187 5.41358 7.72951 5.07177 7.76003 4.74472C7.82241 4.10202 7.89859 3.52699 7.98858 3.01962C8.06582 2.50222 8.21556 2.10906 8.43778 1.84013C8.66 1.5712 8.9135 1.41985 9.19827 1.38607C9.44886 1.35635 9.68247 1.42683 9.89907 1.5975C10.1029 1.75814 10.2224 1.98653 10.2576 2.28269C10.2873 2.53329 10.2329 2.80541 10.0945 3.09905C9.95606 3.39269 9.78278 3.68469 9.57464 3.97505C9.35512 4.26676 9.13859 4.53501 8.92506 4.7798C8.71017 5.01321 8.54181 5.20066 8.41999 5.34218C8.16494 5.62655 7.8428 6.173 7.45356 6.98153L7.67567 6.95518C8.39329 6.87007 9.19016 6.62539 10.0663 6.22115C10.9424 5.81691 11.5627 5.59317 11.9272 5.54994C12.3259 5.50266 12.6627 5.56667 12.9376 5.74198C13.2239 5.91594 13.3846 6.151 13.4198 6.44715Z" fill="#939393"/>
</svg>
