<svg width="38" height="38" viewBox="0 0 38 38" fill="none" xmlns="http://www.w3.org/2000/svg">
<path d="M19 0C11.1411 0 4.75 6.39112 4.75 14.25C4.75 24.1276 17.613 37.1046 18.1593 37.6533C18.392 37.8836 18.696 38 19 38C19.304 38 19.608 37.8836 19.8407 37.6533C20.387 37.1046 33.25 24.1276 33.25 14.25C33.25 6.39112 26.8589 0 19 0Z" fill="#FFC107"/>
<path d="M19 21.375C22.935 21.375 26.125 18.185 26.125 14.25C26.125 10.315 22.935 7.125 19 7.125C15.065 7.125 11.875 10.315 11.875 14.25C11.875 18.185 15.065 21.375 19 21.375Z" fill="#FAFAFA"/>
</svg>
