<?xml version="1.0" encoding="UTF-8"?>
<svg version="1.1" xmlns="http://www.w3.org/2000/svg" width="38" height="38">
<path d="M0 0 C4.572103 2.84635824 7.84882732 5.53780959 9.328125 10.86328125 C10.19989935 17.21088826 10.15411939 22.38245168 6.703125 27.92578125 C3.19056748 32.41404919 0.35017583 34.44823564 -5.40234375 35.23828125 C-12.10456817 35.64602114 -16.56545437 34.71830609 -21.890625 30.55078125 C-26.16476916 26.50159204 -26.88703246 22.76022433 -27.234375 17.05078125 C-27.06626478 10.61456146 -25.07085314 6.50664707 -20.671875 1.86328125 C-15.03235234 -2.56777227 -6.49907379 -2.76495683 0 0 Z M-9.671875 7.86328125 C-11.07394359 9.05958755 -11.07394359 9.05958755 -11.109375 12.48828125 C-11.10097836 17.14002166 -9.11803002 19.36356494 -5.984375 22.61328125 C-5.55125 23.02578125 -5.118125 23.43828125 -4.671875 23.86328125 C-3.681875 23.53328125 -2.691875 23.20328125 -1.671875 22.86328125 C-2.82360855 20.39528078 -3.71971065 18.8154456 -5.671875 16.86328125 C-6.3046875 14.69921875 -6.3046875 14.69921875 -6.796875 12.23828125 C-6.96445312 11.42101562 -7.13203125 10.60375 -7.3046875 9.76171875 C-7.42585938 9.13523437 -7.54703125 8.50875 -7.671875 7.86328125 C-8.331875 7.86328125 -8.991875 7.86328125 -9.671875 7.86328125 Z " fill="#FFC007" transform="translate(27.671875,2.13671875)"/>
</svg>
