<svg width="38" height="38" viewBox="0 0 38 38" fill="none" xmlns="http://www.w3.org/2000/svg">
<g clip-path="url(#clip0_575_1694)">
<path fill-rule="evenodd" clip-rule="evenodd" d="M26.121 36.9165C23.6057 37.4448 20.4436 36.5291 16.9754 34.2679C13.9256 32.2799 10.6991 29.2808 7.89208 25.8236C5.29705 22.6283 3.18836 19.192 1.95462 16.1483C0.576564 12.7498 0.304222 9.9145 1.16805 7.95015C1.82516 6.45314 2.98917 4.40149 4.79943 3.13403C5.58339 2.58414 6.22217 2.27102 6.81051 2.14746C8.68593 1.75362 10.0173 3.16749 12.4778 6.70125C13.9793 8.85672 14.4967 10.1973 14.2079 11.184C13.9303 12.1334 12.9695 12.5308 11.9539 12.9526C11.8247 13.0055 11.6936 13.0604 11.5607 13.1171C9.75988 13.8843 10.1234 15.4165 10.14 15.4813C10.1407 15.4849 10.1415 15.4885 10.1428 15.4913C10.9064 18.8528 17.1166 25.7892 20.3874 26.9444C20.4034 26.9486 20.4191 26.9545 20.4347 26.9603C20.5208 26.9877 20.9463 27.1069 21.4489 27.0013C22.0532 26.8744 22.551 26.4711 22.9264 25.803C22.9976 25.6766 23.0663 25.5522 23.1333 25.4304C23.6534 24.4839 24.1446 23.5906 25.083 23.3935C26.1021 23.1795 27.3944 23.8371 29.4042 25.5924C32.0649 27.9162 33.3477 29.2758 33.4437 30.7185C33.5028 31.6177 33.1046 32.484 32.1106 33.6156C30.4867 35.4636 27.9541 36.4042 26.5887 36.8001C26.4372 36.8441 26.2801 36.8831 26.1224 36.9162C26.1217 36.9164 26.121 36.9165 26.121 36.9165Z" fill="#FFC107"/>
<path d="M34.5735 18.7717L34.5735 18.7717C34.1902 18.7504 33.8967 18.4228 33.9169 18.0399L33.9169 18.0393C34.3476 10.1995 28.3189 3.47132 20.4793 3.04133C20.0958 3.02084 19.8022 2.69274 19.8234 2.30956L34.5735 18.7717ZM34.5735 18.7717L34.5779 18.7719M34.5735 18.7717L34.5779 18.7719M34.5779 18.7719C34.6355 18.7741 34.695 18.7701 34.7544 18.7576C35.0542 18.6946 35.2882 18.4369 35.3053 18.1151M34.5779 18.7719L34.1665 18.053C34.1536 18.2984 34.3418 18.5084 34.5874 18.5221C34.6271 18.5236 34.6659 18.5207 34.703 18.5129C34.8955 18.4725 35.045 18.3069 35.0557 18.1014M35.0557 18.1014L35.3053 18.1151M35.0557 18.1014L35.3053 18.1144C35.3053 18.1146 35.3053 18.1149 35.3053 18.1151M35.0557 18.1014C35.5208 9.63426 29.01 2.36744 20.5421 1.90244L35.3053 18.1151M35.3053 18.1151C35.778 9.51009 29.1615 2.12539 20.5558 1.65281L20.5558 1.65281L20.5553 1.65278C20.1729 1.63264 19.8446 1.92491 19.8235 2.30936L35.3053 18.1151Z" fill="#FFC107" stroke="#FFC107" stroke-width="0.5"/>
<path d="M30.2899 18.5362L30.2899 18.5362C29.9068 18.5149 29.6129 18.1872 29.6341 17.8037C29.7796 15.1493 28.8838 12.5989 27.1096 10.6193L27.1096 10.6193C25.3363 8.64026 22.8993 7.4703 20.245 7.32479L20.2448 7.32478C19.8616 7.30347 19.5676 6.97575 19.589 6.59209C19.6103 6.209 19.9379 5.91504 20.3215 5.93627L30.2899 18.5362ZM30.2899 18.5362L30.2943 18.5364M30.2899 18.5362L30.2943 18.5364M30.2943 18.5364C30.3522 18.5386 30.4116 18.5345 30.4715 18.5219C30.7723 18.4588 31.0046 18.2006 31.0224 17.8796L31.0225 17.8794M30.2943 18.5364L31.0225 17.8794M20.2587 7.07516C22.9792 7.2243 25.4782 8.42405 27.2958 10.4525L20.2587 7.07516ZM20.2587 7.07516C20.0131 7.06151 19.8249 6.85152 19.8386 6.60597M20.2587 7.07516L19.8386 6.60597M31.0225 17.8794C31.1884 14.8556 30.1665 11.9472 28.1452 9.69135M31.0225 17.8794L28.1452 9.69135M28.1452 9.69135C26.1247 7.43604 23.3453 6.10222 20.3216 5.93627L28.1452 9.69135ZM19.8386 6.60597C19.8522 6.36042 20.0622 6.17224 20.3078 6.18589L19.8386 6.60597Z" fill="#FFC107" stroke="#FFC107" stroke-width="0.5"/>
<path d="M25.3504 17.5683L25.6 17.5822C25.7782 14.3285 23.2763 11.5367 20.0233 11.3584C19.7778 11.3447 19.5896 11.1347 19.6032 10.8892C19.6169 10.6436 19.8269 10.4554 20.0724 10.4691L20.0862 10.2195C19.7026 10.1982 19.3749 10.4922 19.3536 10.8753C19.3323 11.259 19.6263 11.5867 20.0094 11.608L20.0096 11.608C23.1247 11.7788 25.5209 14.4525 25.3504 17.5683ZM25.3504 17.5683C25.3291 17.9515 25.6225 18.2796 26.0059 18.3002C26.067 18.3037 26.1278 18.2994 26.1878 18.2868C26.4876 18.2238 26.7209 17.9656 26.7387 17.6444L26.7387 17.6442C26.9514 13.7632 23.9674 10.433 20.0863 10.2195" fill="#FFC107" stroke="#FFC107" stroke-width="0.5"/>
</g>
<defs>
<clipPath id="clip0_575_1694">
<rect width="38" height="38" fill="white"/>
</clipPath>
</defs>
</svg>
