<svg width="15" height="13" viewBox="0 0 15 13" fill="none" xmlns="http://www.w3.org/2000/svg">
<path d="M1.37583 7.244C1.33371 6.92559 1.43063 6.65244 1.6666 6.42452C1.90257 6.19661 2.21387 6.05707 2.6005 6.00593C3.03262 5.94876 3.7011 6.01653 4.60595 6.20923C5.53354 6.39892 6.42946 6.43659 7.29369 6.32226C7.01661 5.97709 6.73987 5.67816 6.46346 5.42546C6.18705 5.17277 5.91516 4.95419 5.64777 4.76972C5.29176 4.52756 4.94712 4.28389 4.61386 4.03871C4.29196 3.79204 4.02124 3.53859 3.80169 3.27837C3.58213 3.01815 3.4528 2.74022 3.41369 2.44456C3.37758 2.17164 3.43771 1.92649 3.59408 1.70911C3.76182 1.49022 3.97078 1.36423 4.22095 1.33113C4.50524 1.29352 4.78827 1.37757 5.07003 1.58328C5.36316 1.78748 5.61106 2.13072 5.81371 2.61302C5.91503 2.85416 6.01786 3.10668 6.12219 3.37057C6.2394 3.64432 6.3475 3.93664 6.44648 4.24752C6.6528 4.84503 7.00878 5.4806 7.51444 6.15421C7.82753 5.37228 8.00868 4.64252 8.05788 3.96492C8.1101 3.31007 8.17209 2.72913 8.24386 2.2221C8.32851 1.72494 8.48087 1.3461 8.70096 1.08558C8.93241 0.823547 9.19029 0.673728 9.47457 0.636119C9.73612 0.601519 9.96421 0.663908 10.1589 0.823286C10.355 0.994036 10.4726 1.22724 10.5117 1.5229C10.5524 1.82993 10.48 2.15769 10.2947 2.50617C10.1208 2.85316 9.89491 3.20123 9.61713 3.55038C9.33934 3.89953 9.07486 4.218 8.82366 4.50578C8.43133 4.95108 8.08053 5.53551 7.77129 6.25908L7.99303 6.22975C8.33418 6.18462 8.63895 6.12694 8.90735 6.05672C9.18863 5.99637 9.4271 5.91854 9.62276 5.82323C9.88364 5.69616 10.1771 5.5532 10.5032 5.39435C10.8308 5.24688 11.1486 5.11228 11.4564 4.99056C11.7757 4.86733 12.032 4.79293 12.2253 4.76735C12.6233 4.7147 12.9602 4.76849 13.2359 4.9287C13.5245 5.09879 13.6891 5.33735 13.7298 5.64438C13.7689 5.94004 13.6769 6.20676 13.4538 6.44454C13.2307 6.68232 12.9145 6.82829 12.5051 6.88245C12.0957 6.9366 11.4159 6.87034 10.4655 6.68366C9.52656 6.49548 8.64202 6.45629 7.81191 6.56611C8.0027 6.78385 8.14692 6.95568 8.24457 7.08161C8.3536 7.20603 8.44824 7.30922 8.52851 7.39116C8.62014 7.4716 8.72465 7.56191 8.84204 7.66209C8.9708 7.76076 9.15106 7.8989 9.38282 8.07651C10.3637 8.75667 10.9833 9.24167 11.2415 9.53149C11.4996 9.8213 11.6513 10.1368 11.6964 10.4779C11.7325 10.7508 11.6773 10.9896 11.5308 11.1941C11.3843 11.3986 11.1803 11.5181 10.9188 11.5527C10.6345 11.5903 10.3522 11.512 10.0719 11.3176C9.80455 11.1332 9.55816 10.8013 9.33277 10.322C9.22158 10.0937 9.11307 9.84198 9.00723 9.56672C8.90289 9.30283 8.79555 9.0162 8.6852 8.70683C8.466 8.09945 8.10132 7.44189 7.59116 6.73416C7.43461 7.12513 7.30992 7.49452 7.21709 7.84235C7.13714 8.20004 7.0841 8.5426 7.058 8.87002C7.00428 9.51351 6.93585 10.0895 6.85271 10.598C6.78244 11.1164 6.63802 11.5116 6.41944 11.7835C6.20086 12.0554 5.94942 12.2101 5.66514 12.2477C5.41496 12.2808 5.18043 12.2135 4.96154 12.0458C4.75553 11.8879 4.63297 11.6611 4.59385 11.3655C4.56076 11.1153 4.61144 10.8425 4.74591 10.547C4.88038 10.2515 5.04971 9.95721 5.25391 9.66407C5.46949 9.36943 5.68238 9.09829 5.8926 8.85064C6.10432 8.61436 6.27014 8.42465 6.39005 8.28152C6.64124 7.99373 6.95599 7.44299 7.33431 6.62929L7.11256 6.65863C6.39616 6.7534 5.60266 7.00879 4.73205 7.4248C3.86145 7.84081 3.2442 8.07288 2.88031 8.12102C2.48231 8.17367 2.14469 8.1142 1.86744 7.94261C1.57881 7.77253 1.41495 7.53965 1.37583 7.244Z" fill="white"/>
</svg>
