<svg width="220" height="220" viewBox="0 0 220 220" fill="none" xmlns="http://www.w3.org/2000/svg">
<g clip-path="url(#clip0_514_1576)">
<path d="M104.238 60.8993C102.072 42.343 99.7859 22.7504 99.7859 0H120.214C120.214 22.4949 117.939 42.0626 115.776 60.6397C114.014 75.779 112.329 90.2605 112.016 105.132C122.274 94.4333 131.247 83.0885 140.646 71.2047C152.235 56.5526 164.474 41.082 180.559 24.9955L195.005 39.4407C179.098 55.347 163.651 67.5735 148.986 79.1813L148.972 79.1917C137.028 88.6479 125.601 97.6932 114.868 107.984C129.684 107.671 144.051 105.994 159.1 104.238C177.656 102.072 197.25 99.7859 220 99.7859V120.214C197.506 120.214 177.938 117.938 159.362 115.776L159.348 115.775C144.212 114.014 129.735 112.33 114.868 112.016C125.56 122.266 136.898 131.235 148.774 140.628L148.793 140.644C163.446 152.234 178.917 164.471 195.005 180.559L180.559 195.005C164.653 179.099 152.427 163.652 140.821 148.989L140.793 148.951L140.77 148.921C131.326 136.995 122.292 125.586 112.016 114.868C112.329 129.74 114.014 144.221 115.776 159.36C117.939 177.938 120.214 197.505 120.214 220H99.7859C99.7859 197.25 102.072 177.657 104.238 159.101L104.242 159.07C105.996 144.032 107.671 129.675 107.984 114.868C97.7081 125.586 88.6738 136.995 79.2297 148.921L79.2066 148.951L79.1791 148.989C67.573 163.652 55.347 179.099 39.4407 195.005L24.9955 180.559C41.0827 164.471 56.5543 152.234 71.2068 140.644L71.2255 140.628C83.1017 131.235 94.4405 122.266 105.132 112.016C90.2605 112.33 75.7785 114.015 60.6381 115.776C42.0618 117.938 22.4941 120.214 0 120.214V99.7859C22.7504 99.7859 42.3442 102.072 60.9004 104.238C75.949 105.994 90.3155 107.671 105.132 107.984C94.3949 97.6893 82.9637 88.6413 71.0138 79.1813C56.3492 67.5735 40.9016 55.347 24.9955 39.4407L39.4407 24.9955C55.5264 41.082 67.765 56.5526 79.354 71.2047C88.7535 83.0879 97.7262 94.4328 107.984 105.131C107.671 90.3248 105.996 75.9677 104.242 60.9296L104.238 60.8993Z" fill="#151313" fill-opacity="0.04"/>
</g>
<defs>
<clipPath id="clip0_514_1576">
<rect width="220" height="220" fill="white"/>
</clipPath>
</defs>
</svg>
