<svg width="116" height="116" viewBox="0 0 116 116" fill="none" xmlns="http://www.w3.org/2000/svg">
<g clip-path="url(#clip0_353_8375)">
<path d="M58 116C90.0325 116 116 90.0325 116 58C116 25.9675 90.0325 0 58 0C25.9675 0 0 25.9675 0 58C0 90.0325 25.9675 116 58 116Z" fill="#32BA7C"/>
<path d="M43.1797 84.1641L73.003 113.987C97.7033 107.401 116 84.8959 116 58C116 57.4511 116 56.9022 116 56.3533L92.5803 34.7634L43.1797 84.1641Z" fill="#0AA06E"/>
<path d="M59.4642 70.9905C62.0258 73.552 62.0258 77.9432 59.4642 80.5047L54.1583 85.8107C51.5967 88.3722 47.2056 88.3722 44.6441 85.8107L21.4075 62.3911C18.8459 59.8296 18.8459 55.4384 21.4075 52.8769L26.7135 47.5709C29.275 45.0094 33.6661 45.0094 36.2277 47.5709L59.4642 70.9905Z" fill="white"/>
<path d="M79.7731 30.5552C82.3346 27.9937 86.7258 27.9937 89.2873 30.5552L94.5933 35.8612C97.1548 38.4227 97.1548 42.8138 94.5933 45.3754L54.3409 85.4448C51.7794 88.0063 47.3883 88.0063 44.8267 85.4448L39.5207 80.1388C36.9592 77.5772 36.9592 73.1861 39.5207 70.6246L79.7731 30.5552Z" fill="white"/>
</g>
<defs>
<clipPath id="clip0_353_8375">
<rect width="116" height="116" fill="white"/>
</clipPath>
</defs>
</svg>
